<svg width="375" height="812" viewBox="0 0 375 812" fill="none" xmlns="http://www.w3.org/2000/svg">
<rect width="375" height="812" rx="40" fill="white"/>
<path d="M42.672 484.48C42.368 483.92 41.928 483.496 41.352 483.208C40.792 482.904 40.128 482.752 39.36 482.752C38.032 482.752 36.968 483.192 36.168 484.072C35.368 484.936 34.968 486.096 34.968 487.552C34.968 489.104 35.384 490.32 36.216 491.2C37.064 492.064 38.224 492.496 39.696 492.496C40.704 492.496 41.552 492.24 42.24 491.728C42.944 491.216 43.456 490.48 43.776 489.52H38.568V486.496H47.496V490.312C47.192 491.336 46.672 492.288 45.936 493.168C45.216 494.048 44.296 494.76 43.176 495.304C42.056 495.848 40.792 496.12 39.384 496.12C37.72 496.12 36.232 495.76 34.92 495.04C33.624 494.304 32.608 493.288 31.872 491.992C31.152 490.696 30.792 489.216 30.792 487.552C30.792 485.888 31.152 484.408 31.872 483.112C32.608 481.8 33.624 480.784 34.92 480.064C36.216 479.328 37.696 478.96 39.36 478.96C41.376 478.96 43.072 479.448 44.448 480.424C45.84 481.4 46.76 482.752 47.208 484.48H42.672ZM62.3932 489.088C62.3932 489.472 62.3693 489.872 62.3213 490.288H53.0333C53.0973 491.12 53.3613 491.76 53.8253 492.208C54.3053 492.64 54.8893 492.856 55.5773 492.856C56.6013 492.856 57.3133 492.424 57.7133 491.56H62.0813C61.8573 492.44 61.4493 493.232 60.8573 493.936C60.2813 494.64 59.5533 495.192 58.6733 495.592C57.7933 495.992 56.8093 496.192 55.7213 496.192C54.4093 496.192 53.2413 495.912 52.2173 495.352C51.1933 494.792 50.3933 493.992 49.8173 492.952C49.2413 491.912 48.9533 490.696 48.9533 489.304C48.9533 487.912 49.2333 486.696 49.7933 485.656C50.3693 484.616 51.1693 483.816 52.1933 483.256C53.2173 482.696 54.3933 482.416 55.7213 482.416C57.0173 482.416 58.1693 482.688 59.1773 483.232C60.1853 483.776 60.9693 484.552 61.5293 485.56C62.1053 486.568 62.3932 487.744 62.3932 489.088ZM58.1933 488.008C58.1933 487.304 57.9533 486.744 57.4733 486.328C56.9933 485.912 56.3933 485.704 55.6733 485.704C54.9853 485.704 54.4013 485.904 53.9213 486.304C53.4573 486.704 53.1693 487.272 53.0573 488.008H58.1933ZM72.0223 492.52V496H69.9343C68.4463 496 67.2863 495.64 66.4543 494.92C65.6223 494.184 65.2063 492.992 65.2063 491.344V486.016H63.5743V482.608H65.2063V479.344H69.3103V482.608H71.9983V486.016H69.3103V491.392C69.3103 491.792 69.4063 492.08 69.5983 492.256C69.7903 492.432 70.1103 492.52 70.5583 492.52H72.0223ZM89.5943 487.36C90.5703 487.568 91.3543 488.056 91.9463 488.824C92.5383 489.576 92.8343 490.44 92.8343 491.416C92.8343 492.824 92.3383 493.944 91.3463 494.776C90.3703 495.592 89.0023 496 87.2423 496H79.3943V479.152H86.9783C88.6903 479.152 90.0263 479.544 90.9863 480.328C91.9623 481.112 92.4503 482.176 92.4503 483.52C92.4503 484.512 92.1863 485.336 91.6583 485.992C91.1463 486.648 90.4583 487.104 89.5943 487.36ZM83.4983 485.968H86.1863C86.8583 485.968 87.3703 485.824 87.7223 485.536C88.0903 485.232 88.2743 484.792 88.2743 484.216C88.2743 483.64 88.0903 483.2 87.7223 482.896C87.3703 482.592 86.8583 482.44 86.1863 482.44H83.4983V485.968ZM86.5223 492.688C87.2103 492.688 87.7383 492.536 88.1063 492.232C88.4903 491.912 88.6823 491.456 88.6823 490.864C88.6823 490.272 88.4823 489.808 88.0823 489.472C87.6983 489.136 87.1623 488.968 86.4743 488.968H83.4983V492.688H86.5223ZM108.439 482.608V496H104.335V494.176C103.919 494.768 103.351 495.248 102.631 495.616C101.927 495.968 101.143 496.144 100.279 496.144C99.2546 496.144 98.3506 495.92 97.5666 495.472C96.7826 495.008 96.1746 494.344 95.7426 493.48C95.3106 492.616 95.0946 491.6 95.0946 490.432V482.608H99.1746V489.88C99.1746 490.776 99.4066 491.472 99.8706 491.968C100.335 492.464 100.959 492.712 101.743 492.712C102.543 492.712 103.175 492.464 103.639 491.968C104.103 491.472 104.335 490.776 104.335 489.88V482.608H108.439ZM115.49 484.84C115.97 484.104 116.57 483.528 117.29 483.112C118.01 482.68 118.81 482.464 119.69 482.464V486.808H118.562C117.538 486.808 116.77 487.032 116.258 487.48C115.746 487.912 115.49 488.68 115.49 489.784V496H111.386V482.608H115.49V484.84ZM129.812 482.464C131.38 482.464 132.628 482.976 133.556 484C134.5 485.008 134.972 486.4 134.972 488.176V496H130.892V488.728C130.892 487.832 130.66 487.136 130.196 486.64C129.732 486.144 129.108 485.896 128.324 485.896C127.54 485.896 126.916 486.144 126.452 486.64C125.988 487.136 125.756 487.832 125.756 488.728V496H121.652V482.608H125.756V484.384C126.172 483.792 126.732 483.328 127.436 482.992C128.14 482.64 128.932 482.464 129.812 482.464Z" fill="#1D1617"/>
<path d="M32.352 534.964H35.768V536H31.078V526.242H32.352V534.964ZM44.121 531.87C44.121 532.113 44.107 532.369 44.079 532.64H37.947C37.9936 533.396 38.2503 533.989 38.717 534.418C39.193 534.838 39.767 535.048 40.439 535.048C40.9896 535.048 41.447 534.922 41.811 534.67C42.1843 534.409 42.4456 534.063 42.595 533.634H43.967C43.7616 534.371 43.351 534.973 42.735 535.44C42.119 535.897 41.3536 536.126 40.439 536.126C39.711 536.126 39.0576 535.963 38.479 535.636C37.9096 535.309 37.4616 534.847 37.135 534.25C36.8083 533.643 36.645 532.943 36.645 532.15C36.645 531.357 36.8036 530.661 37.121 530.064C37.4383 529.467 37.8816 529.009 38.451 528.692C39.0296 528.365 39.6923 528.202 40.439 528.202C41.167 528.202 41.811 528.361 42.371 528.678C42.931 528.995 43.3603 529.434 43.659 529.994C43.967 530.545 44.121 531.17 44.121 531.87ZM42.805 531.604C42.805 531.119 42.6976 530.703 42.483 530.358C42.2683 530.003 41.9743 529.737 41.601 529.56C41.237 529.373 40.831 529.28 40.383 529.28C39.739 529.28 39.1883 529.485 38.731 529.896C38.283 530.307 38.0263 530.876 37.961 531.604H42.805ZM47.3566 529.378V533.9C47.3566 534.273 47.4359 534.539 47.5946 534.698C47.7533 534.847 48.0286 534.922 48.4206 534.922H49.3586V536H48.2106C47.5013 536 46.9693 535.837 46.6146 535.51C46.2599 535.183 46.0826 534.647 46.0826 533.9V529.378H45.0886V528.328H46.0826V526.396H47.3566V528.328H49.3586V529.378H47.3566ZM51.0982 526.242H52.5122L51.1682 529.42H50.2722L51.0982 526.242ZM56.6807 536.126C56.0927 536.126 55.5654 536.028 55.0987 535.832C54.6321 535.627 54.2634 535.347 53.9927 534.992C53.7221 534.628 53.5727 534.213 53.5447 533.746H54.8607C54.8981 534.129 55.0754 534.441 55.3927 534.684C55.7194 534.927 56.1441 535.048 56.6667 535.048C57.1521 535.048 57.5347 534.941 57.8147 534.726C58.0947 534.511 58.2347 534.241 58.2347 533.914C58.2347 533.578 58.0854 533.331 57.7867 533.172C57.4881 533.004 57.0261 532.841 56.4007 532.682C55.8314 532.533 55.3647 532.383 55.0007 532.234C54.6461 532.075 54.3381 531.847 54.0767 531.548C53.8247 531.24 53.6987 530.839 53.6987 530.344C53.6987 529.952 53.8154 529.593 54.0487 529.266C54.2821 528.939 54.6134 528.683 55.0427 528.496C55.4721 528.3 55.9621 528.202 56.5127 528.202C57.3621 528.202 58.0481 528.417 58.5707 528.846C59.0934 529.275 59.3734 529.863 59.4107 530.61H58.1367C58.1087 530.209 57.9454 529.887 57.6467 529.644C57.3574 529.401 56.9654 529.28 56.4707 529.28C56.0134 529.28 55.6494 529.378 55.3787 529.574C55.1081 529.77 54.9727 530.027 54.9727 530.344C54.9727 530.596 55.0521 530.806 55.2107 530.974C55.3787 531.133 55.5841 531.263 55.8267 531.366C56.0787 531.459 56.4241 531.567 56.8627 531.688C57.4134 531.837 57.8614 531.987 58.2067 532.136C58.5521 532.276 58.8461 532.491 59.0887 532.78C59.3407 533.069 59.4714 533.447 59.4807 533.914C59.4807 534.334 59.3641 534.712 59.1307 535.048C58.8974 535.384 58.5661 535.65 58.1367 535.846C57.7167 536.033 57.2314 536.126 56.6807 536.126ZM69.2956 536L66.2856 532.612V536H65.0116V525.64H66.2856V531.73L69.2396 528.328H71.0176L67.4056 532.15L71.0316 536H69.2956ZM79.2167 531.87C79.2167 532.113 79.2027 532.369 79.1747 532.64H73.0427C73.0893 533.396 73.346 533.989 73.8127 534.418C74.2887 534.838 74.8627 535.048 75.5347 535.048C76.0853 535.048 76.5427 534.922 76.9067 534.67C77.28 534.409 77.5413 534.063 77.6907 533.634H79.0627C78.8573 534.371 78.4467 534.973 77.8307 535.44C77.2147 535.897 76.4493 536.126 75.5347 536.126C74.8067 536.126 74.1533 535.963 73.5747 535.636C73.0053 535.309 72.5573 534.847 72.2307 534.25C71.904 533.643 71.7407 532.943 71.7407 532.15C71.7407 531.357 71.8993 530.661 72.2167 530.064C72.534 529.467 72.9773 529.009 73.5467 528.692C74.1253 528.365 74.788 528.202 75.5347 528.202C76.2627 528.202 76.9067 528.361 77.4667 528.678C78.0267 528.995 78.456 529.434 78.7547 529.994C79.0627 530.545 79.2167 531.17 79.2167 531.87ZM77.9007 531.604C77.9007 531.119 77.7933 530.703 77.5787 530.358C77.364 530.003 77.07 529.737 76.6967 529.56C76.3327 529.373 75.9267 529.28 75.4787 529.28C74.8347 529.28 74.284 529.485 73.8267 529.896C73.3787 530.307 73.122 530.876 73.0567 531.604H77.9007ZM87.8983 531.87C87.8983 532.113 87.8843 532.369 87.8563 532.64H81.7243C81.771 533.396 82.0276 533.989 82.4943 534.418C82.9703 534.838 83.5443 535.048 84.2163 535.048C84.767 535.048 85.2243 534.922 85.5883 534.67C85.9616 534.409 86.223 534.063 86.3723 533.634H87.7443C87.539 534.371 87.1283 534.973 86.5123 535.44C85.8963 535.897 85.131 536.126 84.2163 536.126C83.4883 536.126 82.835 535.963 82.2563 535.636C81.687 535.309 81.239 534.847 80.9123 534.25C80.5856 533.643 80.4223 532.943 80.4223 532.15C80.4223 531.357 80.581 530.661 80.8983 530.064C81.2156 529.467 81.659 529.009 82.2283 528.692C82.807 528.365 83.4696 528.202 84.2163 528.202C84.9443 528.202 85.5883 528.361 86.1483 528.678C86.7083 528.995 87.1376 529.434 87.4363 529.994C87.7443 530.545 87.8983 531.17 87.8983 531.87ZM86.5823 531.604C86.5823 531.119 86.475 530.703 86.2603 530.358C86.0456 530.003 85.7516 529.737 85.3783 529.56C85.0143 529.373 84.6083 529.28 84.1603 529.28C83.5163 529.28 82.9656 529.485 82.5083 529.896C82.0603 530.307 81.8036 530.876 81.7383 531.604H86.5823ZM90.854 529.742C91.106 529.303 91.4793 528.939 91.974 528.65C92.478 528.351 93.0613 528.202 93.724 528.202C94.4053 528.202 95.0213 528.365 95.572 528.692C96.132 529.019 96.5706 529.481 96.888 530.078C97.2053 530.666 97.364 531.352 97.364 532.136C97.364 532.911 97.2053 533.601 96.888 534.208C96.5706 534.815 96.132 535.286 95.572 535.622C95.0213 535.958 94.4053 536.126 93.724 536.126C93.0706 536.126 92.492 535.981 91.988 535.692C91.4933 535.393 91.1153 535.025 90.854 534.586V539.64H89.58V528.328H90.854V529.742ZM96.062 532.136C96.062 531.557 95.9453 531.053 95.712 530.624C95.4786 530.195 95.1613 529.868 94.76 529.644C94.368 529.42 93.934 529.308 93.458 529.308C92.9913 529.308 92.5573 529.425 92.156 529.658C91.764 529.882 91.4466 530.213 91.204 530.652C90.9706 531.081 90.854 531.581 90.854 532.15C90.854 532.729 90.9706 533.237 91.204 533.676C91.4466 534.105 91.764 534.437 92.156 534.67C92.5573 534.894 92.9913 535.006 93.458 535.006C93.934 535.006 94.368 534.894 94.76 534.67C95.1613 534.437 95.4786 534.105 95.712 533.676C95.9453 533.237 96.062 532.724 96.062 532.136ZM104.047 529.756C104.309 529.299 104.691 528.925 105.195 528.636C105.699 528.347 106.273 528.202 106.917 528.202C107.608 528.202 108.229 528.365 108.779 528.692C109.33 529.019 109.764 529.481 110.081 530.078C110.399 530.666 110.557 531.352 110.557 532.136C110.557 532.911 110.399 533.601 110.081 534.208C109.764 534.815 109.325 535.286 108.765 535.622C108.215 535.958 107.599 536.126 106.917 536.126C106.255 536.126 105.671 535.981 105.167 535.692C104.673 535.403 104.299 535.034 104.047 534.586V536H102.773V525.64H104.047V529.756ZM109.255 532.136C109.255 531.557 109.139 531.053 108.905 530.624C108.672 530.195 108.355 529.868 107.953 529.644C107.561 529.42 107.127 529.308 106.651 529.308C106.185 529.308 105.751 529.425 105.349 529.658C104.957 529.882 104.64 530.213 104.397 530.652C104.164 531.081 104.047 531.581 104.047 532.15C104.047 532.729 104.164 533.237 104.397 533.676C104.64 534.105 104.957 534.437 105.349 534.67C105.751 534.894 106.185 535.006 106.651 535.006C107.127 535.006 107.561 534.894 107.953 534.67C108.355 534.437 108.672 534.105 108.905 533.676C109.139 533.237 109.255 532.724 109.255 532.136ZM119.038 528.328V536H117.764V534.866C117.522 535.258 117.181 535.566 116.742 535.79C116.313 536.005 115.837 536.112 115.314 536.112C114.717 536.112 114.18 535.991 113.704 535.748C113.228 535.496 112.85 535.123 112.57 534.628C112.3 534.133 112.164 533.531 112.164 532.822V528.328H113.424V532.654C113.424 533.41 113.616 533.993 113.998 534.404C114.381 534.805 114.904 535.006 115.566 535.006C116.248 535.006 116.784 534.796 117.176 534.376C117.568 533.956 117.764 533.345 117.764 532.542V528.328H119.038ZM122.463 529.574C122.687 529.135 123.005 528.795 123.415 528.552C123.835 528.309 124.344 528.188 124.941 528.188V529.504H124.605C123.177 529.504 122.463 530.279 122.463 531.828V536H121.189V528.328H122.463V529.574ZM130.15 528.188C131.083 528.188 131.839 528.473 132.418 529.042C132.997 529.602 133.286 530.414 133.286 531.478V536H132.026V531.66C132.026 530.895 131.835 530.311 131.452 529.91C131.069 529.499 130.547 529.294 129.884 529.294C129.212 529.294 128.675 529.504 128.274 529.924C127.882 530.344 127.686 530.955 127.686 531.758V536H126.412V528.328H127.686V529.42C127.938 529.028 128.279 528.725 128.708 528.51C129.147 528.295 129.627 528.188 130.15 528.188ZM136.025 527.082C135.782 527.082 135.577 526.998 135.409 526.83C135.241 526.662 135.157 526.457 135.157 526.214C135.157 525.971 135.241 525.766 135.409 525.598C135.577 525.43 135.782 525.346 136.025 525.346C136.258 525.346 136.454 525.43 136.613 525.598C136.781 525.766 136.865 525.971 136.865 526.214C136.865 526.457 136.781 526.662 136.613 526.83C136.454 526.998 136.258 527.082 136.025 527.082ZM136.641 528.328V536H135.367V528.328H136.641ZM142.55 528.188C143.484 528.188 144.24 528.473 144.818 529.042C145.397 529.602 145.686 530.414 145.686 531.478V536H144.426V531.66C144.426 530.895 144.235 530.311 143.852 529.91C143.47 529.499 142.947 529.294 142.284 529.294C141.612 529.294 141.076 529.504 140.674 529.924C140.282 530.344 140.086 530.955 140.086 531.758V536H138.812V528.328H140.086V529.42C140.338 529.028 140.679 528.725 141.108 528.51C141.547 528.295 142.028 528.188 142.55 528.188ZM150.931 528.202C151.594 528.202 152.173 528.347 152.667 528.636C153.171 528.925 153.545 529.289 153.787 529.728V528.328H155.075V536.168C155.075 536.868 154.926 537.489 154.627 538.03C154.329 538.581 153.899 539.01 153.339 539.318C152.789 539.626 152.145 539.78 151.407 539.78C150.399 539.78 149.559 539.542 148.887 539.066C148.215 538.59 147.819 537.941 147.697 537.12H148.957C149.097 537.587 149.387 537.96 149.825 538.24C150.264 538.529 150.791 538.674 151.407 538.674C152.107 538.674 152.677 538.455 153.115 538.016C153.563 537.577 153.787 536.961 153.787 536.168V534.558C153.535 535.006 153.162 535.379 152.667 535.678C152.173 535.977 151.594 536.126 150.931 536.126C150.25 536.126 149.629 535.958 149.069 535.622C148.519 535.286 148.085 534.815 147.767 534.208C147.45 533.601 147.291 532.911 147.291 532.136C147.291 531.352 147.45 530.666 147.767 530.078C148.085 529.481 148.519 529.019 149.069 528.692C149.629 528.365 150.25 528.202 150.931 528.202ZM153.787 532.15C153.787 531.571 153.671 531.067 153.437 530.638C153.204 530.209 152.887 529.882 152.485 529.658C152.093 529.425 151.659 529.308 151.183 529.308C150.707 529.308 150.273 529.42 149.881 529.644C149.489 529.868 149.177 530.195 148.943 530.624C148.71 531.053 148.593 531.557 148.593 532.136C148.593 532.724 148.71 533.237 148.943 533.676C149.177 534.105 149.489 534.437 149.881 534.67C150.273 534.894 150.707 535.006 151.183 535.006C151.659 535.006 152.093 534.894 152.485 534.67C152.887 534.437 153.204 534.105 153.437 533.676C153.671 533.237 153.787 532.729 153.787 532.15ZM158.544 534.236L156.976 538.002H156.122L157.144 534.236H158.544ZM165.29 529.378V533.9C165.29 534.273 165.37 534.539 165.528 534.698C165.687 534.847 165.962 534.922 166.354 534.922H167.292V536H166.144C165.435 536 164.903 535.837 164.548 535.51C164.194 535.183 164.016 534.647 164.016 533.9V529.378H163.022V528.328H164.016V526.396H165.29V528.328H167.292V529.378H165.29ZM172.182 536.126C171.463 536.126 170.81 535.963 170.222 535.636C169.643 535.309 169.186 534.847 168.85 534.25C168.523 533.643 168.36 532.943 168.36 532.15C168.36 531.366 168.528 530.675 168.864 530.078C169.209 529.471 169.676 529.009 170.264 528.692C170.852 528.365 171.51 528.202 172.238 528.202C172.966 528.202 173.624 528.365 174.212 528.692C174.8 529.009 175.262 529.467 175.598 530.064C175.943 530.661 176.116 531.357 176.116 532.15C176.116 532.943 175.938 533.643 175.584 534.25C175.238 534.847 174.767 535.309 174.17 535.636C173.572 535.963 172.91 536.126 172.182 536.126ZM172.182 535.006C172.639 535.006 173.068 534.899 173.47 534.684C173.871 534.469 174.193 534.147 174.436 533.718C174.688 533.289 174.814 532.766 174.814 532.15C174.814 531.534 174.692 531.011 174.45 530.582C174.207 530.153 173.89 529.835 173.498 529.63C173.106 529.415 172.681 529.308 172.224 529.308C171.757 529.308 171.328 529.415 170.936 529.63C170.553 529.835 170.245 530.153 170.012 530.582C169.778 531.011 169.662 531.534 169.662 532.15C169.662 532.775 169.774 533.303 169.998 533.732C170.231 534.161 170.539 534.483 170.922 534.698C171.304 534.903 171.724 535.006 172.182 535.006ZM181.047 532.136C181.047 531.352 181.206 530.666 181.523 530.078C181.841 529.481 182.275 529.019 182.825 528.692C183.385 528.365 184.006 528.202 184.687 528.202C185.359 528.202 185.943 528.347 186.437 528.636C186.932 528.925 187.301 529.289 187.543 529.728V528.328H188.831V536H187.543V534.572C187.291 535.02 186.913 535.393 186.409 535.692C185.915 535.981 185.336 536.126 184.673 536.126C183.992 536.126 183.376 535.958 182.825 535.622C182.275 535.286 181.841 534.815 181.523 534.208C181.206 533.601 181.047 532.911 181.047 532.136ZM187.543 532.15C187.543 531.571 187.427 531.067 187.193 530.638C186.96 530.209 186.643 529.882 186.241 529.658C185.849 529.425 185.415 529.308 184.939 529.308C184.463 529.308 184.029 529.42 183.637 529.644C183.245 529.868 182.933 530.195 182.699 530.624C182.466 531.053 182.349 531.557 182.349 532.136C182.349 532.724 182.466 533.237 182.699 533.676C182.933 534.105 183.245 534.437 183.637 534.67C184.029 534.894 184.463 535.006 184.939 535.006C185.415 535.006 185.849 534.894 186.241 534.67C186.643 534.437 186.96 534.105 187.193 533.676C187.427 533.237 187.543 532.729 187.543 532.15ZM190.508 532.15C190.508 531.357 190.667 530.666 190.984 530.078C191.302 529.481 191.74 529.019 192.3 528.692C192.87 528.365 193.518 528.202 194.246 528.202C195.189 528.202 195.964 528.431 196.57 528.888C197.186 529.345 197.592 529.98 197.788 530.792H196.416C196.286 530.325 196.029 529.957 195.646 529.686C195.273 529.415 194.806 529.28 194.246 529.28C193.518 529.28 192.93 529.532 192.482 530.036C192.034 530.531 191.81 531.235 191.81 532.15C191.81 533.074 192.034 533.788 192.482 534.292C192.93 534.796 193.518 535.048 194.246 535.048C194.806 535.048 195.273 534.917 195.646 534.656C196.02 534.395 196.276 534.021 196.416 533.536H197.788C197.583 534.32 197.172 534.95 196.556 535.426C195.94 535.893 195.17 536.126 194.246 536.126C193.518 536.126 192.87 535.963 192.3 535.636C191.74 535.309 191.302 534.847 190.984 534.25C190.667 533.653 190.508 532.953 190.508 532.15ZM203.296 528.188C203.875 528.188 204.397 528.314 204.864 528.566C205.331 528.809 205.695 529.177 205.956 529.672C206.227 530.167 206.362 530.769 206.362 531.478V536H205.102V531.66C205.102 530.895 204.911 530.311 204.528 529.91C204.145 529.499 203.623 529.294 202.96 529.294C202.288 529.294 201.751 529.504 201.35 529.924C200.958 530.344 200.762 530.955 200.762 531.758V536H199.488V525.64H200.762V529.42C201.014 529.028 201.359 528.725 201.798 528.51C202.246 528.295 202.745 528.188 203.296 528.188ZM209.101 527.082C208.859 527.082 208.653 526.998 208.485 526.83C208.317 526.662 208.233 526.457 208.233 526.214C208.233 525.971 208.317 525.766 208.485 525.598C208.653 525.43 208.859 525.346 209.101 525.346C209.335 525.346 209.531 525.43 209.689 525.598C209.857 525.766 209.941 525.971 209.941 526.214C209.941 526.457 209.857 526.662 209.689 526.83C209.531 526.998 209.335 527.082 209.101 527.082ZM209.717 528.328V536H208.443V528.328H209.717ZM214.745 534.824L217.125 528.328H218.483L215.473 536H213.989L210.979 528.328H212.351L214.745 534.824ZM226.736 531.87C226.736 532.113 226.722 532.369 226.694 532.64H220.562C220.609 533.396 220.866 533.989 221.332 534.418C221.808 534.838 222.382 535.048 223.054 535.048C223.605 535.048 224.062 534.922 224.426 534.67C224.8 534.409 225.061 534.063 225.21 533.634H226.582C226.377 534.371 225.966 534.973 225.35 535.44C224.734 535.897 223.969 536.126 223.054 536.126C222.326 536.126 221.673 535.963 221.094 535.636C220.525 535.309 220.077 534.847 219.75 534.25C219.424 533.643 219.26 532.943 219.26 532.15C219.26 531.357 219.419 530.661 219.736 530.064C220.054 529.467 220.497 529.009 221.066 528.692C221.645 528.365 222.308 528.202 223.054 528.202C223.782 528.202 224.426 528.361 224.986 528.678C225.546 528.995 225.976 529.434 226.274 529.994C226.582 530.545 226.736 531.17 226.736 531.87ZM225.42 531.604C225.42 531.119 225.313 530.703 225.098 530.358C224.884 530.003 224.59 529.737 224.216 529.56C223.852 529.373 223.446 529.28 222.998 529.28C222.354 529.28 221.804 529.485 221.346 529.896C220.898 530.307 220.642 530.876 220.576 531.604H225.42ZM238.758 528.328L234.138 539.612H232.822L234.334 535.916L231.24 528.328H232.654L235.062 534.544L237.442 528.328H238.758ZM243.385 536.126C242.666 536.126 242.013 535.963 241.425 535.636C240.846 535.309 240.389 534.847 240.053 534.25C239.726 533.643 239.563 532.943 239.563 532.15C239.563 531.366 239.731 530.675 240.067 530.078C240.412 529.471 240.879 529.009 241.467 528.692C242.055 528.365 242.713 528.202 243.441 528.202C244.169 528.202 244.827 528.365 245.415 528.692C246.003 529.009 246.465 529.467 246.801 530.064C247.146 530.661 247.319 531.357 247.319 532.15C247.319 532.943 247.142 533.643 246.787 534.25C246.442 534.847 245.97 535.309 245.373 535.636C244.776 535.963 244.113 536.126 243.385 536.126ZM243.385 535.006C243.842 535.006 244.272 534.899 244.673 534.684C245.074 534.469 245.396 534.147 245.639 533.718C245.891 533.289 246.017 532.766 246.017 532.15C246.017 531.534 245.896 531.011 245.653 530.582C245.41 530.153 245.093 529.835 244.701 529.63C244.309 529.415 243.884 529.308 243.427 529.308C242.96 529.308 242.531 529.415 242.139 529.63C241.756 529.835 241.448 530.153 241.215 530.582C240.982 531.011 240.865 531.534 240.865 532.15C240.865 532.775 240.977 533.303 241.201 533.732C241.434 534.161 241.742 534.483 242.125 534.698C242.508 534.903 242.928 535.006 243.385 535.006ZM255.798 528.328V536H254.524V534.866C254.281 535.258 253.941 535.566 253.502 535.79C253.073 536.005 252.597 536.112 252.074 536.112C251.477 536.112 250.94 535.991 250.464 535.748C249.988 535.496 249.61 535.123 249.33 534.628C249.059 534.133 248.924 533.531 248.924 532.822V528.328H250.184V532.654C250.184 533.41 250.375 533.993 250.758 534.404C251.141 534.805 251.663 535.006 252.326 535.006C253.007 535.006 253.544 534.796 253.936 534.376C254.328 533.956 254.524 533.345 254.524 532.542V528.328H255.798ZM259.223 529.574C259.447 529.135 259.764 528.795 260.175 528.552C260.595 528.309 261.104 528.188 261.701 528.188V529.504H261.365C259.937 529.504 259.223 530.279 259.223 531.828V536H257.949V528.328H259.223V529.574ZM265.888 536.126C265.3 536.126 264.772 536.028 264.306 535.832C263.839 535.627 263.47 535.347 263.2 534.992C262.929 534.628 262.78 534.213 262.752 533.746H264.068C264.105 534.129 264.282 534.441 264.6 534.684C264.926 534.927 265.351 535.048 265.874 535.048C266.359 535.048 266.742 534.941 267.022 534.726C267.302 534.511 267.442 534.241 267.442 533.914C267.442 533.578 267.292 533.331 266.994 533.172C266.695 533.004 266.233 532.841 265.608 532.682C265.038 532.533 264.572 532.383 264.208 532.234C263.853 532.075 263.545 531.847 263.284 531.548C263.032 531.24 262.906 530.839 262.906 530.344C262.906 529.952 263.022 529.593 263.256 529.266C263.489 528.939 263.82 528.683 264.25 528.496C264.679 528.3 265.169 528.202 265.72 528.202C266.569 528.202 267.255 528.417 267.778 528.846C268.3 529.275 268.58 529.863 268.618 530.61H267.344C267.316 530.209 267.152 529.887 266.854 529.644C266.564 529.401 266.172 529.28 265.678 529.28C265.22 529.28 264.856 529.378 264.586 529.574C264.315 529.77 264.18 530.027 264.18 530.344C264.18 530.596 264.259 530.806 264.418 530.974C264.586 531.133 264.791 531.263 265.034 531.366C265.286 531.459 265.631 531.567 266.07 531.688C266.62 531.837 267.068 531.987 267.414 532.136C267.759 532.276 268.053 532.491 268.296 532.78C268.548 533.069 268.678 533.447 268.688 533.914C268.688 534.334 268.571 534.712 268.338 535.048C268.104 535.384 267.773 535.65 267.344 535.846C266.924 536.033 266.438 536.126 265.888 536.126ZM277.383 528.202C278.045 528.202 278.624 528.347 279.119 528.636C279.623 528.925 279.996 529.289 280.239 529.728V528.328H281.527V536.168C281.527 536.868 281.377 537.489 281.079 538.03C280.78 538.581 280.351 539.01 279.791 539.318C279.24 539.626 278.596 539.78 277.859 539.78C276.851 539.78 276.011 539.542 275.339 539.066C274.667 538.59 274.27 537.941 274.149 537.12H275.409C275.549 537.587 275.838 537.96 276.277 538.24C276.715 538.529 277.243 538.674 277.859 538.674C278.559 538.674 279.128 538.455 279.567 538.016C280.015 537.577 280.239 536.961 280.239 536.168V534.558C279.987 535.006 279.613 535.379 279.119 535.678C278.624 535.977 278.045 536.126 277.383 536.126C276.701 536.126 276.081 535.958 275.521 535.622C274.97 535.286 274.536 534.815 274.219 534.208C273.901 533.601 273.743 532.911 273.743 532.136C273.743 531.352 273.901 530.666 274.219 530.078C274.536 529.481 274.97 529.019 275.521 528.692C276.081 528.365 276.701 528.202 277.383 528.202ZM280.239 532.15C280.239 531.571 280.122 531.067 279.889 530.638C279.655 530.209 279.338 529.882 278.937 529.658C278.545 529.425 278.111 529.308 277.635 529.308C277.159 529.308 276.725 529.42 276.333 529.644C275.941 529.868 275.628 530.195 275.395 530.624C275.161 531.053 275.045 531.557 275.045 532.136C275.045 532.724 275.161 533.237 275.395 533.676C275.628 534.105 275.941 534.437 276.333 534.67C276.725 534.894 277.159 535.006 277.635 535.006C278.111 535.006 278.545 534.894 278.937 534.67C279.338 534.437 279.655 534.105 279.889 533.676C280.122 533.237 280.239 532.729 280.239 532.15ZM287.026 536.126C286.307 536.126 285.654 535.963 285.066 535.636C284.487 535.309 284.03 534.847 283.694 534.25C283.367 533.643 283.204 532.943 283.204 532.15C283.204 531.366 283.372 530.675 283.708 530.078C284.053 529.471 284.52 529.009 285.108 528.692C285.696 528.365 286.354 528.202 287.082 528.202C287.81 528.202 288.468 528.365 289.056 528.692C289.644 529.009 290.106 529.467 290.442 530.064C290.787 530.661 290.96 531.357 290.96 532.15C290.96 532.943 290.782 533.643 290.428 534.25C290.082 534.847 289.611 535.309 289.014 535.636C288.416 535.963 287.754 536.126 287.026 536.126ZM287.026 535.006C287.483 535.006 287.912 534.899 288.314 534.684C288.715 534.469 289.037 534.147 289.28 533.718C289.532 533.289 289.658 532.766 289.658 532.15C289.658 531.534 289.536 531.011 289.294 530.582C289.051 530.153 288.734 529.835 288.342 529.63C287.95 529.415 287.525 529.308 287.068 529.308C286.601 529.308 286.172 529.415 285.78 529.63C285.397 529.835 285.089 530.153 284.856 530.582C284.622 531.011 284.506 531.534 284.506 532.15C284.506 532.775 284.618 533.303 284.842 533.732C285.075 534.161 285.383 534.483 285.766 534.698C286.148 534.903 286.568 535.006 287.026 535.006ZM292.159 532.136C292.159 531.352 292.317 530.666 292.635 530.078C292.952 529.481 293.386 529.019 293.937 528.692C294.497 528.365 295.117 528.202 295.799 528.202C296.471 528.202 297.054 528.347 297.549 528.636C298.043 528.925 298.412 529.289 298.655 529.728V528.328H299.943V536H298.655V534.572C298.403 535.02 298.025 535.393 297.521 535.692C297.026 535.981 296.447 536.126 295.785 536.126C295.103 536.126 294.487 535.958 293.937 535.622C293.386 535.286 292.952 534.815 292.635 534.208C292.317 533.601 292.159 532.911 292.159 532.136ZM298.655 532.15C298.655 531.571 298.538 531.067 298.305 530.638C298.071 530.209 297.754 529.882 297.353 529.658C296.961 529.425 296.527 529.308 296.051 529.308C295.575 529.308 295.141 529.42 294.749 529.644C294.357 529.868 294.044 530.195 293.811 530.624C293.577 531.053 293.461 531.557 293.461 532.136C293.461 532.724 293.577 533.237 293.811 533.676C294.044 534.105 294.357 534.437 294.749 534.67C295.141 534.894 295.575 535.006 296.051 535.006C296.527 535.006 296.961 534.894 297.353 534.67C297.754 534.437 298.071 534.105 298.305 533.676C298.538 533.237 298.655 532.729 298.655 532.15ZM303.37 525.64V536H302.096V525.64H303.37ZM308.257 536.126C307.669 536.126 307.142 536.028 306.675 535.832C306.208 535.627 305.84 535.347 305.569 534.992C305.298 534.628 305.149 534.213 305.121 533.746H306.437C306.474 534.129 306.652 534.441 306.969 534.684C307.296 534.927 307.72 535.048 308.243 535.048C308.728 535.048 309.111 534.941 309.391 534.726C309.671 534.511 309.811 534.241 309.811 533.914C309.811 533.578 309.662 533.331 309.363 533.172C309.064 533.004 308.602 532.841 307.977 532.682C307.408 532.533 306.941 532.383 306.577 532.234C306.222 532.075 305.914 531.847 305.653 531.548C305.401 531.24 305.275 530.839 305.275 530.344C305.275 529.952 305.392 529.593 305.625 529.266C305.858 528.939 306.19 528.683 306.619 528.496C307.048 528.3 307.538 528.202 308.089 528.202C308.938 528.202 309.624 528.417 310.147 528.846C310.67 529.275 310.95 529.863 310.987 530.61H309.713C309.685 530.209 309.522 529.887 309.223 529.644C308.934 529.401 308.542 529.28 308.047 529.28C307.59 529.28 307.226 529.378 306.955 529.574C306.684 529.77 306.549 530.027 306.549 530.344C306.549 530.596 306.628 530.806 306.787 530.974C306.955 531.133 307.16 531.263 307.403 531.366C307.655 531.459 308 531.567 308.439 531.688C308.99 531.837 309.438 531.987 309.783 532.136C310.128 532.276 310.422 532.491 310.665 532.78C310.917 533.069 311.048 533.447 311.057 533.914C311.057 534.334 310.94 534.712 310.707 535.048C310.474 535.384 310.142 535.65 309.713 535.846C309.293 536.033 308.808 536.126 308.257 536.126ZM314.171 534.236L312.603 538.002H311.749L312.771 534.236H314.171ZM320.021 527.082C319.778 527.082 319.573 526.998 319.405 526.83C319.237 526.662 319.153 526.457 319.153 526.214C319.153 525.971 319.237 525.766 319.405 525.598C319.573 525.43 319.778 525.346 320.021 525.346C320.254 525.346 320.45 525.43 320.609 525.598C320.777 525.766 320.861 525.971 320.861 526.214C320.861 526.457 320.777 526.662 320.609 526.83C320.45 526.998 320.254 527.082 320.021 527.082ZM320.637 528.328V536H319.363V528.328H320.637ZM324.362 529.378V533.9C324.362 534.273 324.442 534.539 324.6 534.698C324.759 534.847 325.034 534.922 325.426 534.922H326.364V536H325.216C324.507 536 323.975 535.837 323.62 535.51C323.266 535.183 323.088 534.647 323.088 533.9V529.378H322.094V528.328H323.088V526.396H324.362V528.328H326.364V529.378H324.362ZM34.886 549.188C35.4647 549.188 35.9873 549.314 36.454 549.566C36.9207 549.809 37.2847 550.177 37.546 550.672C37.8167 551.167 37.952 551.769 37.952 552.478V557H36.692V552.66C36.692 551.895 36.5007 551.311 36.118 550.91C35.7353 550.499 35.2127 550.294 34.55 550.294C33.878 550.294 33.3413 550.504 32.94 550.924C32.548 551.344 32.352 551.955 32.352 552.758V557H31.078V546.64H32.352V550.42C32.604 550.028 32.9493 549.725 33.388 549.51C33.836 549.295 34.3353 549.188 34.886 549.188ZM46.8371 549.328V557H45.5631V555.866C45.3204 556.258 44.9797 556.566 44.5411 556.79C44.1117 557.005 43.6357 557.112 43.1131 557.112C42.5157 557.112 41.9791 556.991 41.5031 556.748C41.0271 556.496 40.6491 556.123 40.3691 555.628C40.0984 555.133 39.9631 554.531 39.9631 553.822V549.328H41.2231V553.654C41.2231 554.41 41.4144 554.993 41.7971 555.404C42.1797 555.805 42.7024 556.006 43.3651 556.006C44.0464 556.006 44.5831 555.796 44.9751 555.376C45.3671 554.956 45.5631 554.345 45.5631 553.542V549.328H46.8371ZM50.2622 550.574C50.4862 550.135 50.8035 549.795 51.2142 549.552C51.6342 549.309 52.1428 549.188 52.7402 549.188V550.504H52.4042C50.9762 550.504 50.2622 551.279 50.2622 552.828V557H48.9882V549.328H50.2622V550.574ZM55.7648 550.378V554.9C55.7648 555.273 55.8441 555.539 56.0028 555.698C56.1615 555.847 56.4368 555.922 56.8288 555.922H57.7668V557H56.6188C55.9095 557 55.3775 556.837 55.0228 556.51C54.6681 556.183 54.4908 555.647 54.4908 554.9V550.378H53.4968V549.328H54.4908V547.396H55.7648V549.328H57.7668V550.378H55.7648ZM62.0264 557.126C61.4384 557.126 60.9111 557.028 60.4444 556.832C59.9778 556.627 59.6091 556.347 59.3384 555.992C59.0678 555.628 58.9184 555.213 58.8904 554.746H60.2064C60.2438 555.129 60.4211 555.441 60.7384 555.684C61.0651 555.927 61.4898 556.048 62.0124 556.048C62.4978 556.048 62.8804 555.941 63.1604 555.726C63.4404 555.511 63.5804 555.241 63.5804 554.914C63.5804 554.578 63.4311 554.331 63.1324 554.172C62.8338 554.004 62.3718 553.841 61.7464 553.682C61.1771 553.533 60.7104 553.383 60.3464 553.234C59.9918 553.075 59.6838 552.847 59.4224 552.548C59.1704 552.24 59.0444 551.839 59.0444 551.344C59.0444 550.952 59.1611 550.593 59.3944 550.266C59.6278 549.939 59.9591 549.683 60.3884 549.496C60.8178 549.3 61.3078 549.202 61.8584 549.202C62.7078 549.202 63.3938 549.417 63.9164 549.846C64.4391 550.275 64.7191 550.863 64.7564 551.61H63.4824C63.4544 551.209 63.2911 550.887 62.9924 550.644C62.7031 550.401 62.3111 550.28 61.8164 550.28C61.3591 550.28 60.9951 550.378 60.7244 550.574C60.4538 550.77 60.3184 551.027 60.3184 551.344C60.3184 551.596 60.3978 551.806 60.5564 551.974C60.7244 552.133 60.9298 552.263 61.1724 552.366C61.4244 552.459 61.7698 552.567 62.2084 552.688C62.7591 552.837 63.2071 552.987 63.5524 553.136C63.8978 553.276 64.1918 553.491 64.4344 553.78C64.6864 554.069 64.8171 554.447 64.8264 554.914C64.8264 555.334 64.7098 555.712 64.4764 556.048C64.2431 556.384 63.9118 556.65 63.4824 556.846C63.0624 557.033 62.5771 557.126 62.0264 557.126ZM73.7033 557.126C72.9846 557.126 72.3313 556.963 71.7433 556.636C71.1646 556.309 70.7073 555.847 70.3713 555.25C70.0446 554.643 69.8813 553.943 69.8813 553.15C69.8813 552.366 70.0493 551.675 70.3853 551.078C70.7306 550.471 71.1973 550.009 71.7853 549.692C72.3733 549.365 73.0313 549.202 73.7593 549.202C74.4873 549.202 75.1453 549.365 75.7333 549.692C76.3213 550.009 76.7833 550.467 77.1193 551.064C77.4646 551.661 77.6373 552.357 77.6373 553.15C77.6373 553.943 77.46 554.643 77.1053 555.25C76.76 555.847 76.2886 556.309 75.6913 556.636C75.094 556.963 74.4313 557.126 73.7033 557.126ZM73.7033 556.006C74.1606 556.006 74.59 555.899 74.9913 555.684C75.3926 555.469 75.7146 555.147 75.9573 554.718C76.2093 554.289 76.3353 553.766 76.3353 553.15C76.3353 552.534 76.214 552.011 75.9713 551.582C75.7286 551.153 75.4113 550.835 75.0193 550.63C74.6273 550.415 74.2026 550.308 73.7453 550.308C73.2786 550.308 72.8493 550.415 72.4573 550.63C72.0746 550.835 71.7666 551.153 71.5333 551.582C71.3 552.011 71.1833 552.534 71.1833 553.15C71.1833 553.775 71.2953 554.303 71.5193 554.732C71.7526 555.161 72.0606 555.483 72.4433 555.698C72.826 555.903 73.246 556.006 73.7033 556.006ZM83.0504 549.188C83.9837 549.188 84.7397 549.473 85.3184 550.042C85.897 550.602 86.1864 551.414 86.1864 552.478V557H84.9264V552.66C84.9264 551.895 84.735 551.311 84.3524 550.91C83.9697 550.499 83.447 550.294 82.7844 550.294C82.1124 550.294 81.5757 550.504 81.1744 550.924C80.7824 551.344 80.5864 551.955 80.5864 552.758V557H79.3124V549.328H80.5864V550.42C80.8384 550.028 81.179 549.725 81.6084 549.51C82.047 549.295 82.5277 549.188 83.0504 549.188ZM89.5415 546.64V557H88.2675V546.64H89.5415ZM98.3208 549.328L93.7008 560.612H92.3848L93.8968 556.916L90.8028 549.328H92.2168L94.6248 555.544L97.0048 549.328H98.3208ZM104.888 550.378V554.9C104.888 555.273 104.967 555.539 105.126 555.698C105.285 555.847 105.56 555.922 105.952 555.922H106.89V557H105.742C105.033 557 104.501 556.837 104.146 556.51C103.791 556.183 103.614 555.647 103.614 554.9V550.378H102.62V549.328H103.614V547.396H104.888V549.328H106.89V550.378H104.888ZM115.433 552.87C115.433 553.113 115.419 553.369 115.391 553.64H109.259C109.306 554.396 109.563 554.989 110.029 555.418C110.505 555.838 111.079 556.048 111.751 556.048C112.302 556.048 112.759 555.922 113.123 555.67C113.497 555.409 113.758 555.063 113.907 554.634H115.279C115.074 555.371 114.663 555.973 114.047 556.44C113.431 556.897 112.666 557.126 111.751 557.126C111.023 557.126 110.37 556.963 109.791 556.636C109.222 556.309 108.774 555.847 108.447 555.25C108.121 554.643 107.957 553.943 107.957 553.15C107.957 552.357 108.116 551.661 108.433 551.064C108.751 550.467 109.194 550.009 109.763 549.692C110.342 549.365 111.005 549.202 111.751 549.202C112.479 549.202 113.123 549.361 113.683 549.678C114.243 549.995 114.673 550.434 114.971 550.994C115.279 551.545 115.433 552.17 115.433 552.87ZM114.117 552.604C114.117 552.119 114.01 551.703 113.795 551.358C113.581 551.003 113.287 550.737 112.913 550.56C112.549 550.373 112.143 550.28 111.695 550.28C111.051 550.28 110.501 550.485 110.043 550.896C109.595 551.307 109.339 551.876 109.273 552.604H114.117ZM126.341 549.188C126.938 549.188 127.47 549.314 127.937 549.566C128.404 549.809 128.772 550.177 129.043 550.672C129.314 551.167 129.449 551.769 129.449 552.478V557H128.189V552.66C128.189 551.895 127.998 551.311 127.615 550.91C127.242 550.499 126.733 550.294 126.089 550.294C125.426 550.294 124.899 550.509 124.507 550.938C124.115 551.358 123.919 551.969 123.919 552.772V557H122.659V552.66C122.659 551.895 122.468 551.311 122.085 550.91C121.712 550.499 121.203 550.294 120.559 550.294C119.896 550.294 119.369 550.509 118.977 550.938C118.585 551.358 118.389 551.969 118.389 552.772V557H117.115V549.328H118.389V550.434C118.641 550.033 118.977 549.725 119.397 549.51C119.826 549.295 120.298 549.188 120.811 549.188C121.455 549.188 122.024 549.333 122.519 549.622C123.014 549.911 123.382 550.336 123.625 550.896C123.84 550.355 124.194 549.935 124.689 549.636C125.184 549.337 125.734 549.188 126.341 549.188ZM132.813 550.742C133.065 550.303 133.438 549.939 133.933 549.65C134.437 549.351 135.02 549.202 135.683 549.202C136.364 549.202 136.98 549.365 137.531 549.692C138.091 550.019 138.53 550.481 138.847 551.078C139.164 551.666 139.323 552.352 139.323 553.136C139.323 553.911 139.164 554.601 138.847 555.208C138.53 555.815 138.091 556.286 137.531 556.622C136.98 556.958 136.364 557.126 135.683 557.126C135.03 557.126 134.451 556.981 133.947 556.692C133.452 556.393 133.074 556.025 132.813 555.586V560.64H131.539V549.328H132.813V550.742ZM138.021 553.136C138.021 552.557 137.904 552.053 137.671 551.624C137.438 551.195 137.12 550.868 136.719 550.644C136.327 550.42 135.893 550.308 135.417 550.308C134.95 550.308 134.516 550.425 134.115 550.658C133.723 550.882 133.406 551.213 133.163 551.652C132.93 552.081 132.813 552.581 132.813 553.15C132.813 553.729 132.93 554.237 133.163 554.676C133.406 555.105 133.723 555.437 134.115 555.67C134.516 555.894 134.95 556.006 135.417 556.006C135.893 556.006 136.327 555.894 136.719 555.67C137.12 555.437 137.438 555.105 137.671 554.676C137.904 554.237 138.021 553.724 138.021 553.136ZM144.346 557.126C143.627 557.126 142.974 556.963 142.386 556.636C141.807 556.309 141.35 555.847 141.014 555.25C140.687 554.643 140.524 553.943 140.524 553.15C140.524 552.366 140.692 551.675 141.028 551.078C141.373 550.471 141.84 550.009 142.428 549.692C143.016 549.365 143.674 549.202 144.402 549.202C145.13 549.202 145.788 549.365 146.376 549.692C146.964 550.009 147.426 550.467 147.762 551.064C148.107 551.661 148.28 552.357 148.28 553.15C148.28 553.943 148.103 554.643 147.748 555.25C147.403 555.847 146.931 556.309 146.334 556.636C145.737 556.963 145.074 557.126 144.346 557.126ZM144.346 556.006C144.803 556.006 145.233 555.899 145.634 555.684C146.035 555.469 146.357 555.147 146.6 554.718C146.852 554.289 146.978 553.766 146.978 553.15C146.978 552.534 146.857 552.011 146.614 551.582C146.371 551.153 146.054 550.835 145.662 550.63C145.27 550.415 144.845 550.308 144.388 550.308C143.921 550.308 143.492 550.415 143.1 550.63C142.717 550.835 142.409 551.153 142.176 551.582C141.943 552.011 141.826 552.534 141.826 553.15C141.826 553.775 141.938 554.303 142.162 554.732C142.395 555.161 142.703 555.483 143.086 555.698C143.469 555.903 143.889 556.006 144.346 556.006ZM151.229 550.574C151.453 550.135 151.77 549.795 152.181 549.552C152.601 549.309 153.11 549.188 153.707 549.188V550.504H153.371C151.943 550.504 151.229 551.279 151.229 552.828V557H149.955V549.328H151.229V550.574ZM154.702 553.136C154.702 552.352 154.86 551.666 155.178 551.078C155.495 550.481 155.929 550.019 156.48 549.692C157.04 549.365 157.66 549.202 158.342 549.202C159.014 549.202 159.597 549.347 160.092 549.636C160.586 549.925 160.955 550.289 161.198 550.728V549.328H162.486V557H161.198V555.572C160.946 556.02 160.568 556.393 160.064 556.692C159.569 556.981 158.99 557.126 158.328 557.126C157.646 557.126 157.03 556.958 156.48 556.622C155.929 556.286 155.495 555.815 155.178 555.208C154.86 554.601 154.702 553.911 154.702 553.136ZM161.198 553.15C161.198 552.571 161.081 552.067 160.848 551.638C160.614 551.209 160.297 550.882 159.896 550.658C159.504 550.425 159.07 550.308 158.594 550.308C158.118 550.308 157.684 550.42 157.292 550.644C156.9 550.868 156.587 551.195 156.354 551.624C156.12 552.053 156.004 552.557 156.004 553.136C156.004 553.724 156.12 554.237 156.354 554.676C156.587 555.105 156.9 555.437 157.292 555.67C157.684 555.894 158.118 556.006 158.594 556.006C159.07 556.006 159.504 555.894 159.896 555.67C160.297 555.437 160.614 555.105 160.848 554.676C161.081 554.237 161.198 553.729 161.198 553.15ZM165.913 550.574C166.137 550.135 166.454 549.795 166.865 549.552C167.285 549.309 167.793 549.188 168.391 549.188V550.504H168.055C166.627 550.504 165.913 551.279 165.913 552.828V557H164.639V549.328H165.913V550.574ZM170.519 548.082C170.277 548.082 170.071 547.998 169.903 547.83C169.735 547.662 169.651 547.457 169.651 547.214C169.651 546.971 169.735 546.766 169.903 546.598C170.071 546.43 170.277 546.346 170.519 546.346C170.753 546.346 170.949 546.43 171.107 546.598C171.275 546.766 171.359 546.971 171.359 547.214C171.359 547.457 171.275 547.662 171.107 547.83C170.949 547.998 170.753 548.082 170.519 548.082ZM171.135 549.328V557H169.861V549.328H171.135ZM174.581 546.64V557H173.307V546.64H174.581ZM183.36 549.328L178.74 560.612H177.424L178.936 556.916L175.842 549.328H177.256L179.664 555.544L182.044 549.328H183.36ZM185.957 555.236L184.389 559.002H183.534L184.557 555.236H185.957ZM191.806 548.082C191.564 548.082 191.358 547.998 191.19 547.83C191.022 547.662 190.938 547.457 190.938 547.214C190.938 546.971 191.022 546.766 191.19 546.598C191.358 546.43 191.564 546.346 191.806 546.346C192.04 546.346 192.236 546.43 192.394 546.598C192.562 546.766 192.646 546.971 192.646 547.214C192.646 547.457 192.562 547.662 192.394 547.83C192.236 547.998 192.04 548.082 191.806 548.082ZM192.422 549.328V557H191.148V549.328H192.422ZM197.716 550.378H196.106V557H194.832V550.378H193.838V549.328H194.832V548.782C194.832 547.923 195.051 547.298 195.49 546.906C195.938 546.505 196.652 546.304 197.632 546.304V547.368C197.072 547.368 196.675 547.48 196.442 547.704C196.218 547.919 196.106 548.278 196.106 548.782V549.328H197.716V550.378ZM209.541 549.328L204.921 560.612H203.605L205.117 556.916L202.023 549.328H203.437L205.845 555.544L208.225 549.328H209.541ZM214.168 557.126C213.449 557.126 212.796 556.963 212.208 556.636C211.629 556.309 211.172 555.847 210.836 555.25C210.509 554.643 210.346 553.943 210.346 553.15C210.346 552.366 210.514 551.675 210.85 551.078C211.195 550.471 211.662 550.009 212.25 549.692C212.838 549.365 213.496 549.202 214.224 549.202C214.952 549.202 215.61 549.365 216.198 549.692C216.786 550.009 217.248 550.467 217.584 551.064C217.929 551.661 218.102 552.357 218.102 553.15C218.102 553.943 217.925 554.643 217.57 555.25C217.225 555.847 216.753 556.309 216.156 556.636C215.559 556.963 214.896 557.126 214.168 557.126ZM214.168 556.006C214.625 556.006 215.055 555.899 215.456 555.684C215.857 555.469 216.179 555.147 216.422 554.718C216.674 554.289 216.8 553.766 216.8 553.15C216.8 552.534 216.679 552.011 216.436 551.582C216.193 551.153 215.876 550.835 215.484 550.63C215.092 550.415 214.667 550.308 214.21 550.308C213.743 550.308 213.314 550.415 212.922 550.63C212.539 550.835 212.231 551.153 211.998 551.582C211.765 552.011 211.648 552.534 211.648 553.15C211.648 553.775 211.76 554.303 211.984 554.732C212.217 555.161 212.525 555.483 212.908 555.698C213.291 555.903 213.711 556.006 214.168 556.006ZM226.581 549.328V557H225.307V555.866C225.065 556.258 224.724 556.566 224.285 556.79C223.856 557.005 223.38 557.112 222.857 557.112C222.26 557.112 221.723 556.991 221.247 556.748C220.771 556.496 220.393 556.123 220.113 555.628C219.843 555.133 219.707 554.531 219.707 553.822V549.328H220.967V553.654C220.967 554.41 221.159 554.993 221.541 555.404C221.924 555.805 222.447 556.006 223.109 556.006C223.791 556.006 224.327 555.796 224.719 555.376C225.111 554.956 225.307 554.345 225.307 553.542V549.328H226.581ZM235.629 549.202C236.291 549.202 236.87 549.347 237.365 549.636C237.869 549.925 238.242 550.289 238.485 550.728V549.328H239.773V557.168C239.773 557.868 239.623 558.489 239.325 559.03C239.026 559.581 238.597 560.01 238.037 560.318C237.486 560.626 236.842 560.78 236.105 560.78C235.097 560.78 234.257 560.542 233.585 560.066C232.913 559.59 232.516 558.941 232.395 558.12H233.655C233.795 558.587 234.084 558.96 234.523 559.24C234.961 559.529 235.489 559.674 236.105 559.674C236.805 559.674 237.374 559.455 237.813 559.016C238.261 558.577 238.485 557.961 238.485 557.168V555.558C238.233 556.006 237.859 556.379 237.365 556.678C236.87 556.977 236.291 557.126 235.629 557.126C234.947 557.126 234.327 556.958 233.767 556.622C233.216 556.286 232.782 555.815 232.465 555.208C232.147 554.601 231.989 553.911 231.989 553.136C231.989 552.352 232.147 551.666 232.465 551.078C232.782 550.481 233.216 550.019 233.767 549.692C234.327 549.365 234.947 549.202 235.629 549.202ZM238.485 553.15C238.485 552.571 238.368 552.067 238.135 551.638C237.901 551.209 237.584 550.882 237.183 550.658C236.791 550.425 236.357 550.308 235.881 550.308C235.405 550.308 234.971 550.42 234.579 550.644C234.187 550.868 233.874 551.195 233.641 551.624C233.407 552.053 233.291 552.557 233.291 553.136C233.291 553.724 233.407 554.237 233.641 554.676C233.874 555.105 234.187 555.437 234.579 555.67C234.971 555.894 235.405 556.006 235.881 556.006C236.357 556.006 236.791 555.894 237.183 555.67C237.584 555.437 237.901 555.105 238.135 554.676C238.368 554.237 238.485 553.729 238.485 553.15ZM242.584 548.082C242.341 548.082 242.136 547.998 241.968 547.83C241.8 547.662 241.716 547.457 241.716 547.214C241.716 546.971 241.8 546.766 241.968 546.598C242.136 546.43 242.341 546.346 242.584 546.346C242.817 546.346 243.013 546.43 243.172 546.598C243.34 546.766 243.424 546.971 243.424 547.214C243.424 547.457 243.34 547.662 243.172 547.83C243.013 547.998 242.817 548.082 242.584 548.082ZM243.2 549.328V557H241.926V549.328H243.2ZM248.227 555.824L250.607 549.328H251.965L248.955 557H247.471L244.461 549.328H245.833L248.227 555.824ZM260.219 552.87C260.219 553.113 260.205 553.369 260.177 553.64H254.045C254.091 554.396 254.348 554.989 254.815 555.418C255.291 555.838 255.865 556.048 256.537 556.048C257.087 556.048 257.545 555.922 257.909 555.67C258.282 555.409 258.543 555.063 258.693 554.634H260.065C259.859 555.371 259.449 555.973 258.833 556.44C258.217 556.897 257.451 557.126 256.537 557.126C255.809 557.126 255.155 556.963 254.577 556.636C254.007 556.309 253.559 555.847 253.233 555.25C252.906 554.643 252.743 553.943 252.743 553.15C252.743 552.357 252.901 551.661 253.219 551.064C253.536 550.467 253.979 550.009 254.549 549.692C255.127 549.365 255.79 549.202 256.537 549.202C257.265 549.202 257.909 549.361 258.469 549.678C259.029 549.995 259.458 550.434 259.757 550.994C260.065 551.545 260.219 552.17 260.219 552.87ZM258.903 552.604C258.903 552.119 258.795 551.703 258.581 551.358C258.366 551.003 258.072 550.737 257.699 550.56C257.335 550.373 256.929 550.28 256.481 550.28C255.837 550.28 255.286 550.485 254.829 550.896C254.381 551.307 254.124 551.876 254.059 552.604H258.903ZM272.437 549.328V557H271.163V555.866C270.92 556.258 270.579 556.566 270.141 556.79C269.711 557.005 269.235 557.112 268.713 557.112C268.115 557.112 267.579 556.991 267.103 556.748C266.627 556.496 266.249 556.123 265.969 555.628C265.698 555.133 265.563 554.531 265.563 553.822V549.328H266.823V553.654C266.823 554.41 267.014 554.993 267.397 555.404C267.779 555.805 268.302 556.006 268.965 556.006C269.646 556.006 270.183 555.796 270.575 555.376C270.967 554.956 271.163 554.345 271.163 553.542V549.328H272.437ZM275.862 550.742C276.114 550.303 276.487 549.939 276.982 549.65C277.486 549.351 278.069 549.202 278.732 549.202C279.413 549.202 280.029 549.365 280.58 549.692C281.14 550.019 281.578 550.481 281.896 551.078C282.213 551.666 282.372 552.352 282.372 553.136C282.372 553.911 282.213 554.601 281.896 555.208C281.578 555.815 281.14 556.286 280.58 556.622C280.029 556.958 279.413 557.126 278.732 557.126C278.078 557.126 277.5 556.981 276.996 556.692C276.501 556.393 276.123 556.025 275.862 555.586V560.64H274.588V549.328H275.862V550.742ZM281.07 553.136C281.07 552.557 280.953 552.053 280.72 551.624C280.486 551.195 280.169 550.868 279.768 550.644C279.376 550.42 278.942 550.308 278.466 550.308C277.999 550.308 277.565 550.425 277.164 550.658C276.772 550.882 276.454 551.213 276.212 551.652C275.978 552.081 275.862 552.581 275.862 553.15C275.862 553.729 275.978 554.237 276.212 554.676C276.454 555.105 276.772 555.437 277.164 555.67C277.565 555.894 277.999 556.006 278.466 556.006C278.942 556.006 279.376 555.894 279.768 555.67C280.169 555.437 280.486 555.105 280.72 554.676C280.953 554.237 281.07 553.724 281.07 553.136ZM291.519 549.188C292.452 549.188 293.208 549.473 293.787 550.042C294.366 550.602 294.655 551.414 294.655 552.478V557H293.395V552.66C293.395 551.895 293.204 551.311 292.821 550.91C292.438 550.499 291.916 550.294 291.253 550.294C290.581 550.294 290.044 550.504 289.643 550.924C289.251 551.344 289.055 551.955 289.055 552.758V557H287.781V549.328H289.055V550.42C289.307 550.028 289.648 549.725 290.077 549.51C290.516 549.295 290.996 549.188 291.519 549.188ZM300.082 557.126C299.364 557.126 298.71 556.963 298.122 556.636C297.544 556.309 297.086 555.847 296.75 555.25C296.424 554.643 296.26 553.943 296.26 553.15C296.26 552.366 296.428 551.675 296.764 551.078C297.11 550.471 297.576 550.009 298.164 549.692C298.752 549.365 299.41 549.202 300.138 549.202C300.866 549.202 301.524 549.365 302.112 549.692C302.7 550.009 303.162 550.467 303.498 551.064C303.844 551.661 304.016 552.357 304.016 553.15C304.016 553.943 303.839 554.643 303.484 555.25C303.139 555.847 302.668 556.309 302.07 556.636C301.473 556.963 300.81 557.126 300.082 557.126ZM300.082 556.006C300.54 556.006 300.969 555.899 301.37 555.684C301.772 555.469 302.094 555.147 302.336 554.718C302.588 554.289 302.714 553.766 302.714 553.15C302.714 552.534 302.593 552.011 302.35 551.582C302.108 551.153 301.79 550.835 301.398 550.63C301.006 550.415 300.582 550.308 300.124 550.308C299.658 550.308 299.228 550.415 298.836 550.63C298.454 550.835 298.146 551.153 297.912 551.582C297.679 552.011 297.562 552.534 297.562 553.15C297.562 553.775 297.674 554.303 297.898 554.732C298.132 555.161 298.44 555.483 298.822 555.698C299.205 555.903 299.625 556.006 300.082 556.006ZM315.911 549.328L313.517 557H312.201L310.353 550.91L308.505 557H307.189L304.781 549.328H306.083L307.847 555.768L309.751 549.328H311.053L312.915 555.782L314.651 549.328H315.911ZM37.686 570.328L33.066 581.612H31.75L33.262 577.916L30.168 570.328H31.582L33.99 576.544L36.37 570.328H37.686ZM42.3127 578.126C41.594 578.126 40.9407 577.963 40.3527 577.636C39.774 577.309 39.3167 576.847 38.9807 576.25C38.654 575.643 38.4907 574.943 38.4907 574.15C38.4907 573.366 38.6587 572.675 38.9947 572.078C39.34 571.471 39.8067 571.009 40.3947 570.692C40.9827 570.365 41.6407 570.202 42.3687 570.202C43.0967 570.202 43.7547 570.365 44.3427 570.692C44.9307 571.009 45.3927 571.467 45.7287 572.064C46.074 572.661 46.2467 573.357 46.2467 574.15C46.2467 574.943 46.0693 575.643 45.7147 576.25C45.3693 576.847 44.898 577.309 44.3007 577.636C43.7033 577.963 43.0407 578.126 42.3127 578.126ZM42.3127 577.006C42.77 577.006 43.1993 576.899 43.6007 576.684C44.002 576.469 44.324 576.147 44.5667 575.718C44.8187 575.289 44.9447 574.766 44.9447 574.15C44.9447 573.534 44.8233 573.011 44.5807 572.582C44.338 572.153 44.0207 571.835 43.6287 571.63C43.2367 571.415 42.812 571.308 42.3547 571.308C41.888 571.308 41.4587 571.415 41.0667 571.63C40.684 571.835 40.376 572.153 40.1427 572.582C39.9093 573.011 39.7927 573.534 39.7927 574.15C39.7927 574.775 39.9047 575.303 40.1287 575.732C40.362 576.161 40.67 576.483 41.0527 576.698C41.4353 576.903 41.8553 577.006 42.3127 577.006ZM54.7258 570.328V578H53.4518V576.866C53.2091 577.258 52.8684 577.566 52.4298 577.79C52.0004 578.005 51.5244 578.112 51.0018 578.112C50.4044 578.112 49.8678 577.991 49.3918 577.748C48.9158 577.496 48.5378 577.123 48.2578 576.628C47.9871 576.133 47.8518 575.531 47.8518 574.822V570.328H49.1118V574.654C49.1118 575.41 49.3031 575.993 49.6858 576.404C50.0684 576.805 50.5911 577.006 51.2538 577.006C51.9351 577.006 52.4718 576.796 52.8638 576.376C53.2558 575.956 53.4518 575.345 53.4518 574.542V570.328H54.7258ZM70.8293 570.328L68.4353 578H67.1193L65.2713 571.91L63.4233 578H62.1073L59.6993 570.328H61.0013L62.7653 576.768L64.6693 570.328H65.9713L67.8333 576.782L69.5693 570.328H70.8293ZM72.7516 569.082C72.509 569.082 72.3036 568.998 72.1356 568.83C71.9676 568.662 71.8836 568.457 71.8836 568.214C71.8836 567.971 71.9676 567.766 72.1356 567.598C72.3036 567.43 72.509 567.346 72.7516 567.346C72.985 567.346 73.181 567.43 73.3396 567.598C73.5076 567.766 73.5916 567.971 73.5916 568.214C73.5916 568.457 73.5076 568.662 73.3396 568.83C73.181 568.998 72.985 569.082 72.7516 569.082ZM73.3676 570.328V578H72.0936V570.328H73.3676ZM76.8129 567.64V578H75.5389V567.64H76.8129ZM80.2583 567.64V578H78.9843V567.64H80.2583ZM87.436 571.756C87.6973 571.299 88.08 570.925 88.584 570.636C89.088 570.347 89.662 570.202 90.306 570.202C90.9967 570.202 91.6173 570.365 92.168 570.692C92.7187 571.019 93.1527 571.481 93.47 572.078C93.7873 572.666 93.946 573.352 93.946 574.136C93.946 574.911 93.7873 575.601 93.47 576.208C93.1527 576.815 92.714 577.286 92.154 577.622C91.6033 577.958 90.9873 578.126 90.306 578.126C89.6433 578.126 89.06 577.981 88.556 577.692C88.0613 577.403 87.688 577.034 87.436 576.586V578H86.162V567.64H87.436V571.756ZM92.644 574.136C92.644 573.557 92.5273 573.053 92.294 572.624C92.0607 572.195 91.7433 571.868 91.342 571.644C90.95 571.42 90.516 571.308 90.04 571.308C89.5733 571.308 89.1393 571.425 88.738 571.658C88.346 571.882 88.0287 572.213 87.786 572.652C87.5527 573.081 87.436 573.581 87.436 574.15C87.436 574.729 87.5527 575.237 87.786 575.676C88.0287 576.105 88.346 576.437 88.738 576.67C89.1393 576.894 89.5733 577.006 90.04 577.006C90.516 577.006 90.95 576.894 91.342 576.67C91.7433 576.437 92.0607 576.105 92.294 575.676C92.5273 575.237 92.644 574.724 92.644 574.136ZM102.623 573.87C102.623 574.113 102.609 574.369 102.581 574.64H96.4489C96.4956 575.396 96.7523 575.989 97.2189 576.418C97.6949 576.838 98.2689 577.048 98.9409 577.048C99.4916 577.048 99.9489 576.922 100.313 576.67C100.686 576.409 100.948 576.063 101.097 575.634H102.469C102.264 576.371 101.853 576.973 101.237 577.44C100.621 577.897 99.8556 578.126 98.9409 578.126C98.2129 578.126 97.5596 577.963 96.9809 577.636C96.4116 577.309 95.9636 576.847 95.6369 576.25C95.3103 575.643 95.1469 574.943 95.1469 574.15C95.1469 573.357 95.3056 572.661 95.6229 572.064C95.9403 571.467 96.3836 571.009 96.9529 570.692C97.5316 570.365 98.1943 570.202 98.9409 570.202C99.6689 570.202 100.313 570.361 100.873 570.678C101.433 570.995 101.862 571.434 102.161 571.994C102.469 572.545 102.623 573.17 102.623 573.87ZM101.307 573.604C101.307 573.119 101.2 572.703 100.985 572.358C100.77 572.003 100.476 571.737 100.103 571.56C99.7389 571.373 99.3329 571.28 98.8849 571.28C98.2409 571.28 97.6903 571.485 97.2329 571.896C96.7849 572.307 96.5283 572.876 96.4629 573.604H101.307ZM108.695 569.082C108.452 569.082 108.247 568.998 108.079 568.83C107.911 568.662 107.827 568.457 107.827 568.214C107.827 567.971 107.911 567.766 108.079 567.598C108.247 567.43 108.452 567.346 108.695 567.346C108.928 567.346 109.124 567.43 109.283 567.598C109.451 567.766 109.535 567.971 109.535 568.214C109.535 568.457 109.451 568.662 109.283 568.83C109.124 568.998 108.928 569.082 108.695 569.082ZM109.311 570.328V578H108.037V570.328H109.311ZM115.22 570.188C116.154 570.188 116.91 570.473 117.488 571.042C118.067 571.602 118.356 572.414 118.356 573.478V578H117.096V573.66C117.096 572.895 116.905 572.311 116.522 571.91C116.14 571.499 115.617 571.294 114.954 571.294C114.282 571.294 113.746 571.504 113.344 571.924C112.952 572.344 112.756 572.955 112.756 573.758V578H111.482V570.328H112.756V571.42C113.008 571.028 113.349 570.725 113.778 570.51C114.217 570.295 114.698 570.188 115.22 570.188ZM125.444 571.742C125.696 571.303 126.069 570.939 126.564 570.65C127.068 570.351 127.651 570.202 128.314 570.202C128.995 570.202 129.611 570.365 130.162 570.692C130.722 571.019 131.16 571.481 131.478 572.078C131.795 572.666 131.954 573.352 131.954 574.136C131.954 574.911 131.795 575.601 131.478 576.208C131.16 576.815 130.722 577.286 130.162 577.622C129.611 577.958 128.995 578.126 128.314 578.126C127.66 578.126 127.082 577.981 126.578 577.692C126.083 577.393 125.705 577.025 125.444 576.586V581.64H124.17V570.328H125.444V571.742ZM130.652 574.136C130.652 573.557 130.535 573.053 130.302 572.624C130.068 572.195 129.751 571.868 129.35 571.644C128.958 571.42 128.524 571.308 128.048 571.308C127.581 571.308 127.147 571.425 126.746 571.658C126.354 571.882 126.036 572.213 125.794 572.652C125.56 573.081 125.444 573.581 125.444 574.15C125.444 574.729 125.56 575.237 125.794 575.676C126.036 576.105 126.354 576.437 126.746 576.67C127.147 576.894 127.581 577.006 128.048 577.006C128.524 577.006 128.958 576.894 129.35 576.67C129.751 576.437 130.068 576.105 130.302 575.676C130.535 575.237 130.652 574.724 130.652 574.136ZM133.155 574.136C133.155 573.352 133.313 572.666 133.631 572.078C133.948 571.481 134.382 571.019 134.933 570.692C135.493 570.365 136.113 570.202 136.795 570.202C137.467 570.202 138.05 570.347 138.545 570.636C139.039 570.925 139.408 571.289 139.651 571.728V570.328H140.939V578H139.651V576.572C139.399 577.02 139.021 577.393 138.517 577.692C138.022 577.981 137.443 578.126 136.781 578.126C136.099 578.126 135.483 577.958 134.933 577.622C134.382 577.286 133.948 576.815 133.631 576.208C133.313 575.601 133.155 574.911 133.155 574.136ZM139.651 574.15C139.651 573.571 139.534 573.067 139.301 572.638C139.067 572.209 138.75 571.882 138.349 571.658C137.957 571.425 137.523 571.308 137.047 571.308C136.571 571.308 136.137 571.42 135.745 571.644C135.353 571.868 135.04 572.195 134.807 572.624C134.573 573.053 134.457 573.557 134.457 574.136C134.457 574.724 134.573 575.237 134.807 575.676C135.04 576.105 135.353 576.437 135.745 576.67C136.137 576.894 136.571 577.006 137.047 577.006C137.523 577.006 137.957 576.894 138.349 576.67C138.75 576.437 139.067 576.105 139.301 575.676C139.534 575.237 139.651 574.729 139.651 574.15ZM143.75 569.082C143.507 569.082 143.302 568.998 143.134 568.83C142.966 568.662 142.882 568.457 142.882 568.214C142.882 567.971 142.966 567.766 143.134 567.598C143.302 567.43 143.507 567.346 143.75 567.346C143.983 567.346 144.179 567.43 144.338 567.598C144.506 567.766 144.59 567.971 144.59 568.214C144.59 568.457 144.506 568.662 144.338 568.83C144.179 568.998 143.983 569.082 143.75 569.082ZM144.366 570.328V578H143.092V570.328H144.366ZM150.275 570.188C151.208 570.188 151.964 570.473 152.543 571.042C153.122 571.602 153.411 572.414 153.411 573.478V578H152.151V573.66C152.151 572.895 151.96 572.311 151.577 571.91C151.194 571.499 150.672 571.294 150.009 571.294C149.337 571.294 148.8 571.504 148.399 571.924C148.007 572.344 147.811 572.955 147.811 573.758V578H146.537V570.328H147.811V571.42C148.063 571.028 148.404 570.725 148.833 570.51C149.272 570.295 149.752 570.188 150.275 570.188ZM162.346 571.378H160.736V578H159.462V571.378H158.468V570.328H159.462V569.782C159.462 568.923 159.682 568.298 160.12 567.906C160.568 567.505 161.282 567.304 162.262 567.304V568.368C161.702 568.368 161.306 568.48 161.072 568.704C160.848 568.919 160.736 569.278 160.736 569.782V570.328H162.346V571.378ZM167.178 578.126C166.459 578.126 165.806 577.963 165.218 577.636C164.639 577.309 164.182 576.847 163.846 576.25C163.519 575.643 163.356 574.943 163.356 574.15C163.356 573.366 163.524 572.675 163.86 572.078C164.205 571.471 164.672 571.009 165.26 570.692C165.848 570.365 166.506 570.202 167.234 570.202C167.962 570.202 168.62 570.365 169.208 570.692C169.796 571.009 170.258 571.467 170.594 572.064C170.939 572.661 171.112 573.357 171.112 574.15C171.112 574.943 170.935 575.643 170.58 576.25C170.235 576.847 169.763 577.309 169.166 577.636C168.569 577.963 167.906 578.126 167.178 578.126ZM167.178 577.006C167.635 577.006 168.065 576.899 168.466 576.684C168.867 576.469 169.189 576.147 169.432 575.718C169.684 575.289 169.81 574.766 169.81 574.15C169.81 573.534 169.689 573.011 169.446 572.582C169.203 572.153 168.886 571.835 168.494 571.63C168.102 571.415 167.677 571.308 167.22 571.308C166.753 571.308 166.324 571.415 165.932 571.63C165.549 571.835 165.241 572.153 165.008 572.582C164.775 573.011 164.658 573.534 164.658 574.15C164.658 574.775 164.77 575.303 164.994 575.732C165.227 576.161 165.535 576.483 165.918 576.698C166.301 576.903 166.721 577.006 167.178 577.006ZM174.061 571.574C174.285 571.135 174.602 570.795 175.013 570.552C175.433 570.309 175.942 570.188 176.539 570.188V571.504H176.203C174.775 571.504 174.061 572.279 174.061 573.828V578H172.787V570.328H174.061V571.574ZM185.01 573.87C185.01 574.113 184.996 574.369 184.968 574.64H178.836C178.882 575.396 179.139 575.989 179.606 576.418C180.082 576.838 180.656 577.048 181.328 577.048C181.878 577.048 182.336 576.922 182.7 576.67C183.073 576.409 183.334 576.063 183.484 575.634H184.856C184.65 576.371 184.24 576.973 183.624 577.44C183.008 577.897 182.242 578.126 181.328 578.126C180.6 578.126 179.946 577.963 179.368 577.636C178.798 577.309 178.35 576.847 178.024 576.25C177.697 575.643 177.534 574.943 177.534 574.15C177.534 573.357 177.692 572.661 178.01 572.064C178.327 571.467 178.77 571.009 179.34 570.692C179.918 570.365 180.581 570.202 181.328 570.202C182.056 570.202 182.7 570.361 183.26 570.678C183.82 570.995 184.249 571.434 184.548 571.994C184.856 572.545 185.01 573.17 185.01 573.87ZM183.694 573.604C183.694 573.119 183.586 572.703 183.372 572.358C183.157 572.003 182.863 571.737 182.49 571.56C182.126 571.373 181.72 571.28 181.272 571.28C180.628 571.28 180.077 571.485 179.62 571.896C179.172 572.307 178.915 572.876 178.85 573.604H183.694ZM189.547 576.824L191.927 570.328H193.285L190.275 578H188.791L185.781 570.328H187.153L189.547 576.824ZM201.539 573.87C201.539 574.113 201.525 574.369 201.497 574.64H195.365C195.412 575.396 195.668 575.989 196.135 576.418C196.611 576.838 197.185 577.048 197.857 577.048C198.408 577.048 198.865 576.922 199.229 576.67C199.602 576.409 199.864 576.063 200.013 575.634H201.385C201.18 576.371 200.769 576.973 200.153 577.44C199.537 577.897 198.772 578.126 197.857 578.126C197.129 578.126 196.476 577.963 195.897 577.636C195.328 577.309 194.88 576.847 194.553 576.25C194.226 575.643 194.063 574.943 194.063 574.15C194.063 573.357 194.222 572.661 194.539 572.064C194.856 571.467 195.3 571.009 195.869 570.692C196.448 570.365 197.11 570.202 197.857 570.202C198.585 570.202 199.229 570.361 199.789 570.678C200.349 570.995 200.778 571.434 201.077 571.994C201.385 572.545 201.539 573.17 201.539 573.87ZM200.223 573.604C200.223 573.119 200.116 572.703 199.901 572.358C199.686 572.003 199.392 571.737 199.019 571.56C198.655 571.373 198.249 571.28 197.801 571.28C197.157 571.28 196.606 571.485 196.149 571.896C195.701 572.307 195.444 572.876 195.379 573.604H200.223ZM204.495 571.574C204.719 571.135 205.036 570.795 205.447 570.552C205.867 570.309 206.375 570.188 206.973 570.188V571.504H206.637C205.209 571.504 204.495 572.279 204.495 573.828V578H203.221V570.328H204.495V571.574Z" fill="#7B6F72"/>
<g opacity="0.2">
<circle cx="315" cy="742" r="29.75" stroke="#F7F8F8" stroke-width="0.5"/>
<path d="M315 772C331.569 772 345 758.569 345 742C345 725.431 331.569 712 315 712" stroke="url(#paint0_linear_255_2221)" stroke-width="2" stroke-linecap="round"/>
<circle cx="315" cy="742" r="25" fill="url(#paint1_linear_255_2221)"/>
<path d="M312.375 736.75L317.625 742L312.375 747.25" stroke="white" stroke-width="1.5" stroke-linecap="round" stroke-linejoin="round"/>
</g>
<g clip-path="url(#clip0_255_2221)">
<path d="M0 215.043C0 215.043 59.4333 91.4374 122.033 91.4374C184.633 91.4374 228.467 219.742 291.067 219.742C353.667 219.742 346.733 152.957 375 152.957V-39H0V215.043Z" fill="url(#paint2_linear_255_2221)"/>
<path d="M164.567 173.119L147.367 178.618C147.367 178.618 142.133 198.813 143.767 202.413C145.4 206.012 154.6 208.744 158.967 206.578C163.333 204.412 178.133 190.249 178.133 190.249L164.567 173.119Z" fill="#FFEDE5"/>
<path d="M180.333 153.623C180.333 153.623 169.333 166.087 164.566 173.119L176.833 192.281L189.666 180.751C189.666 180.751 187.533 148.858 180.333 153.623Z" fill="#543753"/>
<path d="M162.6 173.752V192.948L168.133 178.685L164.567 173.119L162.6 173.752Z" fill="#E0855C"/>
<path d="M161.767 162.621C163.267 162.988 163.733 161.955 164.967 163.921C166.2 165.887 168.8 173.586 168.1 174.752C167.4 175.918 159.633 183.417 159.067 183.417C158.5 183.417 157.067 181.317 157.367 180.584C157.367 180.584 155.533 181.684 154.333 181.484C154.333 181.484 151.667 182.884 150.6 182.617C149.533 182.35 143.3 173.152 144.767 170.72C146.233 168.287 147.167 169.553 148.033 168.587C148.9 167.62 150.367 166.021 152.133 166.187C153.9 166.354 154.7 163.621 157.267 164.021C159.833 164.421 158.433 161.788 161.767 162.621Z" fill="#FFEDE5"/>
<path d="M157.333 180.917C157.2 180.917 157.1 180.851 157.033 180.751C156.933 180.584 157 180.384 157.167 180.317C157.2 180.317 160.2 178.718 161 177.551L161.067 177.485C161.1 177.485 162.8 175.952 163.367 174.785L160.467 168.22C160.4 168.054 160.467 167.854 160.633 167.787C160.8 167.72 161 167.787 161.067 167.954L164.067 174.785L164 174.919C163.5 176.185 161.767 177.751 161.5 177.985C160.567 179.284 157.567 180.851 157.433 180.917C157.433 180.884 157.4 180.917 157.333 180.917Z" fill="#472938"/>
<path d="M154.3 181.817C154.166 181.817 154.066 181.75 154 181.617L150.3 174.086C150.233 173.919 150.3 173.719 150.466 173.652C150.633 173.586 150.833 173.652 150.9 173.819L154.6 181.351C154.666 181.517 154.6 181.717 154.433 181.784C154.4 181.817 154.366 181.817 154.3 181.817Z" fill="#472938"/>
<path d="M159.3 179.751C159.166 179.751 159.066 179.684 159 179.551L155.533 172.086C155.466 171.919 155.533 171.719 155.7 171.653C155.866 171.586 156.066 171.653 156.133 171.819L159.6 179.284C159.666 179.451 159.6 179.651 159.433 179.718C159.4 179.751 159.333 179.751 159.3 179.751Z" fill="#472938"/>
<path d="M159.033 183.75C158.5 183.75 157.9 182.917 157.667 182.584C157.5 182.35 157.133 181.751 157 181.151C156.367 181.451 155.267 181.917 154.367 181.85C153.833 182.117 151.567 183.217 150.5 182.95C149.9 182.817 148.8 181.351 148.2 180.484C148.1 180.317 148.133 180.118 148.267 180.018C148.4 179.918 148.633 179.951 148.733 180.084C149.767 181.584 150.467 182.217 150.633 182.284C151.333 182.45 153.133 181.684 154.133 181.184L154.233 181.151H154.333C155.433 181.317 157.133 180.284 157.167 180.284L158.033 179.784L157.667 180.717C157.633 180.817 157.633 181.151 157.967 181.784C158.367 182.517 158.833 182.984 159.033 183.084C159.867 182.617 165.3 177.485 167.233 175.419C165.433 175.852 163.7 175.085 163.633 175.052C163.467 174.985 163.4 174.785 163.467 174.619C163.533 174.452 163.733 174.385 163.9 174.452C163.933 174.452 166.1 175.419 167.933 174.452C168.167 174.319 168.333 174.385 168.4 174.485C168.5 174.552 168.567 174.719 168.5 174.885C168.267 175.485 159.833 183.75 159.033 183.75Z" fill="#472938"/>
<path d="M218.033 133.595L234.733 144.092V165.854C234.733 165.854 217.366 201.979 218.033 215.01L178.266 222.441C178.266 222.441 168.733 184.183 180.333 153.59L198.066 141.126L218.033 133.595Z" fill="#AB8DA8"/>
<path d="M174.6 191.715C174.433 191.715 174.267 191.582 174.267 191.382C174.133 182.15 174.867 173.552 176.5 165.754C176.533 165.587 176.7 165.454 176.9 165.487C177.067 165.521 177.2 165.687 177.167 165.887C175.567 173.619 174.8 182.184 174.967 191.348C174.933 191.548 174.8 191.715 174.6 191.715Z" fill="#472938"/>
<path d="M234.733 165.887L221.7 163.921L229 178.685L234.733 165.887Z" fill="#543753"/>
<path d="M213.7 120.231L218.033 133.595C213.4 135.394 209.233 138.194 205.833 141.826C200.133 147.891 197.933 153.623 194.5 153.623C191.067 153.623 198.1 141.16 198.1 141.16L197.2 129.496L213.7 120.231Z" fill="#FFEDE5"/>
<path d="M197.633 135.428C197.633 135.428 205.267 134.294 209.167 123.33L197.167 129.496L197.633 135.428Z" fill="#E0855C"/>
<path d="M191.967 92.9371C191.967 92.9371 184.6 128.862 188.433 131.328C192.267 133.795 207.4 131.662 213.033 121.664C218.667 111.666 211.6 92.9371 191.967 92.9371Z" fill="#FFEDE5"/>
<path d="M189.6 105.701C189.6 105.701 182.667 114.666 183.367 115.532C184.067 116.398 187.867 117.632 187.867 117.632L189.6 105.701Z" fill="#FFEDE5"/>
<path d="M210.4 116.232C210.4 116.232 206.933 114.499 209.167 106.934C209.167 106.934 204.667 98.9691 201.733 97.6694C198.8 96.3697 191.333 95.9697 191.333 95.9697C191.333 95.9697 189.833 85.4721 192.333 84.3724C194.833 83.2726 217.967 83.9058 222.333 92.0706C223.8 94.8367 222.867 96.503 222.867 96.503C222.867 96.503 225.333 99.7689 224.9 102.568C224.467 105.368 217.667 115.732 217.667 115.732L210.4 116.232Z" fill="#3B2645"/>
<path d="M217.318 118.964C219.636 116.647 220.29 113.545 218.78 112.036C217.27 110.526 214.167 111.18 211.85 113.497C209.533 115.813 208.879 118.915 210.389 120.425C211.899 121.934 215.001 121.28 217.318 118.964Z" fill="#FFEDE5"/>
<path d="M191.366 123.397C189.8 123.397 188.4 122.964 188.3 122.93C188.133 122.864 188.033 122.697 188.1 122.497C188.166 122.33 188.333 122.231 188.533 122.297C188.566 122.297 193.1 123.764 194.666 121.364C194.766 121.197 194.966 121.164 195.133 121.264C195.3 121.364 195.333 121.564 195.233 121.731C194.333 123.03 192.8 123.397 191.366 123.397Z" fill="#472938"/>
<path d="M212.167 117.765C212.067 117.765 211.933 117.698 211.9 117.598C211.8 117.432 211.833 117.232 212 117.132L214.7 115.432C214.867 115.332 215.067 115.365 215.167 115.532C215.267 115.699 215.233 115.899 215.067 115.999L212.367 117.698C212.3 117.732 212.233 117.765 212.167 117.765Z" fill="#472938"/>
<path d="M194.2 105.734C194.9 105.901 195.333 106.601 195.167 107.267L194.967 108.167C194.8 108.867 194.1 109.3 193.433 109.133C192.733 108.967 192.3 108.267 192.467 107.6L192.667 106.701C192.833 106.001 193.5 105.568 194.2 105.734Z" fill="#3B2645"/>
<path d="M192.8 102.235C192.8 102.235 197.2 101.935 198.333 105.534C198.333 105.534 198.2 101.768 195.433 101.202C192.667 100.635 191.767 102.068 192.8 102.235Z" fill="#3B2645"/>
<path d="M223.967 137.327C209 134.794 218.933 166.354 218.933 166.354L241.333 173.119L249.633 147.625C236.6 141.893 223.967 137.327 223.967 137.327Z" fill="#AB8DA8"/>
<path d="M244.833 211.91C244.833 211.91 236.933 214.676 236.167 215.91C235.4 217.143 236.133 221.508 236.133 221.508C235.3 222.841 234.633 224.241 234.167 225.741C233.5 227.973 235.167 227.307 237.133 229.573C239.1 231.839 240.7 231.273 241.833 232.306C242.967 233.339 245.267 233.006 246.167 233.439C247.067 233.872 248.767 235.338 249.8 235.272C250.833 235.205 253.267 231.673 255.267 227.24C257.267 222.808 256.9 219.209 257.8 213.877C258.7 208.544 279.733 174.252 277.267 164.954C276.033 160.322 262.633 153.39 249.6 147.625L241.3 173.119L253.167 176.718L244.833 211.91Z" fill="#FFEDE5"/>
<path d="M256.733 177.985C256.7 177.985 256.667 177.985 256.633 177.985L253.067 177.018C252.9 176.985 252.767 176.785 252.833 176.618C252.867 176.452 253.067 176.352 253.233 176.385L256.8 177.351C256.967 177.385 257.1 177.585 257.033 177.751C257.033 177.885 256.9 177.985 256.733 177.985Z" fill="#472938"/>
<path d="M283.833 297.391L296.8 290.893C296.8 290.893 296.5 288.36 299.1 285.494C301.7 282.628 299.767 275.996 297.333 274.93C294.9 273.863 293.7 274.596 291.6 271.164L272.833 279.295L283.833 297.391Z" fill="#FFEDE5"/>
<path d="M297.3 274.93C299.733 275.996 301.633 282.628 299.067 285.494C296.5 288.36 296.767 290.893 296.767 290.893C307.867 292.392 318.3 308.655 320.267 310.488C322.233 312.321 330.2 311.022 330.433 309.655C330.667 308.289 313.367 262.666 311.767 261.666C310.167 260.666 291.567 271.164 291.567 271.164C293.667 274.596 294.867 273.863 297.3 274.93Z" fill="#AB8DA8"/>
<path d="M330.433 309.655C330.633 308.289 313.367 262.666 311.767 261.666C311.367 261.399 309.9 261.866 307.967 262.699C312.567 271.83 324.3 303.29 327.2 311.088C328.933 310.755 330.333 310.222 330.433 309.655Z" fill="#E5E5E5"/>
<path d="M183.867 249.202C183.867 249.202 213.6 327.185 226.133 328.218C238.667 329.251 289.533 295.092 289.533 295.092L280.067 276.129L237.1 290.293L226.4 241.337L183.867 249.202Z" fill="#3B2645"/>
<g opacity="0.5">
<path opacity="0.5" d="M226.4 241.37L183.867 249.202C183.867 249.202 191.5 269.198 200.633 289.06L229.933 257.7L226.4 241.37Z" fill="#3B2645"/>
</g>
<path d="M105.733 361.677L100 374.974C100 374.974 101.867 376.74 101.733 380.573C101.6 384.405 107.333 388.271 109.9 387.504C112.467 386.738 112.9 385.405 116.733 386.705L125.867 368.375L105.733 361.677Z" fill="#FFEDE5"/>
<path d="M103.733 366.309C103.733 366.309 111.6 374.541 121.9 376.274L125.833 368.375L105.733 361.643L103.733 366.309Z" fill="#E0855C"/>
<path d="M218.033 215.043C218.033 215.043 235.433 235.205 226.367 251.202C217.3 267.198 163.267 296.591 159.6 305.623C155.933 314.654 153.867 325.085 146.367 337.616C138.867 350.146 126.9 372.241 126.9 372.241C126.9 372.241 108.8 371.541 102.9 363.71C102.9 363.71 132.1 289.826 139.067 280.262C146.033 270.697 178.9 230.173 178.9 230.173L178.233 222.475L218.033 215.043Z" fill="#3B2645"/>
<path d="M118.667 369.608C118.633 369.608 118.633 369.608 118.6 369.608C118.533 369.575 118.467 369.475 118.533 369.375C118.867 368.675 151.033 300.157 157.467 292.159C159.833 289.193 166.8 282.228 174.833 274.163C188.6 260.366 205.7 243.203 208 237.938C211.6 229.74 209.2 218.209 209.167 218.076C209.133 217.976 209.2 217.909 209.3 217.876C209.4 217.842 209.467 217.909 209.5 218.009C209.533 218.109 211.933 229.773 208.3 238.071C205.967 243.37 188.833 260.566 175.067 274.396C167.033 282.461 160.1 289.393 157.733 292.359C151.333 300.324 119.167 368.809 118.867 369.508C118.8 369.575 118.733 369.608 118.667 369.608Z" fill="white"/>
<path d="M114.1 368.575C114.067 368.575 114.067 368.575 114.033 368.575C113.967 368.542 113.9 368.442 113.967 368.342C114.3 367.642 147.667 297.058 151.533 291.126C153.5 288.093 165.233 275.696 176.567 263.732C187.767 251.901 199.367 239.638 201.6 236.372C206.067 229.84 205.133 219.242 205.133 219.142C205.133 219.042 205.2 218.975 205.3 218.975C205.4 218.975 205.467 219.042 205.467 219.142C205.467 219.242 206.433 229.973 201.867 236.605C199.6 239.904 188 252.168 176.8 264.032C165.467 275.996 153.767 288.393 151.8 291.393C147.967 297.325 114.567 367.875 114.233 368.575C114.233 368.542 114.167 368.575 114.1 368.575Z" fill="white"/>
<path d="M109.867 387.538C107.333 388.271 101.567 384.438 101.7 380.606C101.833 376.773 99.9666 375.007 99.9666 375.007C90.4999 381.006 72.0666 375.274 69.3666 375.14C66.6666 375.007 61.3999 381.139 62.1333 382.306C62.8666 383.472 105.433 407.267 107.333 407.033C109.233 406.8 116.667 386.771 116.667 386.771C112.867 385.438 112.433 386.805 109.867 387.538Z" fill="#AB8DA8"/>
<path d="M62.1665 382.305C62.8665 383.472 105.467 407.267 107.367 407.033C107.833 406.967 108.667 405.7 109.6 403.801C100.2 399.768 70.9332 383.239 63.7332 379.14C62.5999 380.473 61.8665 381.806 62.1665 382.305Z" fill="#E5E5E5"/>
<g opacity="0.5">
<path opacity="0.5" d="M178.9 230.173C178.9 230.173 198.667 227.707 198.467 227.773C198.267 227.84 178.633 226.907 178.633 226.907L178.9 230.173Z" fill="#3B2645"/>
</g>
</g>
<defs>
<linearGradient id="paint0_linear_255_2221" x1="345" y1="772" x2="304.837" y2="770.446" gradientUnits="userSpaceOnUse">
<stop stop-color="#92A3FD"/>
<stop offset="1" stop-color="#9DCEFF"/>
</linearGradient>
<linearGradient id="paint1_linear_255_2221" x1="340" y1="767" x2="273.36" y2="761.843" gradientUnits="userSpaceOnUse">
<stop stop-color="#92A3FD"/>
<stop offset="1" stop-color="#9DCEFF"/>
</linearGradient>
<linearGradient id="paint2_linear_255_2221" x1="375" y1="219.742" x2="-121.545" y2="164.055" gradientUnits="userSpaceOnUse">
<stop stop-color="#92A3FD"/>
<stop offset="1" stop-color="#9DCEFF"/>
</linearGradient>
<clipPath id="clip0_255_2221">
<rect width="375" height="406" fill="white" transform="translate(0 1)"/>
</clipPath>
</defs>
</svg>
