<svg width="375" height="812" viewBox="0 0 375 812" fill="none" xmlns="http://www.w3.org/2000/svg">
<rect width="375" height="812" rx="40" fill="white"/>
<path d="M43.608 479.152V482.44H39.144V496H35.04V482.44H30.576V479.152H43.608ZM49.7717 484.84C50.2517 484.104 50.8517 483.528 51.5717 483.112C52.2917 482.68 53.0917 482.464 53.9717 482.464V486.808H52.8437C51.8197 486.808 51.0517 487.032 50.5397 487.48C50.0277 487.912 49.7717 488.68 49.7717 489.784V496H45.6677V482.608H49.7717V484.84ZM55.1173 489.28C55.1173 487.904 55.3733 486.696 55.8853 485.656C56.4133 484.616 57.1253 483.816 58.0213 483.256C58.9173 482.696 59.9173 482.416 61.0213 482.416C61.9653 482.416 62.7893 482.608 63.4933 482.992C64.2133 483.376 64.7653 483.88 65.1493 484.504V482.608H69.2533V496H65.1493V494.104C64.7493 494.728 64.1893 495.232 63.4693 495.616C62.7653 496 61.9413 496.192 60.9973 496.192C59.9093 496.192 58.9173 495.912 58.0213 495.352C57.1253 494.776 56.4133 493.968 55.8853 492.928C55.3733 491.872 55.1173 490.656 55.1173 489.28ZM65.1493 489.304C65.1493 488.28 64.8613 487.472 64.2853 486.88C63.7253 486.288 63.0373 485.992 62.2213 485.992C61.4053 485.992 60.7093 486.288 60.1333 486.88C59.5733 487.456 59.2933 488.256 59.2933 489.28C59.2933 490.304 59.5733 491.12 60.1333 491.728C60.7093 492.32 61.4053 492.616 62.2213 492.616C63.0373 492.616 63.7253 492.32 64.2853 491.728C64.8613 491.136 65.1493 490.328 65.1493 489.304ZM71.4064 489.304C71.4064 487.912 71.6864 486.696 72.2464 485.656C72.8224 484.616 73.6144 483.816 74.6224 483.256C75.6464 482.696 76.8144 482.416 78.1264 482.416C79.8064 482.416 81.2064 482.856 82.3264 483.736C83.4624 484.616 84.2064 485.856 84.5584 487.456H80.1904C79.8224 486.432 79.1104 485.92 78.0544 485.92C77.3024 485.92 76.7024 486.216 76.2544 486.808C75.8064 487.384 75.5824 488.216 75.5824 489.304C75.5824 490.392 75.8064 491.232 76.2544 491.824C76.7024 492.4 77.3024 492.688 78.0544 492.688C79.1104 492.688 79.8224 492.176 80.1904 491.152H84.5584C84.2064 492.72 83.4624 493.952 82.3264 494.848C81.1904 495.744 79.7904 496.192 78.1264 496.192C76.8144 496.192 75.6464 495.912 74.6224 495.352C73.6144 494.792 72.8224 493.992 72.2464 492.952C71.6864 491.912 71.4064 490.696 71.4064 489.304ZM94.9376 496L90.8576 490.384V496H86.7536V478.24H90.8576V488.056L94.9136 482.608H99.9776L94.4096 489.328L100.026 496H94.9376ZM121.124 479.152L115.292 490.432V496H111.188V490.432L105.356 479.152H110.012L113.276 486.208L116.516 479.152H121.124ZM128.873 496.192C127.561 496.192 126.377 495.912 125.321 495.352C124.281 494.792 123.457 493.992 122.849 492.952C122.257 491.912 121.961 490.696 121.961 489.304C121.961 487.928 122.265 486.72 122.873 485.68C123.481 484.624 124.313 483.816 125.369 483.256C126.425 482.696 127.609 482.416 128.921 482.416C130.233 482.416 131.417 482.696 132.473 483.256C133.529 483.816 134.361 484.624 134.969 485.68C135.577 486.72 135.881 487.928 135.881 489.304C135.881 490.68 135.569 491.896 134.945 492.952C134.337 493.992 133.497 494.792 132.425 495.352C131.369 495.912 130.185 496.192 128.873 496.192ZM128.873 492.64C129.657 492.64 130.321 492.352 130.865 491.776C131.425 491.2 131.705 490.376 131.705 489.304C131.705 488.232 131.433 487.408 130.889 486.832C130.361 486.256 129.705 485.968 128.921 485.968C128.121 485.968 127.457 486.256 126.929 486.832C126.401 487.392 126.137 488.216 126.137 489.304C126.137 490.376 126.393 491.2 126.905 491.776C127.433 492.352 128.089 492.64 128.873 492.64ZM151.282 482.608V496H147.178V494.176C146.762 494.768 146.194 495.248 145.474 495.616C144.77 495.968 143.986 496.144 143.122 496.144C142.098 496.144 141.194 495.92 140.41 495.472C139.626 495.008 139.018 494.344 138.586 493.48C138.154 492.616 137.938 491.6 137.938 490.432V482.608H142.018V489.88C142.018 490.776 142.25 491.472 142.714 491.968C143.178 492.464 143.802 492.712 144.586 492.712C145.386 492.712 146.018 492.464 146.482 491.968C146.946 491.472 147.178 490.776 147.178 489.88V482.608H151.282ZM158.334 484.84C158.814 484.104 159.414 483.528 160.134 483.112C160.854 482.68 161.654 482.464 162.534 482.464V486.808H161.406C160.382 486.808 159.614 487.032 159.102 487.48C158.59 487.912 158.334 488.68 158.334 489.784V496H154.23V482.608H158.334V484.84ZM180.766 484.48C180.462 483.92 180.022 483.496 179.446 483.208C178.886 482.904 178.222 482.752 177.454 482.752C176.126 482.752 175.062 483.192 174.262 484.072C173.462 484.936 173.062 486.096 173.062 487.552C173.062 489.104 173.478 490.32 174.31 491.2C175.158 492.064 176.318 492.496 177.79 492.496C178.798 492.496 179.646 492.24 180.334 491.728C181.038 491.216 181.55 490.48 181.87 489.52H176.662V486.496H185.59V490.312C185.286 491.336 184.766 492.288 184.03 493.168C183.31 494.048 182.39 494.76 181.27 495.304C180.15 495.848 178.886 496.12 177.478 496.12C175.814 496.12 174.326 495.76 173.014 495.04C171.718 494.304 170.702 493.288 169.966 491.992C169.246 490.696 168.886 489.216 168.886 487.552C168.886 485.888 169.246 484.408 169.966 483.112C170.702 481.8 171.718 480.784 173.014 480.064C174.31 479.328 175.79 478.96 177.454 478.96C179.47 478.96 181.166 479.448 182.542 480.424C183.934 481.4 184.854 482.752 185.302 484.48H180.766ZM193.959 496.192C192.647 496.192 191.463 495.912 190.407 495.352C189.367 494.792 188.543 493.992 187.935 492.952C187.343 491.912 187.047 490.696 187.047 489.304C187.047 487.928 187.351 486.72 187.959 485.68C188.567 484.624 189.399 483.816 190.455 483.256C191.511 482.696 192.695 482.416 194.007 482.416C195.319 482.416 196.503 482.696 197.559 483.256C198.615 483.816 199.447 484.624 200.055 485.68C200.663 486.72 200.967 487.928 200.967 489.304C200.967 490.68 200.655 491.896 200.031 492.952C199.423 493.992 198.583 494.792 197.511 495.352C196.455 495.912 195.271 496.192 193.959 496.192ZM193.959 492.64C194.743 492.64 195.407 492.352 195.951 491.776C196.511 491.2 196.791 490.376 196.791 489.304C196.791 488.232 196.519 487.408 195.975 486.832C195.447 486.256 194.791 485.968 194.007 485.968C193.207 485.968 192.543 486.256 192.015 486.832C191.487 487.392 191.223 488.216 191.223 489.304C191.223 490.376 191.479 491.2 191.991 491.776C192.519 492.352 193.175 492.64 193.959 492.64ZM202.328 489.28C202.328 487.904 202.584 486.696 203.096 485.656C203.624 484.616 204.336 483.816 205.232 483.256C206.128 482.696 207.128 482.416 208.232 482.416C209.176 482.416 210 482.608 210.704 482.992C211.424 483.376 211.976 483.88 212.36 484.504V482.608H216.464V496H212.36V494.104C211.96 494.728 211.4 495.232 210.68 495.616C209.976 496 209.152 496.192 208.208 496.192C207.12 496.192 206.128 495.912 205.232 495.352C204.336 494.776 203.624 493.968 203.096 492.928C202.584 491.872 202.328 490.656 202.328 489.28ZM212.36 489.304C212.36 488.28 212.072 487.472 211.496 486.88C210.936 486.288 210.248 485.992 209.432 485.992C208.616 485.992 207.92 486.288 207.344 486.88C206.784 487.456 206.504 488.256 206.504 489.28C206.504 490.304 206.784 491.12 207.344 491.728C207.92 492.32 208.616 492.616 209.432 492.616C210.248 492.616 210.936 492.32 211.496 491.728C212.072 491.136 212.36 490.328 212.36 489.304ZM223.537 478.24V496H219.433V478.24H223.537Z" fill="#1D1617"/>
<path d="M34.116 526.242C35.18 526.242 36.0993 526.443 36.874 526.844C37.658 527.236 38.2553 527.801 38.666 528.538C39.086 529.275 39.296 530.143 39.296 531.142C39.296 532.141 39.086 533.009 38.666 533.746C38.2553 534.474 37.658 535.034 36.874 535.426C36.0993 535.809 35.18 536 34.116 536H31.078V526.242H34.116ZM34.116 534.95C35.376 534.95 36.3373 534.619 37 533.956C37.6627 533.284 37.994 532.346 37.994 531.142C37.994 529.929 37.658 528.981 36.986 528.3C36.3233 527.619 35.3667 527.278 34.116 527.278H32.352V534.95H34.116ZM44.3224 536.126C43.6038 536.126 42.9504 535.963 42.3624 535.636C41.7838 535.309 41.3264 534.847 40.9904 534.25C40.6638 533.643 40.5004 532.943 40.5004 532.15C40.5004 531.366 40.6684 530.675 41.0044 530.078C41.3498 529.471 41.8164 529.009 42.4044 528.692C42.9924 528.365 43.6504 528.202 44.3784 528.202C45.1064 528.202 45.7644 528.365 46.3524 528.692C46.9404 529.009 47.4024 529.467 47.7384 530.064C48.0838 530.661 48.2564 531.357 48.2564 532.15C48.2564 532.943 48.0791 533.643 47.7244 534.25C47.3791 534.847 46.9078 535.309 46.3104 535.636C45.7131 535.963 45.0504 536.126 44.3224 536.126ZM44.3224 535.006C44.7798 535.006 45.2091 534.899 45.6104 534.684C46.0118 534.469 46.3338 534.147 46.5764 533.718C46.8284 533.289 46.9544 532.766 46.9544 532.15C46.9544 531.534 46.8331 531.011 46.5904 530.582C46.3478 530.153 46.0304 529.835 45.6384 529.63C45.2464 529.415 44.8218 529.308 44.3644 529.308C43.8978 529.308 43.4684 529.415 43.0764 529.63C42.6938 529.835 42.3858 530.153 42.1524 530.582C41.9191 531.011 41.8024 531.534 41.8024 532.15C41.8024 532.775 41.9144 533.303 42.1384 533.732C42.3718 534.161 42.6798 534.483 43.0624 534.698C43.4451 534.903 43.8651 535.006 44.3224 535.006ZM53.6695 528.188C54.6028 528.188 55.3588 528.473 55.9375 529.042C56.5162 529.602 56.8055 530.414 56.8055 531.478V536H55.5455V531.66C55.5455 530.895 55.3542 530.311 54.9715 529.91C54.5888 529.499 54.0662 529.294 53.4035 529.294C52.7315 529.294 52.1948 529.504 51.7935 529.924C51.4015 530.344 51.2055 530.955 51.2055 531.758V536H49.9315V528.328H51.2055V529.42C51.4575 529.028 51.7982 528.725 52.2275 528.51C52.6662 528.295 53.1468 528.188 53.6695 528.188ZM59.5306 524.856L59.3626 527.642H58.4806L58.2986 524.856H59.5306ZM62.6691 529.378V533.9C62.6691 534.273 62.7484 534.539 62.9071 534.698C63.0658 534.847 63.3411 534.922 63.7331 534.922H64.6711V536H63.5231C62.8138 536 62.2818 535.837 61.9271 535.51C61.5724 535.183 61.3951 534.647 61.3951 533.9V529.378H60.4011V528.328H61.3951V526.396H62.6691V528.328H64.6711V529.378H62.6691ZM80.1671 528.328L77.7731 536H76.4571L74.6091 529.91L72.7611 536H71.4451L69.0371 528.328H70.3391L72.1031 534.768L74.0071 528.328H75.3091L77.1711 534.782L78.9071 528.328H80.1671ZM84.7775 536.126C84.0588 536.126 83.4055 535.963 82.8175 535.636C82.2388 535.309 81.7815 534.847 81.4455 534.25C81.1188 533.643 80.9555 532.943 80.9555 532.15C80.9555 531.366 81.1235 530.675 81.4595 530.078C81.8048 529.471 82.2715 529.009 82.8595 528.692C83.4475 528.365 84.1055 528.202 84.8335 528.202C85.5615 528.202 86.2195 528.365 86.8075 528.692C87.3955 529.009 87.8575 529.467 88.1935 530.064C88.5388 530.661 88.7115 531.357 88.7115 532.15C88.7115 532.943 88.5342 533.643 88.1795 534.25C87.8342 534.847 87.3628 535.309 86.7655 535.636C86.1682 535.963 85.5055 536.126 84.7775 536.126ZM84.7775 535.006C85.2348 535.006 85.6642 534.899 86.0655 534.684C86.4668 534.469 86.7888 534.147 87.0315 533.718C87.2835 533.289 87.4095 532.766 87.4095 532.15C87.4095 531.534 87.2882 531.011 87.0455 530.582C86.8028 530.153 86.4855 529.835 86.0935 529.63C85.7015 529.415 85.2768 529.308 84.8195 529.308C84.3528 529.308 83.9235 529.415 83.5315 529.63C83.1488 529.835 82.8408 530.153 82.6075 530.582C82.3742 531.011 82.2575 531.534 82.2575 532.15C82.2575 532.775 82.3695 533.303 82.5935 533.732C82.8268 534.161 83.1348 534.483 83.5175 534.698C83.9002 534.903 84.3202 535.006 84.7775 535.006ZM91.6606 529.574C91.8846 529.135 92.2019 528.795 92.6126 528.552C93.0326 528.309 93.5413 528.188 94.1386 528.188V529.504H93.8026C92.3746 529.504 91.6606 530.279 91.6606 531.828V536H90.3866V528.328H91.6606V529.574ZM96.8833 529.574C97.1073 529.135 97.4246 528.795 97.8353 528.552C98.2553 528.309 98.7639 528.188 99.3613 528.188V529.504H99.0253C97.5973 529.504 96.8833 530.279 96.8833 531.828V536H95.6093V528.328H96.8833V529.574ZM107.44 528.328L102.82 539.612H101.504L103.016 535.916L99.9219 528.328H101.336L103.744 534.544L106.124 528.328H107.44ZM113.111 527.082C112.868 527.082 112.663 526.998 112.495 526.83C112.327 526.662 112.243 526.457 112.243 526.214C112.243 525.971 112.327 525.766 112.495 525.598C112.663 525.43 112.868 525.346 113.111 525.346C113.344 525.346 113.54 525.43 113.699 525.598C113.867 525.766 113.951 525.971 113.951 526.214C113.951 526.457 113.867 526.662 113.699 526.83C113.54 526.998 113.344 527.082 113.111 527.082ZM113.727 528.328V536H112.453V528.328H113.727ZM119.02 529.378H117.41V536H116.136V529.378H115.142V528.328H116.136V527.782C116.136 526.923 116.356 526.298 116.794 525.906C117.242 525.505 117.956 525.304 118.936 525.304V526.368C118.376 526.368 117.98 526.48 117.746 526.704C117.522 526.919 117.41 527.278 117.41 527.782V528.328H119.02V529.378ZM130.846 528.328L126.226 539.612H124.91L126.422 535.916L123.328 528.328H124.742L127.15 534.544L129.53 528.328H130.846ZM135.473 536.126C134.754 536.126 134.101 535.963 133.513 535.636C132.934 535.309 132.477 534.847 132.141 534.25C131.814 533.643 131.651 532.943 131.651 532.15C131.651 531.366 131.819 530.675 132.155 530.078C132.5 529.471 132.967 529.009 133.555 528.692C134.143 528.365 134.801 528.202 135.529 528.202C136.257 528.202 136.915 528.365 137.503 528.692C138.091 529.009 138.553 529.467 138.889 530.064C139.234 530.661 139.407 531.357 139.407 532.15C139.407 532.943 139.229 533.643 138.875 534.25C138.529 534.847 138.058 535.309 137.461 535.636C136.863 535.963 136.201 536.126 135.473 536.126ZM135.473 535.006C135.93 535.006 136.359 534.899 136.761 534.684C137.162 534.469 137.484 534.147 137.727 533.718C137.979 533.289 138.105 532.766 138.105 532.15C138.105 531.534 137.983 531.011 137.741 530.582C137.498 530.153 137.181 529.835 136.789 529.63C136.397 529.415 135.972 529.308 135.515 529.308C135.048 529.308 134.619 529.415 134.227 529.63C133.844 529.835 133.536 530.153 133.303 530.582C133.069 531.011 132.953 531.534 132.953 532.15C132.953 532.775 133.065 533.303 133.289 533.732C133.522 534.161 133.83 534.483 134.213 534.698C134.595 534.903 135.015 535.006 135.473 535.006ZM147.886 528.328V536H146.612V534.866C146.369 535.258 146.029 535.566 145.59 535.79C145.161 536.005 144.685 536.112 144.162 536.112C143.565 536.112 143.028 535.991 142.552 535.748C142.076 535.496 141.698 535.123 141.418 534.628C141.147 534.133 141.012 533.531 141.012 532.822V528.328H142.272V532.654C142.272 533.41 142.463 533.993 142.846 534.404C143.229 534.805 143.751 535.006 144.414 535.006C145.095 535.006 145.632 534.796 146.024 534.376C146.416 533.956 146.612 533.345 146.612 532.542V528.328H147.886ZM157.577 528.188C158.156 528.188 158.679 528.314 159.145 528.566C159.612 528.809 159.976 529.177 160.237 529.672C160.508 530.167 160.643 530.769 160.643 531.478V536H159.383V531.66C159.383 530.895 159.192 530.311 158.809 529.91C158.427 529.499 157.904 529.294 157.241 529.294C156.569 529.294 156.033 529.504 155.631 529.924C155.239 530.344 155.043 530.955 155.043 531.758V536H153.769V525.64H155.043V529.42C155.295 529.028 155.641 528.725 156.079 528.51C156.527 528.295 157.027 528.188 157.577 528.188ZM162.248 532.136C162.248 531.352 162.407 530.666 162.724 530.078C163.042 529.481 163.476 529.019 164.026 528.692C164.586 528.365 165.207 528.202 165.888 528.202C166.56 528.202 167.144 528.347 167.638 528.636C168.133 528.925 168.502 529.289 168.744 529.728V528.328H170.032V536H168.744V534.572C168.492 535.02 168.114 535.393 167.61 535.692C167.116 535.981 166.537 536.126 165.874 536.126C165.193 536.126 164.577 535.958 164.026 535.622C163.476 535.286 163.042 534.815 162.724 534.208C162.407 533.601 162.248 532.911 162.248 532.136ZM168.744 532.15C168.744 531.571 168.628 531.067 168.394 530.638C168.161 530.209 167.844 529.882 167.442 529.658C167.05 529.425 166.616 529.308 166.14 529.308C165.664 529.308 165.23 529.42 164.838 529.644C164.446 529.868 164.134 530.195 163.9 530.624C163.667 531.053 163.55 531.557 163.55 532.136C163.55 532.724 163.667 533.237 163.9 533.676C164.134 534.105 164.446 534.437 164.838 534.67C165.23 534.894 165.664 535.006 166.14 535.006C166.616 535.006 167.05 534.894 167.442 534.67C167.844 534.437 168.161 534.105 168.394 533.676C168.628 533.237 168.744 532.729 168.744 532.15ZM175.041 534.824L177.421 528.328H178.779L175.769 536H174.285L171.275 528.328H172.647L175.041 534.824ZM187.033 531.87C187.033 532.113 187.019 532.369 186.991 532.64H180.859C180.906 533.396 181.162 533.989 181.629 534.418C182.105 534.838 182.679 535.048 183.351 535.048C183.902 535.048 184.359 534.922 184.723 534.67C185.096 534.409 185.358 534.063 185.507 533.634H186.879C186.674 534.371 186.263 534.973 185.647 535.44C185.031 535.897 184.266 536.126 183.351 536.126C182.623 536.126 181.97 535.963 181.391 535.636C180.822 535.309 180.374 534.847 180.047 534.25C179.72 533.643 179.557 532.943 179.557 532.15C179.557 531.357 179.716 530.661 180.033 530.064C180.35 529.467 180.794 529.009 181.363 528.692C181.942 528.365 182.604 528.202 183.351 528.202C184.079 528.202 184.723 528.361 185.283 528.678C185.843 528.995 186.272 529.434 186.571 529.994C186.879 530.545 187.033 531.17 187.033 531.87ZM185.717 531.604C185.717 531.119 185.61 530.703 185.395 530.358C185.18 530.003 184.886 529.737 184.513 529.56C184.149 529.373 183.743 529.28 183.295 529.28C182.651 529.28 182.1 529.485 181.643 529.896C181.195 530.307 180.938 530.876 180.873 531.604H185.717ZM194.001 529.378V533.9C194.001 534.273 194.08 534.539 194.239 534.698C194.398 534.847 194.673 534.922 195.065 534.922H196.003V536H194.855C194.146 536 193.614 535.837 193.259 535.51C192.904 535.183 192.727 534.647 192.727 533.9V529.378H191.733V528.328H192.727V526.396H194.001V528.328H196.003V529.378H194.001ZM198.821 529.574C199.045 529.135 199.362 528.795 199.773 528.552C200.193 528.309 200.701 528.188 201.299 528.188V529.504H200.963C199.535 529.504 198.821 530.279 198.821 531.828V536H197.547V528.328H198.821V529.574ZM206.115 536.126C205.397 536.126 204.743 535.963 204.155 535.636C203.577 535.309 203.119 534.847 202.783 534.25C202.457 533.643 202.293 532.943 202.293 532.15C202.293 531.366 202.461 530.675 202.797 530.078C203.143 529.471 203.609 529.009 204.197 528.692C204.785 528.365 205.443 528.202 206.171 528.202C206.899 528.202 207.557 528.365 208.145 528.692C208.733 529.009 209.195 529.467 209.531 530.064C209.877 530.661 210.049 531.357 210.049 532.15C210.049 532.943 209.872 533.643 209.517 534.25C209.172 534.847 208.701 535.309 208.103 535.636C207.506 535.963 206.843 536.126 206.115 536.126ZM206.115 535.006C206.573 535.006 207.002 534.899 207.403 534.684C207.805 534.469 208.127 534.147 208.369 533.718C208.621 533.289 208.747 532.766 208.747 532.15C208.747 531.534 208.626 531.011 208.383 530.582C208.141 530.153 207.823 529.835 207.431 529.63C207.039 529.415 206.615 529.308 206.157 529.308C205.691 529.308 205.261 529.415 204.869 529.63C204.487 529.835 204.179 530.153 203.945 530.582C203.712 531.011 203.595 531.534 203.595 532.15C203.595 532.775 203.707 533.303 203.931 533.732C204.165 534.161 204.473 534.483 204.855 534.698C205.238 534.903 205.658 535.006 206.115 535.006ZM218.528 528.328V536H217.254V534.866C217.012 535.258 216.671 535.566 216.232 535.79C215.803 536.005 215.327 536.112 214.804 536.112C214.207 536.112 213.67 535.991 213.194 535.748C212.718 535.496 212.34 535.123 212.06 534.628C211.79 534.133 211.654 533.531 211.654 532.822V528.328H212.914V532.654C212.914 533.41 213.106 533.993 213.488 534.404C213.871 534.805 214.394 535.006 215.056 535.006C215.738 535.006 216.274 534.796 216.666 534.376C217.058 533.956 217.254 533.345 217.254 532.542V528.328H218.528ZM221.954 529.756C222.215 529.299 222.598 528.925 223.102 528.636C223.606 528.347 224.18 528.202 224.824 528.202C225.514 528.202 226.135 528.365 226.686 528.692C227.236 529.019 227.67 529.481 227.988 530.078C228.305 530.666 228.464 531.352 228.464 532.136C228.464 532.911 228.305 533.601 227.988 534.208C227.67 534.815 227.232 535.286 226.672 535.622C226.121 535.958 225.505 536.126 224.824 536.126C224.161 536.126 223.578 535.981 223.074 535.692C222.579 535.403 222.206 535.034 221.954 534.586V536H220.68V525.64H221.954V529.756ZM227.162 532.136C227.162 531.557 227.045 531.053 226.812 530.624C226.578 530.195 226.261 529.868 225.86 529.644C225.468 529.42 225.034 529.308 224.558 529.308C224.091 529.308 223.657 529.425 223.256 529.658C222.864 529.882 222.546 530.213 222.304 530.652C222.07 531.081 221.954 531.581 221.954 532.15C221.954 532.729 222.07 533.237 222.304 533.676C222.546 534.105 222.864 534.437 223.256 534.67C223.657 534.894 224.091 535.006 224.558 535.006C225.034 535.006 225.468 534.894 225.86 534.67C226.261 534.437 226.578 534.105 226.812 533.676C227.045 533.237 227.162 532.724 227.162 532.136ZM231.415 525.64V536H230.141V525.64H231.415ZM240.586 531.87C240.586 532.113 240.572 532.369 240.544 532.64H234.412C234.458 533.396 234.715 533.989 235.182 534.418C235.658 534.838 236.232 535.048 236.904 535.048C237.454 535.048 237.912 534.922 238.276 534.67C238.649 534.409 238.91 534.063 239.06 533.634H240.432C240.226 534.371 239.816 534.973 239.2 535.44C238.584 535.897 237.818 536.126 236.904 536.126C236.176 536.126 235.522 535.963 234.944 535.636C234.374 535.309 233.926 534.847 233.6 534.25C233.273 533.643 233.11 532.943 233.11 532.15C233.11 531.357 233.268 530.661 233.586 530.064C233.903 529.467 234.346 529.009 234.916 528.692C235.494 528.365 236.157 528.202 236.904 528.202C237.632 528.202 238.276 528.361 238.836 528.678C239.396 528.995 239.825 529.434 240.124 529.994C240.432 530.545 240.586 531.17 240.586 531.87ZM239.27 531.604C239.27 531.119 239.162 530.703 238.948 530.358C238.733 530.003 238.439 529.737 238.066 529.56C237.702 529.373 237.296 529.28 236.848 529.28C236.204 529.28 235.653 529.485 235.196 529.896C234.748 530.307 234.491 530.876 234.426 531.604H239.27ZM245.524 532.136C245.524 531.352 245.683 530.666 246 530.078C246.317 529.481 246.751 529.019 247.302 528.692C247.862 528.365 248.487 528.202 249.178 528.202C249.775 528.202 250.331 528.342 250.844 528.622C251.357 528.893 251.749 529.252 252.02 529.7V525.64H253.308V536H252.02V534.558C251.768 535.015 251.395 535.393 250.9 535.692C250.405 535.981 249.827 536.126 249.164 536.126C248.483 536.126 247.862 535.958 247.302 535.622C246.751 535.286 246.317 534.815 246 534.208C245.683 533.601 245.524 532.911 245.524 532.136ZM252.02 532.15C252.02 531.571 251.903 531.067 251.67 530.638C251.437 530.209 251.119 529.882 250.718 529.658C250.326 529.425 249.892 529.308 249.416 529.308C248.94 529.308 248.506 529.42 248.114 529.644C247.722 529.868 247.409 530.195 247.176 530.624C246.943 531.053 246.826 531.557 246.826 532.136C246.826 532.724 246.943 533.237 247.176 533.676C247.409 534.105 247.722 534.437 248.114 534.67C248.506 534.894 248.94 535.006 249.416 535.006C249.892 535.006 250.326 534.894 250.718 534.67C251.119 534.437 251.437 534.105 251.67 533.676C251.903 533.237 252.02 532.729 252.02 532.15ZM262.461 531.87C262.461 532.113 262.447 532.369 262.419 532.64H256.287C256.333 533.396 256.59 533.989 257.057 534.418C257.533 534.838 258.107 535.048 258.779 535.048C259.329 535.048 259.787 534.922 260.151 534.67C260.524 534.409 260.785 534.063 260.935 533.634H262.307C262.101 534.371 261.691 534.973 261.075 535.44C260.459 535.897 259.693 536.126 258.779 536.126C258.051 536.126 257.397 535.963 256.819 535.636C256.249 535.309 255.801 534.847 255.475 534.25C255.148 533.643 254.985 532.943 254.985 532.15C254.985 531.357 255.143 530.661 255.461 530.064C255.778 529.467 256.221 529.009 256.791 528.692C257.369 528.365 258.032 528.202 258.779 528.202C259.507 528.202 260.151 528.361 260.711 528.678C261.271 528.995 261.7 529.434 261.999 529.994C262.307 530.545 262.461 531.17 262.461 531.87ZM261.145 531.604C261.145 531.119 261.037 530.703 260.823 530.358C260.608 530.003 260.314 529.737 259.941 529.56C259.577 529.373 259.171 529.28 258.723 529.28C258.079 529.28 257.528 529.485 257.071 529.896C256.623 530.307 256.366 530.876 256.301 531.604H261.145ZM265.696 529.378V533.9C265.696 534.273 265.776 534.539 265.934 534.698C266.093 534.847 266.368 534.922 266.76 534.922H267.698V536H266.55C265.841 536 265.309 535.837 264.954 535.51C264.6 535.183 264.422 534.647 264.422 533.9V529.378H263.428V528.328H264.422V526.396H265.696V528.328H267.698V529.378H265.696ZM276.242 531.87C276.242 532.113 276.228 532.369 276.2 532.64H270.068C270.115 533.396 270.371 533.989 270.838 534.418C271.314 534.838 271.888 535.048 272.56 535.048C273.111 535.048 273.568 534.922 273.932 534.67C274.305 534.409 274.567 534.063 274.716 533.634H276.088C275.883 534.371 275.472 534.973 274.856 535.44C274.24 535.897 273.475 536.126 272.56 536.126C271.832 536.126 271.179 535.963 270.6 535.636C270.031 535.309 269.583 534.847 269.256 534.25C268.929 533.643 268.766 532.943 268.766 532.15C268.766 531.357 268.925 530.661 269.242 530.064C269.559 529.467 270.003 529.009 270.572 528.692C271.151 528.365 271.813 528.202 272.56 528.202C273.288 528.202 273.932 528.361 274.492 528.678C275.052 528.995 275.481 529.434 275.78 529.994C276.088 530.545 276.242 531.17 276.242 531.87ZM274.926 531.604C274.926 531.119 274.819 530.703 274.604 530.358C274.389 530.003 274.095 529.737 273.722 529.56C273.358 529.373 272.952 529.28 272.504 529.28C271.86 529.28 271.309 529.485 270.852 529.896C270.404 530.307 270.147 530.876 270.082 531.604H274.926ZM279.198 529.574C279.422 529.135 279.739 528.795 280.15 528.552C280.57 528.309 281.078 528.188 281.676 528.188V529.504H281.34C279.912 529.504 279.198 530.279 279.198 531.828V536H277.924V528.328H279.198V529.574ZM292.372 528.188C292.97 528.188 293.502 528.314 293.968 528.566C294.435 528.809 294.804 529.177 295.074 529.672C295.345 530.167 295.48 530.769 295.48 531.478V536H294.22V531.66C294.22 530.895 294.029 530.311 293.646 529.91C293.273 529.499 292.764 529.294 292.12 529.294C291.458 529.294 290.93 529.509 290.538 529.938C290.146 530.358 289.95 530.969 289.95 531.772V536H288.69V531.66C288.69 530.895 288.499 530.311 288.116 529.91C287.743 529.499 287.234 529.294 286.59 529.294C285.928 529.294 285.4 529.509 285.008 529.938C284.616 530.358 284.42 530.969 284.42 531.772V536H283.146V528.328H284.42V529.434C284.672 529.033 285.008 528.725 285.428 528.51C285.858 528.295 286.329 528.188 286.842 528.188C287.486 528.188 288.056 528.333 288.55 528.622C289.045 528.911 289.414 529.336 289.656 529.896C289.871 529.355 290.226 528.935 290.72 528.636C291.215 528.337 291.766 528.188 292.372 528.188ZM298.228 527.082C297.986 527.082 297.78 526.998 297.612 526.83C297.444 526.662 297.36 526.457 297.36 526.214C297.36 525.971 297.444 525.766 297.612 525.598C297.78 525.43 297.986 525.346 298.228 525.346C298.462 525.346 298.658 525.43 298.816 525.598C298.984 525.766 299.068 525.971 299.068 526.214C299.068 526.457 298.984 526.662 298.816 526.83C298.658 526.998 298.462 527.082 298.228 527.082ZM298.844 528.328V536H297.57V528.328H298.844ZM304.754 528.188C305.687 528.188 306.443 528.473 307.022 529.042C307.6 529.602 307.89 530.414 307.89 531.478V536H306.63V531.66C306.63 530.895 306.438 530.311 306.056 529.91C305.673 529.499 305.15 529.294 304.488 529.294C303.816 529.294 303.279 529.504 302.878 529.924C302.486 530.344 302.29 530.955 302.29 531.758V536H301.016V528.328H302.29V529.42C302.542 529.028 302.882 528.725 303.312 528.51C303.75 528.295 304.231 528.188 304.754 528.188ZM310.629 527.082C310.386 527.082 310.181 526.998 310.013 526.83C309.845 526.662 309.761 526.457 309.761 526.214C309.761 525.971 309.845 525.766 310.013 525.598C310.181 525.43 310.386 525.346 310.629 525.346C310.862 525.346 311.058 525.43 311.217 525.598C311.385 525.766 311.469 525.971 311.469 526.214C311.469 526.457 311.385 526.662 311.217 526.83C311.058 526.998 310.862 527.082 310.629 527.082ZM311.245 528.328V536H309.971V528.328H311.245ZM317.154 528.188C318.087 528.188 318.843 528.473 319.422 529.042C320.001 529.602 320.29 530.414 320.29 531.478V536H319.03V531.66C319.03 530.895 318.839 530.311 318.456 529.91C318.073 529.499 317.551 529.294 316.888 529.294C316.216 529.294 315.679 529.504 315.278 529.924C314.886 530.344 314.69 530.955 314.69 531.758V536H313.416V528.328H314.69V529.42C314.942 529.028 315.283 528.725 315.712 528.51C316.151 528.295 316.631 528.188 317.154 528.188ZM325.535 528.202C326.198 528.202 326.776 528.347 327.271 528.636C327.775 528.925 328.148 529.289 328.391 529.728V528.328H329.679V536.168C329.679 536.868 329.53 537.489 329.231 538.03C328.932 538.581 328.503 539.01 327.943 539.318C327.392 539.626 326.748 539.78 326.011 539.78C325.003 539.78 324.163 539.542 323.491 539.066C322.819 538.59 322.422 537.941 322.301 537.12H323.561C323.701 537.587 323.99 537.96 324.429 538.24C324.868 538.529 325.395 538.674 326.011 538.674C326.711 538.674 327.28 538.455 327.719 538.016C328.167 537.577 328.391 536.961 328.391 536.168V534.558C328.139 535.006 327.766 535.379 327.271 535.678C326.776 535.977 326.198 536.126 325.535 536.126C324.854 536.126 324.233 535.958 323.673 535.622C323.122 535.286 322.688 534.815 322.371 534.208C322.054 533.601 321.895 532.911 321.895 532.136C321.895 531.352 322.054 530.666 322.371 530.078C322.688 529.481 323.122 529.019 323.673 528.692C324.233 528.365 324.854 528.202 325.535 528.202ZM328.391 532.15C328.391 531.571 328.274 531.067 328.041 530.638C327.808 530.209 327.49 529.882 327.089 529.658C326.697 529.425 326.263 529.308 325.787 529.308C325.311 529.308 324.877 529.42 324.485 529.644C324.093 529.868 323.78 530.195 323.547 530.624C323.314 531.053 323.197 531.557 323.197 532.136C323.197 532.724 323.314 533.237 323.547 533.676C323.78 534.105 324.093 534.437 324.485 534.67C324.877 534.894 325.311 535.006 325.787 535.006C326.263 535.006 326.697 534.894 327.089 534.67C327.49 534.437 327.808 534.105 328.041 533.676C328.274 533.237 328.391 532.729 328.391 532.15ZM37.686 549.328L33.066 560.612H31.75L33.262 556.916L30.168 549.328H31.582L33.99 555.544L36.37 549.328H37.686ZM42.3127 557.126C41.594 557.126 40.9407 556.963 40.3527 556.636C39.774 556.309 39.3167 555.847 38.9807 555.25C38.654 554.643 38.4907 553.943 38.4907 553.15C38.4907 552.366 38.6587 551.675 38.9947 551.078C39.34 550.471 39.8067 550.009 40.3947 549.692C40.9827 549.365 41.6407 549.202 42.3687 549.202C43.0967 549.202 43.7547 549.365 44.3427 549.692C44.9307 550.009 45.3927 550.467 45.7287 551.064C46.074 551.661 46.2467 552.357 46.2467 553.15C46.2467 553.943 46.0693 554.643 45.7147 555.25C45.3693 555.847 44.898 556.309 44.3007 556.636C43.7033 556.963 43.0407 557.126 42.3127 557.126ZM42.3127 556.006C42.77 556.006 43.1993 555.899 43.6007 555.684C44.002 555.469 44.324 555.147 44.5667 554.718C44.8187 554.289 44.9447 553.766 44.9447 553.15C44.9447 552.534 44.8233 552.011 44.5807 551.582C44.338 551.153 44.0207 550.835 43.6287 550.63C43.2367 550.415 42.812 550.308 42.3547 550.308C41.888 550.308 41.4587 550.415 41.0667 550.63C40.684 550.835 40.376 551.153 40.1427 551.582C39.9093 552.011 39.7927 552.534 39.7927 553.15C39.7927 553.775 39.9047 554.303 40.1287 554.732C40.362 555.161 40.67 555.483 41.0527 555.698C41.4353 555.903 41.8553 556.006 42.3127 556.006ZM54.7258 549.328V557H53.4518V555.866C53.2091 556.258 52.8684 556.566 52.4298 556.79C52.0004 557.005 51.5244 557.112 51.0018 557.112C50.4044 557.112 49.8678 556.991 49.3918 556.748C48.9158 556.496 48.5378 556.123 48.2578 555.628C47.9871 555.133 47.8518 554.531 47.8518 553.822V549.328H49.1118V553.654C49.1118 554.41 49.3031 554.993 49.6858 555.404C50.0684 555.805 50.5911 556.006 51.2538 556.006C51.9351 556.006 52.4718 555.796 52.8638 555.376C53.2558 554.956 53.4518 554.345 53.4518 553.542V549.328H54.7258ZM58.1508 550.574C58.3748 550.135 58.6922 549.795 59.1028 549.552C59.5228 549.309 60.0315 549.188 60.6288 549.188V550.504H60.2928C58.8648 550.504 58.1508 551.279 58.1508 552.828V557H56.8768V549.328H58.1508V550.574ZM68.9959 549.202C69.6586 549.202 70.2372 549.347 70.7319 549.636C71.2359 549.925 71.6092 550.289 71.8519 550.728V549.328H73.1399V557.168C73.1399 557.868 72.9906 558.489 72.6919 559.03C72.3932 559.581 71.9639 560.01 71.4039 560.318C70.8532 560.626 70.2092 560.78 69.4719 560.78C68.4639 560.78 67.6239 560.542 66.9519 560.066C66.2799 559.59 65.8832 558.941 65.7619 558.12H67.0219C67.1619 558.587 67.4512 558.96 67.8899 559.24C68.3286 559.529 68.8559 559.674 69.4719 559.674C70.1719 559.674 70.7412 559.455 71.1799 559.016C71.6279 558.577 71.8519 557.961 71.8519 557.168V555.558C71.5999 556.006 71.2266 556.379 70.7319 556.678C70.2372 556.977 69.6586 557.126 68.9959 557.126C68.3146 557.126 67.6939 556.958 67.1339 556.622C66.5832 556.286 66.1492 555.815 65.8319 555.208C65.5146 554.601 65.3559 553.911 65.3559 553.136C65.3559 552.352 65.5146 551.666 65.8319 551.078C66.1492 550.481 66.5832 550.019 67.1339 549.692C67.6939 549.365 68.3146 549.202 68.9959 549.202ZM71.8519 553.15C71.8519 552.571 71.7352 552.067 71.5019 551.638C71.2686 551.209 70.9512 550.882 70.5499 550.658C70.1579 550.425 69.7239 550.308 69.2479 550.308C68.7719 550.308 68.3379 550.42 67.9459 550.644C67.5539 550.868 67.2412 551.195 67.0079 551.624C66.7746 552.053 66.6579 552.557 66.6579 553.136C66.6579 553.724 66.7746 554.237 67.0079 554.676C67.2412 555.105 67.5539 555.437 67.9459 555.67C68.3379 555.894 68.7719 556.006 69.2479 556.006C69.7239 556.006 70.1579 555.894 70.5499 555.67C70.9512 555.437 71.2686 555.105 71.5019 554.676C71.7352 554.237 71.8519 553.729 71.8519 553.15ZM78.6388 557.126C77.9202 557.126 77.2668 556.963 76.6788 556.636C76.1002 556.309 75.6428 555.847 75.3068 555.25C74.9802 554.643 74.8168 553.943 74.8168 553.15C74.8168 552.366 74.9848 551.675 75.3208 551.078C75.6662 550.471 76.1328 550.009 76.7208 549.692C77.3088 549.365 77.9668 549.202 78.6948 549.202C79.4228 549.202 80.0808 549.365 80.6688 549.692C81.2568 550.009 81.7188 550.467 82.0548 551.064C82.4002 551.661 82.5728 552.357 82.5728 553.15C82.5728 553.943 82.3955 554.643 82.0408 555.25C81.6955 555.847 81.2242 556.309 80.6268 556.636C80.0295 556.963 79.3668 557.126 78.6388 557.126ZM78.6388 556.006C79.0962 556.006 79.5255 555.899 79.9268 555.684C80.3282 555.469 80.6502 555.147 80.8928 554.718C81.1448 554.289 81.2708 553.766 81.2708 553.15C81.2708 552.534 81.1495 552.011 80.9068 551.582C80.6642 551.153 80.3468 550.835 79.9548 550.63C79.5628 550.415 79.1382 550.308 78.6808 550.308C78.2142 550.308 77.7848 550.415 77.3928 550.63C77.0102 550.835 76.7022 551.153 76.4688 551.582C76.2355 552.011 76.1188 552.534 76.1188 553.15C76.1188 553.775 76.2308 554.303 76.4548 554.732C76.6882 555.161 76.9962 555.483 77.3788 555.698C77.7615 555.903 78.1815 556.006 78.6388 556.006ZM83.7719 553.136C83.7719 552.352 83.9306 551.666 84.2479 551.078C84.5653 550.481 84.9993 550.019 85.5499 549.692C86.1099 549.365 86.7306 549.202 87.4119 549.202C88.0839 549.202 88.6673 549.347 89.1619 549.636C89.6566 549.925 90.0253 550.289 90.2679 550.728V549.328H91.5559V557H90.2679V555.572C90.0159 556.02 89.6379 556.393 89.1339 556.692C88.6393 556.981 88.0606 557.126 87.3979 557.126C86.7166 557.126 86.1006 556.958 85.5499 556.622C84.9993 556.286 84.5653 555.815 84.2479 555.208C83.9306 554.601 83.7719 553.911 83.7719 553.136ZM90.2679 553.15C90.2679 552.571 90.1513 552.067 89.9179 551.638C89.6846 551.209 89.3673 550.882 88.9659 550.658C88.5739 550.425 88.1399 550.308 87.6639 550.308C87.1879 550.308 86.7539 550.42 86.3619 550.644C85.9699 550.868 85.6573 551.195 85.4239 551.624C85.1906 552.053 85.0739 552.557 85.0739 553.136C85.0739 553.724 85.1906 554.237 85.4239 554.676C85.6573 555.105 85.9699 555.437 86.3619 555.67C86.7539 555.894 87.1879 556.006 87.6639 556.006C88.1399 556.006 88.5739 555.894 88.9659 555.67C89.3673 555.437 89.6846 555.105 89.9179 554.676C90.1513 554.237 90.2679 553.729 90.2679 553.15ZM94.9829 546.64V557H93.7089V546.64H94.9829ZM99.8702 557.126C99.2822 557.126 98.7548 557.028 98.2882 556.832C97.8215 556.627 97.4528 556.347 97.1822 555.992C96.9115 555.628 96.7622 555.213 96.7342 554.746H98.0502C98.0875 555.129 98.2648 555.441 98.5822 555.684C98.9088 555.927 99.3335 556.048 99.8562 556.048C100.342 556.048 100.724 555.941 101.004 555.726C101.284 555.511 101.424 555.241 101.424 554.914C101.424 554.578 101.275 554.331 100.976 554.172C100.678 554.004 100.216 553.841 99.5902 553.682C99.0208 553.533 98.5542 553.383 98.1902 553.234C97.8355 553.075 97.5275 552.847 97.2662 552.548C97.0142 552.24 96.8882 551.839 96.8882 551.344C96.8882 550.952 97.0048 550.593 97.2382 550.266C97.4715 549.939 97.8028 549.683 98.2322 549.496C98.6615 549.3 99.1515 549.202 99.7022 549.202C100.552 549.202 101.238 549.417 101.76 549.846C102.283 550.275 102.563 550.863 102.6 551.61H101.326C101.298 551.209 101.135 550.887 100.836 550.644C100.547 550.401 100.155 550.28 99.6602 550.28C99.2028 550.28 98.8388 550.378 98.5682 550.574C98.2975 550.77 98.1622 551.027 98.1622 551.344C98.1622 551.596 98.2415 551.806 98.4002 551.974C98.5682 552.133 98.7735 552.263 99.0162 552.366C99.2682 552.459 99.6135 552.567 100.052 552.688C100.603 552.837 101.051 552.987 101.396 553.136C101.742 553.276 102.036 553.491 102.278 553.78C102.53 554.069 102.661 554.447 102.67 554.914C102.67 555.334 102.554 555.712 102.32 556.048C102.087 556.384 101.756 556.65 101.326 556.846C100.906 557.033 100.421 557.126 99.8702 557.126ZM105.785 555.236L104.217 559.002H103.363L104.385 555.236H105.785ZM123.24 547.242L120.412 557H118.984L116.716 549.146L114.364 557L112.95 557.014L110.22 547.242H111.578L113.706 555.516L116.058 547.242H117.486L119.726 555.488L121.868 547.242H123.24ZM131.635 552.87C131.635 553.113 131.621 553.369 131.593 553.64H125.461C125.507 554.396 125.764 554.989 126.231 555.418C126.707 555.838 127.281 556.048 127.953 556.048C128.503 556.048 128.961 555.922 129.325 555.67C129.698 555.409 129.959 555.063 130.109 554.634H131.481C131.275 555.371 130.865 555.973 130.249 556.44C129.633 556.897 128.867 557.126 127.953 557.126C127.225 557.126 126.571 556.963 125.993 556.636C125.423 556.309 124.975 555.847 124.649 555.25C124.322 554.643 124.159 553.943 124.159 553.15C124.159 552.357 124.317 551.661 124.635 551.064C124.952 550.467 125.395 550.009 125.965 549.692C126.543 549.365 127.206 549.202 127.953 549.202C128.681 549.202 129.325 549.361 129.885 549.678C130.445 549.995 130.874 550.434 131.173 550.994C131.481 551.545 131.635 552.17 131.635 552.87ZM130.319 552.604C130.319 552.119 130.211 551.703 129.997 551.358C129.782 551.003 129.488 550.737 129.115 550.56C128.751 550.373 128.345 550.28 127.897 550.28C127.253 550.28 126.702 550.485 126.245 550.896C125.797 551.307 125.54 551.876 125.475 552.604H130.319ZM136.573 553.15C136.573 552.357 136.731 551.666 137.049 551.078C137.366 550.481 137.805 550.019 138.365 549.692C138.934 549.365 139.583 549.202 140.311 549.202C141.253 549.202 142.028 549.431 142.635 549.888C143.251 550.345 143.657 550.98 143.853 551.792H142.481C142.35 551.325 142.093 550.957 141.711 550.686C141.337 550.415 140.871 550.28 140.311 550.28C139.583 550.28 138.995 550.532 138.547 551.036C138.099 551.531 137.875 552.235 137.875 553.15C137.875 554.074 138.099 554.788 138.547 555.292C138.995 555.796 139.583 556.048 140.311 556.048C140.871 556.048 141.337 555.917 141.711 555.656C142.084 555.395 142.341 555.021 142.481 554.536H143.853C143.647 555.32 143.237 555.95 142.621 556.426C142.005 556.893 141.235 557.126 140.311 557.126C139.583 557.126 138.934 556.963 138.365 556.636C137.805 556.309 137.366 555.847 137.049 555.25C136.731 554.653 136.573 553.953 136.573 553.15ZM145.077 553.136C145.077 552.352 145.235 551.666 145.553 551.078C145.87 550.481 146.304 550.019 146.855 549.692C147.415 549.365 148.035 549.202 148.717 549.202C149.389 549.202 149.972 549.347 150.467 549.636C150.961 549.925 151.33 550.289 151.573 550.728V549.328H152.861V557H151.573V555.572C151.321 556.02 150.943 556.393 150.439 556.692C149.944 556.981 149.365 557.126 148.703 557.126C148.021 557.126 147.405 556.958 146.855 556.622C146.304 556.286 145.87 555.815 145.553 555.208C145.235 554.601 145.077 553.911 145.077 553.136ZM151.573 553.15C151.573 552.571 151.456 552.067 151.223 551.638C150.989 551.209 150.672 550.882 150.271 550.658C149.879 550.425 149.445 550.308 148.969 550.308C148.493 550.308 148.059 550.42 147.667 550.644C147.275 550.868 146.962 551.195 146.729 551.624C146.495 552.053 146.379 552.557 146.379 553.136C146.379 553.724 146.495 554.237 146.729 554.676C146.962 555.105 147.275 555.437 147.667 555.67C148.059 555.894 148.493 556.006 148.969 556.006C149.445 556.006 149.879 555.894 150.271 555.67C150.672 555.437 150.989 555.105 151.223 554.676C151.456 554.237 151.573 553.729 151.573 553.15ZM158.752 549.188C159.685 549.188 160.441 549.473 161.02 550.042C161.598 550.602 161.888 551.414 161.888 552.478V557H160.628V552.66C160.628 551.895 160.436 551.311 160.054 550.91C159.671 550.499 159.148 550.294 158.486 550.294C157.814 550.294 157.277 550.504 156.876 550.924C156.484 551.344 156.288 551.955 156.288 552.758V557H155.014V549.328H156.288V550.42C156.54 550.028 156.88 549.725 157.31 549.51C157.748 549.295 158.229 549.188 158.752 549.188ZM171.509 549.188C172.088 549.188 172.61 549.314 173.077 549.566C173.544 549.809 173.908 550.177 174.169 550.672C174.44 551.167 174.575 551.769 174.575 552.478V557H173.315V552.66C173.315 551.895 173.124 551.311 172.741 550.91C172.358 550.499 171.836 550.294 171.173 550.294C170.501 550.294 169.964 550.504 169.563 550.924C169.171 551.344 168.975 551.955 168.975 552.758V557H167.701V546.64H168.975V550.42C169.227 550.028 169.572 549.725 170.011 549.51C170.459 549.295 170.958 549.188 171.509 549.188ZM183.656 552.87C183.656 553.113 183.642 553.369 183.614 553.64H177.482C177.529 554.396 177.785 554.989 178.252 555.418C178.728 555.838 179.302 556.048 179.974 556.048C180.525 556.048 180.982 555.922 181.346 555.67C181.719 555.409 181.981 555.063 182.13 554.634H183.502C183.297 555.371 182.886 555.973 182.27 556.44C181.654 556.897 180.889 557.126 179.974 557.126C179.246 557.126 178.593 556.963 178.014 556.636C177.445 556.309 176.997 555.847 176.67 555.25C176.343 554.643 176.18 553.943 176.18 553.15C176.18 552.357 176.339 551.661 176.656 551.064C176.973 550.467 177.417 550.009 177.986 549.692C178.565 549.365 179.227 549.202 179.974 549.202C180.702 549.202 181.346 549.361 181.906 549.678C182.466 549.995 182.895 550.434 183.194 550.994C183.502 551.545 183.656 552.17 183.656 552.87ZM182.34 552.604C182.34 552.119 182.233 551.703 182.018 551.358C181.803 551.003 181.509 550.737 181.136 550.56C180.772 550.373 180.366 550.28 179.918 550.28C179.274 550.28 178.723 550.485 178.266 550.896C177.818 551.307 177.561 551.876 177.496 552.604H182.34ZM186.612 546.64V557H185.338V546.64H186.612ZM190.057 550.742C190.309 550.303 190.682 549.939 191.177 549.65C191.681 549.351 192.264 549.202 192.927 549.202C193.608 549.202 194.224 549.365 194.775 549.692C195.335 550.019 195.774 550.481 196.091 551.078C196.408 551.666 196.567 552.352 196.567 553.136C196.567 553.911 196.408 554.601 196.091 555.208C195.774 555.815 195.335 556.286 194.775 556.622C194.224 556.958 193.608 557.126 192.927 557.126C192.274 557.126 191.695 556.981 191.191 556.692C190.696 556.393 190.318 556.025 190.057 555.586V560.64H188.783V549.328H190.057V550.742ZM195.265 553.136C195.265 552.557 195.148 552.053 194.915 551.624C194.682 551.195 194.364 550.868 193.963 550.644C193.571 550.42 193.137 550.308 192.661 550.308C192.194 550.308 191.76 550.425 191.359 550.658C190.967 550.882 190.65 551.213 190.407 551.652C190.174 552.081 190.057 552.581 190.057 553.15C190.057 553.729 190.174 554.237 190.407 554.676C190.65 555.105 190.967 555.437 191.359 555.67C191.76 555.894 192.194 556.006 192.661 556.006C193.137 556.006 193.571 555.894 193.963 555.67C194.364 555.437 194.682 555.105 194.915 554.676C195.148 554.237 195.265 553.724 195.265 553.136ZM208.584 549.328L203.964 560.612H202.648L204.16 556.916L201.066 549.328H202.48L204.888 555.544L207.268 549.328H208.584ZM213.211 557.126C212.492 557.126 211.839 556.963 211.251 556.636C210.672 556.309 210.215 555.847 209.879 555.25C209.552 554.643 209.389 553.943 209.389 553.15C209.389 552.366 209.557 551.675 209.893 551.078C210.238 550.471 210.705 550.009 211.293 549.692C211.881 549.365 212.539 549.202 213.267 549.202C213.995 549.202 214.653 549.365 215.241 549.692C215.829 550.009 216.291 550.467 216.627 551.064C216.972 551.661 217.145 552.357 217.145 553.15C217.145 553.943 216.968 554.643 216.613 555.25C216.268 555.847 215.796 556.309 215.199 556.636C214.602 556.963 213.939 557.126 213.211 557.126ZM213.211 556.006C213.668 556.006 214.098 555.899 214.499 555.684C214.9 555.469 215.222 555.147 215.465 554.718C215.717 554.289 215.843 553.766 215.843 553.15C215.843 552.534 215.722 552.011 215.479 551.582C215.236 551.153 214.919 550.835 214.527 550.63C214.135 550.415 213.71 550.308 213.253 550.308C212.786 550.308 212.357 550.415 211.965 550.63C211.582 550.835 211.274 551.153 211.041 551.582C210.808 552.011 210.691 552.534 210.691 553.15C210.691 553.775 210.803 554.303 211.027 554.732C211.26 555.161 211.568 555.483 211.951 555.698C212.334 555.903 212.754 556.006 213.211 556.006ZM225.624 549.328V557H224.35V555.866C224.108 556.258 223.767 556.566 223.328 556.79C222.899 557.005 222.423 557.112 221.9 557.112C221.303 557.112 220.766 556.991 220.29 556.748C219.814 556.496 219.436 556.123 219.156 555.628C218.886 555.133 218.75 554.531 218.75 553.822V549.328H220.01V553.654C220.01 554.41 220.202 554.993 220.584 555.404C220.967 555.805 221.49 556.006 222.152 556.006C222.834 556.006 223.37 555.796 223.762 555.376C224.154 554.956 224.35 554.345 224.35 553.542V549.328H225.624ZM231.032 553.136C231.032 552.352 231.19 551.666 231.508 551.078C231.825 550.481 232.259 550.019 232.81 549.692C233.37 549.365 233.995 549.202 234.686 549.202C235.283 549.202 235.838 549.342 236.352 549.622C236.865 549.893 237.257 550.252 237.528 550.7V546.64H238.816V557H237.528V555.558C237.276 556.015 236.902 556.393 236.408 556.692C235.913 556.981 235.334 557.126 234.672 557.126C233.99 557.126 233.37 556.958 232.81 556.622C232.259 556.286 231.825 555.815 231.508 555.208C231.19 554.601 231.032 553.911 231.032 553.136ZM237.528 553.15C237.528 552.571 237.411 552.067 237.178 551.638C236.944 551.209 236.627 550.882 236.226 550.658C235.834 550.425 235.4 550.308 234.924 550.308C234.448 550.308 234.014 550.42 233.622 550.644C233.23 550.868 232.917 551.195 232.684 551.624C232.45 552.053 232.334 552.557 232.334 553.136C232.334 553.724 232.45 554.237 232.684 554.676C232.917 555.105 233.23 555.437 233.622 555.67C234.014 555.894 234.448 556.006 234.924 556.006C235.4 556.006 235.834 555.894 236.226 555.67C236.627 555.437 236.944 555.105 237.178 554.676C237.411 554.237 237.528 553.729 237.528 553.15ZM247.969 552.87C247.969 553.113 247.955 553.369 247.927 553.64H241.795C241.841 554.396 242.098 554.989 242.565 555.418C243.041 555.838 243.615 556.048 244.287 556.048C244.837 556.048 245.295 555.922 245.659 555.67C246.032 555.409 246.293 555.063 246.443 554.634H247.815C247.609 555.371 247.199 555.973 246.583 556.44C245.967 556.897 245.201 557.126 244.287 557.126C243.559 557.126 242.905 556.963 242.327 556.636C241.757 556.309 241.309 555.847 240.983 555.25C240.656 554.643 240.493 553.943 240.493 553.15C240.493 552.357 240.651 551.661 240.969 551.064C241.286 550.467 241.729 550.009 242.299 549.692C242.877 549.365 243.54 549.202 244.287 549.202C245.015 549.202 245.659 549.361 246.219 549.678C246.779 549.995 247.208 550.434 247.507 550.994C247.815 551.545 247.969 552.17 247.969 552.87ZM246.653 552.604C246.653 552.119 246.545 551.703 246.331 551.358C246.116 551.003 245.822 550.737 245.449 550.56C245.085 550.373 244.679 550.28 244.231 550.28C243.587 550.28 243.036 550.485 242.579 550.896C242.131 551.307 241.874 551.876 241.809 552.604H246.653ZM251.204 550.378V554.9C251.204 555.273 251.284 555.539 251.442 555.698C251.601 555.847 251.876 555.922 252.268 555.922H253.206V557H252.058C251.349 557 250.817 556.837 250.462 556.51C250.108 556.183 249.93 555.647 249.93 554.9V550.378H248.936V549.328H249.93V547.396H251.204V549.328H253.206V550.378H251.204ZM261.75 552.87C261.75 553.113 261.736 553.369 261.708 553.64H255.576C255.623 554.396 255.879 554.989 256.346 555.418C256.822 555.838 257.396 556.048 258.068 556.048C258.619 556.048 259.076 555.922 259.44 555.67C259.813 555.409 260.075 555.063 260.224 554.634H261.596C261.391 555.371 260.98 555.973 260.364 556.44C259.748 556.897 258.983 557.126 258.068 557.126C257.34 557.126 256.687 556.963 256.108 556.636C255.539 556.309 255.091 555.847 254.764 555.25C254.437 554.643 254.274 553.943 254.274 553.15C254.274 552.357 254.433 551.661 254.75 551.064C255.067 550.467 255.511 550.009 256.08 549.692C256.659 549.365 257.321 549.202 258.068 549.202C258.796 549.202 259.44 549.361 260 549.678C260.56 549.995 260.989 550.434 261.288 550.994C261.596 551.545 261.75 552.17 261.75 552.87ZM260.434 552.604C260.434 552.119 260.327 551.703 260.112 551.358C259.897 551.003 259.603 550.737 259.23 550.56C258.866 550.373 258.46 550.28 258.012 550.28C257.368 550.28 256.817 550.485 256.36 550.896C255.912 551.307 255.655 551.876 255.59 552.604H260.434ZM264.706 550.574C264.93 550.135 265.247 549.795 265.658 549.552C266.078 549.309 266.586 549.188 267.184 549.188V550.504H266.848C265.42 550.504 264.706 551.279 264.706 552.828V557H263.432V549.328H264.706V550.574ZM277.88 549.188C278.478 549.188 279.01 549.314 279.476 549.566C279.943 549.809 280.312 550.177 280.582 550.672C280.853 551.167 280.988 551.769 280.988 552.478V557H279.728V552.66C279.728 551.895 279.537 551.311 279.154 550.91C278.781 550.499 278.272 550.294 277.628 550.294C276.966 550.294 276.438 550.509 276.046 550.938C275.654 551.358 275.458 551.969 275.458 552.772V557H274.198V552.66C274.198 551.895 274.007 551.311 273.624 550.91C273.251 550.499 272.742 550.294 272.098 550.294C271.436 550.294 270.908 550.509 270.516 550.938C270.124 551.358 269.928 551.969 269.928 552.772V557H268.654V549.328H269.928V550.434C270.18 550.033 270.516 549.725 270.936 549.51C271.366 549.295 271.837 549.188 272.35 549.188C272.994 549.188 273.564 549.333 274.058 549.622C274.553 549.911 274.922 550.336 275.164 550.896C275.379 550.355 275.734 549.935 276.228 549.636C276.723 549.337 277.274 549.188 277.88 549.188ZM283.736 548.082C283.493 548.082 283.288 547.998 283.12 547.83C282.952 547.662 282.868 547.457 282.868 547.214C282.868 546.971 282.952 546.766 283.12 546.598C283.288 546.43 283.493 546.346 283.736 546.346C283.969 546.346 284.165 546.43 284.324 546.598C284.492 546.766 284.576 546.971 284.576 547.214C284.576 547.457 284.492 547.662 284.324 547.83C284.165 547.998 283.969 548.082 283.736 548.082ZM284.352 549.328V557H283.078V549.328H284.352ZM290.261 549.188C291.195 549.188 291.951 549.473 292.529 550.042C293.108 550.602 293.397 551.414 293.397 552.478V557H292.137V552.66C292.137 551.895 291.946 551.311 291.563 550.91C291.181 550.499 290.658 550.294 289.995 550.294C289.323 550.294 288.787 550.504 288.385 550.924C287.993 551.344 287.797 551.955 287.797 552.758V557H286.523V549.328H287.797V550.42C288.049 550.028 288.39 549.725 288.819 549.51C289.258 549.295 289.739 549.188 290.261 549.188ZM302.478 552.87C302.478 553.113 302.464 553.369 302.436 553.64H296.304C296.351 554.396 296.608 554.989 297.074 555.418C297.55 555.838 298.124 556.048 298.796 556.048C299.347 556.048 299.804 555.922 300.168 555.67C300.542 555.409 300.803 555.063 300.952 554.634H302.324C302.119 555.371 301.708 555.973 301.092 556.44C300.476 556.897 299.711 557.126 298.796 557.126C298.068 557.126 297.415 556.963 296.836 556.636C296.267 556.309 295.819 555.847 295.492 555.25C295.166 554.643 295.002 553.943 295.002 553.15C295.002 552.357 295.161 551.661 295.478 551.064C295.796 550.467 296.239 550.009 296.808 549.692C297.387 549.365 298.05 549.202 298.796 549.202C299.524 549.202 300.168 549.361 300.728 549.678C301.288 549.995 301.718 550.434 302.016 550.994C302.324 551.545 302.478 552.17 302.478 552.87ZM301.162 552.604C301.162 552.119 301.055 551.703 300.84 551.358C300.626 551.003 300.332 550.737 299.958 550.56C299.594 550.373 299.188 550.28 298.74 550.28C298.096 550.28 297.546 550.485 297.088 550.896C296.64 551.307 296.384 551.876 296.318 552.604H301.162ZM314.5 549.328L309.88 560.612H308.564L310.076 556.916L306.982 549.328H308.396L310.804 555.544L313.184 549.328H314.5ZM319.127 557.126C318.408 557.126 317.755 556.963 317.167 556.636C316.588 556.309 316.131 555.847 315.795 555.25C315.468 554.643 315.305 553.943 315.305 553.15C315.305 552.366 315.473 551.675 315.809 551.078C316.154 550.471 316.621 550.009 317.209 549.692C317.797 549.365 318.455 549.202 319.183 549.202C319.911 549.202 320.569 549.365 321.157 549.692C321.745 550.009 322.207 550.467 322.543 551.064C322.888 551.661 323.061 552.357 323.061 553.15C323.061 553.943 322.884 554.643 322.529 555.25C322.184 555.847 321.712 556.309 321.115 556.636C320.518 556.963 319.855 557.126 319.127 557.126ZM319.127 556.006C319.584 556.006 320.014 555.899 320.415 555.684C320.816 555.469 321.138 555.147 321.381 554.718C321.633 554.289 321.759 553.766 321.759 553.15C321.759 552.534 321.638 552.011 321.395 551.582C321.152 551.153 320.835 550.835 320.443 550.63C320.051 550.415 319.626 550.308 319.169 550.308C318.702 550.308 318.273 550.415 317.881 550.63C317.498 550.835 317.19 551.153 316.957 551.582C316.724 552.011 316.607 552.534 316.607 553.15C316.607 553.775 316.719 554.303 316.943 554.732C317.176 555.161 317.484 555.483 317.867 555.698C318.25 555.903 318.67 556.006 319.127 556.006ZM331.54 549.328V557H330.266V555.866C330.024 556.258 329.683 556.566 329.244 556.79C328.815 557.005 328.339 557.112 327.816 557.112C327.219 557.112 326.682 556.991 326.206 556.748C325.73 556.496 325.352 556.123 325.072 555.628C324.802 555.133 324.666 554.531 324.666 553.822V549.328H325.926V553.654C325.926 554.41 326.118 554.993 326.5 555.404C326.883 555.805 327.406 556.006 328.068 556.006C328.75 556.006 329.286 555.796 329.678 555.376C330.07 554.956 330.266 554.345 330.266 553.542V549.328H331.54ZM334.965 550.574C335.189 550.135 335.507 549.795 335.917 549.552C336.337 549.309 336.846 549.188 337.443 549.188V550.504H337.107C335.679 550.504 334.965 551.279 334.965 552.828V557H333.691V549.328H334.965V550.574ZM34.242 570.202C34.9047 570.202 35.4833 570.347 35.978 570.636C36.482 570.925 36.8553 571.289 37.098 571.728V570.328H38.386V578.168C38.386 578.868 38.2367 579.489 37.938 580.03C37.6393 580.581 37.21 581.01 36.65 581.318C36.0993 581.626 35.4553 581.78 34.718 581.78C33.71 581.78 32.87 581.542 32.198 581.066C31.526 580.59 31.1293 579.941 31.008 579.12H32.268C32.408 579.587 32.6973 579.96 33.136 580.24C33.5747 580.529 34.102 580.674 34.718 580.674C35.418 580.674 35.9873 580.455 36.426 580.016C36.874 579.577 37.098 578.961 37.098 578.168V576.558C36.846 577.006 36.4727 577.379 35.978 577.678C35.4833 577.977 34.9047 578.126 34.242 578.126C33.5607 578.126 32.94 577.958 32.38 577.622C31.8293 577.286 31.3953 576.815 31.078 576.208C30.7607 575.601 30.602 574.911 30.602 574.136C30.602 573.352 30.7607 572.666 31.078 572.078C31.3953 571.481 31.8293 571.019 32.38 570.692C32.94 570.365 33.5607 570.202 34.242 570.202ZM37.098 574.15C37.098 573.571 36.9813 573.067 36.748 572.638C36.5147 572.209 36.1973 571.882 35.796 571.658C35.404 571.425 34.97 571.308 34.494 571.308C34.018 571.308 33.584 571.42 33.192 571.644C32.8 571.868 32.4873 572.195 32.254 572.624C32.0207 573.053 31.904 573.557 31.904 574.136C31.904 574.724 32.0207 575.237 32.254 575.676C32.4873 576.105 32.8 576.437 33.192 576.67C33.584 576.894 34.018 577.006 34.494 577.006C34.97 577.006 35.404 576.894 35.796 576.67C36.1973 576.437 36.5147 576.105 36.748 575.676C36.9813 575.237 37.098 574.729 37.098 574.15ZM43.8849 578.126C43.1663 578.126 42.5129 577.963 41.9249 577.636C41.3463 577.309 40.8889 576.847 40.5529 576.25C40.2263 575.643 40.0629 574.943 40.0629 574.15C40.0629 573.366 40.2309 572.675 40.5669 572.078C40.9123 571.471 41.3789 571.009 41.9669 570.692C42.5549 570.365 43.2129 570.202 43.9409 570.202C44.6689 570.202 45.3269 570.365 45.9149 570.692C46.5029 571.009 46.9649 571.467 47.3009 572.064C47.6463 572.661 47.8189 573.357 47.8189 574.15C47.8189 574.943 47.6416 575.643 47.2869 576.25C46.9416 576.847 46.4703 577.309 45.8729 577.636C45.2756 577.963 44.6129 578.126 43.8849 578.126ZM43.8849 577.006C44.3423 577.006 44.7716 576.899 45.1729 576.684C45.5743 576.469 45.8963 576.147 46.1389 575.718C46.3909 575.289 46.5169 574.766 46.5169 574.15C46.5169 573.534 46.3956 573.011 46.1529 572.582C45.9103 572.153 45.5929 571.835 45.2009 571.63C44.8089 571.415 44.3843 571.308 43.9269 571.308C43.4603 571.308 43.0309 571.415 42.6389 571.63C42.2563 571.835 41.9483 572.153 41.7149 572.582C41.4816 573.011 41.3649 573.534 41.3649 574.15C41.3649 574.775 41.4769 575.303 41.7009 575.732C41.9343 576.161 42.2423 576.483 42.6249 576.698C43.0076 576.903 43.4276 577.006 43.8849 577.006ZM49.018 574.136C49.018 573.352 49.1767 572.666 49.494 572.078C49.8113 571.481 50.2453 571.019 50.796 570.692C51.356 570.365 51.9767 570.202 52.658 570.202C53.33 570.202 53.9133 570.347 54.408 570.636C54.9027 570.925 55.2713 571.289 55.514 571.728V570.328H56.802V578H55.514V576.572C55.262 577.02 54.884 577.393 54.38 577.692C53.8853 577.981 53.3067 578.126 52.644 578.126C51.9627 578.126 51.3467 577.958 50.796 577.622C50.2453 577.286 49.8113 576.815 49.494 576.208C49.1767 575.601 49.018 574.911 49.018 574.136ZM55.514 574.15C55.514 573.571 55.3973 573.067 55.164 572.638C54.9307 572.209 54.6133 571.882 54.212 571.658C53.82 571.425 53.386 571.308 52.91 571.308C52.434 571.308 52 571.42 51.608 571.644C51.216 571.868 50.9033 572.195 50.67 572.624C50.4367 573.053 50.32 573.557 50.32 574.136C50.32 574.724 50.4367 575.237 50.67 575.676C50.9033 576.105 51.216 576.437 51.608 576.67C52 576.894 52.434 577.006 52.91 577.006C53.386 577.006 53.82 576.894 54.212 576.67C54.6133 576.437 54.9307 576.105 55.164 575.676C55.3973 575.237 55.514 574.729 55.514 574.15ZM60.229 567.64V578H58.955V567.64H60.229ZM65.1163 578.126C64.5283 578.126 64.0009 578.028 63.5343 577.832C63.0676 577.627 62.6989 577.347 62.4283 576.992C62.1576 576.628 62.0083 576.213 61.9803 575.746H63.2963C63.3336 576.129 63.5109 576.441 63.8283 576.684C64.1549 576.927 64.5796 577.048 65.1023 577.048C65.5876 577.048 65.9703 576.941 66.2503 576.726C66.5303 576.511 66.6703 576.241 66.6703 575.914C66.6703 575.578 66.5209 575.331 66.2223 575.172C65.9236 575.004 65.4616 574.841 64.8363 574.682C64.2669 574.533 63.8003 574.383 63.4363 574.234C63.0816 574.075 62.7736 573.847 62.5123 573.548C62.2603 573.24 62.1343 572.839 62.1343 572.344C62.1343 571.952 62.2509 571.593 62.4843 571.266C62.7176 570.939 63.0489 570.683 63.4783 570.496C63.9076 570.3 64.3976 570.202 64.9483 570.202C65.7976 570.202 66.4836 570.417 67.0063 570.846C67.5289 571.275 67.8089 571.863 67.8463 572.61H66.5723C66.5443 572.209 66.3809 571.887 66.0823 571.644C65.7929 571.401 65.4009 571.28 64.9063 571.28C64.4489 571.28 64.0849 571.378 63.8143 571.574C63.5436 571.77 63.4083 572.027 63.4083 572.344C63.4083 572.596 63.4876 572.806 63.6463 572.974C63.8143 573.133 64.0196 573.263 64.2623 573.366C64.5143 573.459 64.8596 573.567 65.2983 573.688C65.8489 573.837 66.2969 573.987 66.6423 574.136C66.9876 574.276 67.2816 574.491 67.5243 574.78C67.7763 575.069 67.9069 575.447 67.9163 575.914C67.9163 576.334 67.7996 576.712 67.5663 577.048C67.3329 577.384 67.0016 577.65 66.5723 577.846C66.1523 578.033 65.6669 578.126 65.1163 578.126ZM72.9711 574.136C72.9711 573.352 73.1298 572.666 73.4471 572.078C73.7645 571.481 74.1985 571.019 74.7491 570.692C75.3091 570.365 75.9298 570.202 76.6111 570.202C77.2831 570.202 77.8665 570.347 78.3611 570.636C78.8558 570.925 79.2245 571.289 79.4671 571.728V570.328H80.7551V578H79.4671V576.572C79.2151 577.02 78.8371 577.393 78.3331 577.692C77.8385 577.981 77.2598 578.126 76.5971 578.126C75.9158 578.126 75.2998 577.958 74.7491 577.622C74.1985 577.286 73.7645 576.815 73.4471 576.208C73.1298 575.601 72.9711 574.911 72.9711 574.136ZM79.4671 574.15C79.4671 573.571 79.3505 573.067 79.1171 572.638C78.8838 572.209 78.5665 571.882 78.1651 571.658C77.7731 571.425 77.3391 571.308 76.8631 571.308C76.3871 571.308 75.9531 571.42 75.5611 571.644C75.1691 571.868 74.8565 572.195 74.6231 572.624C74.3898 573.053 74.2731 573.557 74.2731 574.136C74.2731 574.724 74.3898 575.237 74.6231 575.676C74.8565 576.105 75.1691 576.437 75.5611 576.67C75.9531 576.894 76.3871 577.006 76.8631 577.006C77.3391 577.006 77.7731 576.894 78.1651 576.67C78.5665 576.437 78.8838 576.105 79.1171 575.676C79.3505 575.237 79.4671 574.729 79.4671 574.15ZM86.6461 570.188C87.5794 570.188 88.3354 570.473 88.9141 571.042C89.4927 571.602 89.7821 572.414 89.7821 573.478V578H88.5221V573.66C88.5221 572.895 88.3307 572.311 87.9481 571.91C87.5654 571.499 87.0427 571.294 86.3801 571.294C85.7081 571.294 85.1714 571.504 84.7701 571.924C84.3781 572.344 84.1821 572.955 84.1821 573.758V578H82.9081V570.328H84.1821V571.42C84.4341 571.028 84.7747 570.725 85.2041 570.51C85.6427 570.295 86.1234 570.188 86.6461 570.188ZM91.3872 574.136C91.3872 573.352 91.5458 572.666 91.8632 572.078C92.1805 571.481 92.6145 571.019 93.1652 570.692C93.7252 570.365 94.3505 570.202 95.0412 570.202C95.6385 570.202 96.1938 570.342 96.7072 570.622C97.2205 570.893 97.6125 571.252 97.8832 571.7V567.64H99.1712V578H97.8832V576.558C97.6312 577.015 97.2578 577.393 96.7632 577.692C96.2685 577.981 95.6898 578.126 95.0272 578.126C94.3458 578.126 93.7252 577.958 93.1652 577.622C92.6145 577.286 92.1805 576.815 91.8632 576.208C91.5458 575.601 91.3872 574.911 91.3872 574.136ZM97.8832 574.15C97.8832 573.571 97.7665 573.067 97.5332 572.638C97.2998 572.209 96.9825 571.882 96.5812 571.658C96.1892 571.425 95.7552 571.308 95.2792 571.308C94.8032 571.308 94.3692 571.42 93.9772 571.644C93.5852 571.868 93.2725 572.195 93.0392 572.624C92.8058 573.053 92.6892 573.557 92.6892 574.136C92.6892 574.724 92.8058 575.237 93.0392 575.676C93.2725 576.105 93.5852 576.437 93.9772 576.67C94.3692 576.894 94.8032 577.006 95.2792 577.006C95.7552 577.006 96.1892 576.894 96.5812 576.67C96.9825 576.437 97.2998 576.105 97.5332 575.676C97.7665 575.237 97.8832 574.729 97.8832 574.15ZM106.611 571.378V575.9C106.611 576.273 106.69 576.539 106.849 576.698C107.007 576.847 107.283 576.922 107.675 576.922H108.613V578H107.465C106.755 578 106.223 577.837 105.869 577.51C105.514 577.183 105.337 576.647 105.337 575.9V571.378H104.343V570.328H105.337V568.396H106.611V570.328H108.613V571.378H106.611ZM111.43 571.574C111.654 571.135 111.971 570.795 112.382 570.552C112.802 570.309 113.311 570.188 113.908 570.188V571.504H113.572C112.144 571.504 111.43 572.279 111.43 573.828V578H110.156V570.328H111.43V571.574ZM114.903 574.136C114.903 573.352 115.061 572.666 115.379 572.078C115.696 571.481 116.13 571.019 116.681 570.692C117.241 570.365 117.861 570.202 118.543 570.202C119.215 570.202 119.798 570.347 120.293 570.636C120.787 570.925 121.156 571.289 121.399 571.728V570.328H122.687V578H121.399V576.572C121.147 577.02 120.769 577.393 120.265 577.692C119.77 577.981 119.191 578.126 118.529 578.126C117.847 578.126 117.231 577.958 116.681 577.622C116.13 577.286 115.696 576.815 115.379 576.208C115.061 575.601 114.903 574.911 114.903 574.136ZM121.399 574.15C121.399 573.571 121.282 573.067 121.049 572.638C120.815 572.209 120.498 571.882 120.097 571.658C119.705 571.425 119.271 571.308 118.795 571.308C118.319 571.308 117.885 571.42 117.493 571.644C117.101 571.868 116.788 572.195 116.555 572.624C116.321 573.053 116.205 573.557 116.205 574.136C116.205 574.724 116.321 575.237 116.555 575.676C116.788 576.105 117.101 576.437 117.493 576.67C117.885 576.894 118.319 577.006 118.795 577.006C119.271 577.006 119.705 576.894 120.097 576.67C120.498 576.437 120.815 576.105 121.049 575.676C121.282 575.237 121.399 574.729 121.399 574.15ZM124.364 574.15C124.364 573.357 124.522 572.666 124.84 572.078C125.157 571.481 125.596 571.019 126.156 570.692C126.725 570.365 127.374 570.202 128.102 570.202C129.044 570.202 129.819 570.431 130.426 570.888C131.042 571.345 131.448 571.98 131.644 572.792H130.272C130.141 572.325 129.884 571.957 129.502 571.686C129.128 571.415 128.662 571.28 128.102 571.28C127.374 571.28 126.786 571.532 126.338 572.036C125.89 572.531 125.666 573.235 125.666 574.15C125.666 575.074 125.89 575.788 126.338 576.292C126.786 576.796 127.374 577.048 128.102 577.048C128.662 577.048 129.128 576.917 129.502 576.656C129.875 576.395 130.132 576.021 130.272 575.536H131.644C131.438 576.32 131.028 576.95 130.412 577.426C129.796 577.893 129.026 578.126 128.102 578.126C127.374 578.126 126.725 577.963 126.156 577.636C125.596 577.309 125.157 576.847 124.84 576.25C124.522 575.653 124.364 574.953 124.364 574.15ZM137.628 578L134.618 574.612V578H133.344V567.64H134.618V573.73L137.572 570.328H139.35L135.738 574.15L139.364 578H137.628ZM150.889 570.328L146.269 581.612H144.953L146.465 577.916L143.371 570.328H144.785L147.193 576.544L149.573 570.328H150.889ZM155.516 578.126C154.797 578.126 154.144 577.963 153.556 577.636C152.977 577.309 152.52 576.847 152.184 576.25C151.857 575.643 151.694 574.943 151.694 574.15C151.694 573.366 151.862 572.675 152.198 572.078C152.543 571.471 153.01 571.009 153.598 570.692C154.186 570.365 154.844 570.202 155.572 570.202C156.3 570.202 156.958 570.365 157.546 570.692C158.134 571.009 158.596 571.467 158.932 572.064C159.277 572.661 159.45 573.357 159.45 574.15C159.45 574.943 159.272 575.643 158.918 576.25C158.572 576.847 158.101 577.309 157.504 577.636C156.906 577.963 156.244 578.126 155.516 578.126ZM155.516 577.006C155.973 577.006 156.402 576.899 156.804 576.684C157.205 576.469 157.527 576.147 157.77 575.718C158.022 575.289 158.148 574.766 158.148 574.15C158.148 573.534 158.026 573.011 157.784 572.582C157.541 572.153 157.224 571.835 156.832 571.63C156.44 571.415 156.015 571.308 155.558 571.308C155.091 571.308 154.662 571.415 154.27 571.63C153.887 571.835 153.579 572.153 153.346 572.582C153.112 573.011 152.996 573.534 152.996 574.15C152.996 574.775 153.108 575.303 153.332 575.732C153.565 576.161 153.873 576.483 154.256 576.698C154.638 576.903 155.058 577.006 155.516 577.006ZM167.929 570.328V578H166.655V576.866C166.412 577.258 166.072 577.566 165.633 577.79C165.204 578.005 164.728 578.112 164.205 578.112C163.608 578.112 163.071 577.991 162.595 577.748C162.119 577.496 161.741 577.123 161.461 576.628C161.19 576.133 161.055 575.531 161.055 574.822V570.328H162.315V574.654C162.315 575.41 162.506 575.993 162.889 576.404C163.272 576.805 163.794 577.006 164.457 577.006C165.138 577.006 165.675 576.796 166.067 576.376C166.459 575.956 166.655 575.345 166.655 574.542V570.328H167.929ZM171.354 571.574C171.578 571.135 171.895 570.795 172.306 570.552C172.726 570.309 173.235 570.188 173.832 570.188V571.504H173.496C172.068 571.504 171.354 572.279 171.354 573.828V578H170.08V570.328H171.354V571.574ZM182.199 570.202C182.862 570.202 183.44 570.347 183.935 570.636C184.439 570.925 184.812 571.289 185.055 571.728V570.328H186.343V578.168C186.343 578.868 186.194 579.489 185.895 580.03C185.596 580.581 185.167 581.01 184.607 581.318C184.056 581.626 183.412 581.78 182.675 581.78C181.667 581.78 180.827 581.542 180.155 581.066C179.483 580.59 179.086 579.941 178.965 579.12H180.225C180.365 579.587 180.654 579.96 181.093 580.24C181.532 580.529 182.059 580.674 182.675 580.674C183.375 580.674 183.944 580.455 184.383 580.016C184.831 579.577 185.055 578.961 185.055 578.168V576.558C184.803 577.006 184.43 577.379 183.935 577.678C183.44 577.977 182.862 578.126 182.199 578.126C181.518 578.126 180.897 577.958 180.337 577.622C179.786 577.286 179.352 576.815 179.035 576.208C178.718 575.601 178.559 574.911 178.559 574.136C178.559 573.352 178.718 572.666 179.035 572.078C179.352 571.481 179.786 571.019 180.337 570.692C180.897 570.365 181.518 570.202 182.199 570.202ZM185.055 574.15C185.055 573.571 184.938 573.067 184.705 572.638C184.472 572.209 184.154 571.882 183.753 571.658C183.361 571.425 182.927 571.308 182.451 571.308C181.975 571.308 181.541 571.42 181.149 571.644C180.757 571.868 180.444 572.195 180.211 572.624C179.978 573.053 179.861 573.557 179.861 574.136C179.861 574.724 179.978 575.237 180.211 575.676C180.444 576.105 180.757 576.437 181.149 576.67C181.541 576.894 181.975 577.006 182.451 577.006C182.927 577.006 183.361 576.894 183.753 576.67C184.154 576.437 184.472 576.105 184.705 575.676C184.938 575.237 185.055 574.729 185.055 574.15ZM191.842 578.126C191.123 578.126 190.47 577.963 189.882 577.636C189.303 577.309 188.846 576.847 188.51 576.25C188.183 575.643 188.02 574.943 188.02 574.15C188.02 573.366 188.188 572.675 188.524 572.078C188.869 571.471 189.336 571.009 189.924 570.692C190.512 570.365 191.17 570.202 191.898 570.202C192.626 570.202 193.284 570.365 193.872 570.692C194.46 571.009 194.922 571.467 195.258 572.064C195.603 572.661 195.776 573.357 195.776 574.15C195.776 574.943 195.599 575.643 195.244 576.25C194.899 576.847 194.427 577.309 193.83 577.636C193.233 577.963 192.57 578.126 191.842 578.126ZM191.842 577.006C192.299 577.006 192.729 576.899 193.13 576.684C193.531 576.469 193.853 576.147 194.096 575.718C194.348 575.289 194.474 574.766 194.474 574.15C194.474 573.534 194.353 573.011 194.11 572.582C193.867 572.153 193.55 571.835 193.158 571.63C192.766 571.415 192.341 571.308 191.884 571.308C191.417 571.308 190.988 571.415 190.596 571.63C190.213 571.835 189.905 572.153 189.672 572.582C189.439 573.011 189.322 573.534 189.322 574.15C189.322 574.775 189.434 575.303 189.658 575.732C189.891 576.161 190.199 576.483 190.582 576.698C190.965 576.903 191.385 577.006 191.842 577.006ZM196.975 574.136C196.975 573.352 197.134 572.666 197.451 572.078C197.768 571.481 198.202 571.019 198.753 570.692C199.313 570.365 199.934 570.202 200.615 570.202C201.287 570.202 201.87 570.347 202.365 570.636C202.86 570.925 203.228 571.289 203.471 571.728V570.328H204.759V578H203.471V576.572C203.219 577.02 202.841 577.393 202.337 577.692C201.842 577.981 201.264 578.126 200.601 578.126C199.92 578.126 199.304 577.958 198.753 577.622C198.202 577.286 197.768 576.815 197.451 576.208C197.134 575.601 196.975 574.911 196.975 574.136ZM203.471 574.15C203.471 573.571 203.354 573.067 203.121 572.638C202.888 572.209 202.57 571.882 202.169 571.658C201.777 571.425 201.343 571.308 200.867 571.308C200.391 571.308 199.957 571.42 199.565 571.644C199.173 571.868 198.86 572.195 198.627 572.624C198.394 573.053 198.277 573.557 198.277 574.136C198.277 574.724 198.394 575.237 198.627 575.676C198.86 576.105 199.173 576.437 199.565 576.67C199.957 576.894 200.391 577.006 200.867 577.006C201.343 577.006 201.777 576.894 202.169 576.67C202.57 576.437 202.888 576.105 203.121 575.676C203.354 575.237 203.471 574.729 203.471 574.15ZM208.186 567.64V578H206.912V567.64H208.186ZM213.073 578.126C212.485 578.126 211.958 578.028 211.491 577.832C211.025 577.627 210.656 577.347 210.385 576.992C210.115 576.628 209.965 576.213 209.937 575.746H211.253C211.291 576.129 211.468 576.441 211.785 576.684C212.112 576.927 212.537 577.048 213.059 577.048C213.545 577.048 213.927 576.941 214.207 576.726C214.487 576.511 214.627 576.241 214.627 575.914C214.627 575.578 214.478 575.331 214.179 575.172C213.881 575.004 213.419 574.841 212.793 574.682C212.224 574.533 211.757 574.383 211.393 574.234C211.039 574.075 210.731 573.847 210.469 573.548C210.217 573.24 210.091 572.839 210.091 572.344C210.091 571.952 210.208 571.593 210.441 571.266C210.675 570.939 211.006 570.683 211.435 570.496C211.865 570.3 212.355 570.202 212.905 570.202C213.755 570.202 214.441 570.417 214.963 570.846C215.486 571.275 215.766 571.863 215.803 572.61H214.529C214.501 572.209 214.338 571.887 214.039 571.644C213.75 571.401 213.358 571.28 212.863 571.28C212.406 571.28 212.042 571.378 211.771 571.574C211.501 571.77 211.365 572.027 211.365 572.344C211.365 572.596 211.445 572.806 211.603 572.974C211.771 573.133 211.977 573.263 212.219 573.366C212.471 573.459 212.817 573.567 213.255 573.688C213.806 573.837 214.254 573.987 214.599 574.136C214.945 574.276 215.239 574.491 215.481 574.78C215.733 575.069 215.864 575.447 215.873 575.914C215.873 576.334 215.757 576.712 215.523 577.048C215.29 577.384 214.959 577.65 214.529 577.846C214.109 578.033 213.624 578.126 213.073 578.126Z" fill="#7B6F72"/>
<circle cx="315" cy="742" r="29.75" stroke="#F7F8F8" stroke-width="0.5"/>
<path d="M345 742C345 725.431 331.569 712 315 712" stroke="url(#paint0_linear_255_2176)" stroke-width="2" stroke-linecap="round"/>
<circle cx="315" cy="742" r="25" fill="url(#paint1_linear_255_2176)"/>
<path d="M312.375 736.75L317.625 742L312.375 747.25" stroke="white" stroke-width="1.5" stroke-linecap="round" stroke-linejoin="round"/>
<g clip-path="url(#clip0_255_2176)">
<path d="M375 236.901C375 236.901 302.933 399.894 191.1 405.5C79.2667 411.105 0 350.512 0 350.512V-37H375V236.901Z" fill="url(#paint2_linear_255_2176)"/>
<path d="M141.3 316.412C121.1 367.229 126.867 401.562 126.867 401.562C146.033 405.066 165.5 406.5 184.967 405.867C209.633 405.066 232.433 397.392 253.1 385.747C253.8 357.519 244.167 332.328 237.3 318.014C193.133 339.402 154.6 323.419 141.3 316.412Z" fill="#AB8DA8"/>
<path d="M147.233 302.732C145.067 307.404 143.067 311.975 141.333 316.412C154.6 323.419 193.167 339.435 237.3 318.014C233.533 310.173 230.567 305.602 230.567 305.602C230.567 305.602 174.4 244.475 147.233 302.732Z" fill="#FEF9EF"/>
<path d="M191.1 405.499V387.916L206.367 377.305L196.267 391.419L197.3 404.999L191.1 405.499Z" fill="#543753"/>
<path d="M118.533 192.625C118.533 192.625 117 193.192 116.733 208.74C116.467 224.289 115.3 255.219 115.3 255.219C115.3 255.219 101.2 242.106 100.167 235.5C99.1332 228.893 99.5666 222.954 98.8666 219.317C98.1666 215.681 98.0332 205.737 98.3332 203.869C98.6332 202.001 93.8999 201.7 92.5999 204.47C91.2999 207.239 90.8666 216.448 90.1999 216.782C89.5332 217.115 81.8999 217.816 81.1665 219.484C80.4332 221.153 81.7332 224.189 80.5999 226.725C79.4665 229.26 80.6999 231.062 80.5999 232.997C80.4999 234.933 80.0332 235.667 80.8999 238.603C81.7665 241.539 81.9332 244.008 83.3332 244.475L84.7332 244.942L89.6332 246.611C89.6332 246.611 110.633 293.957 121.033 294.991C131.433 296.026 136.867 287.751 138.167 281.078C139.467 274.405 146.433 234.432 146.433 234.432L118.533 192.625Z" fill="#FFEDE5"/>
<path d="M130.333 225.523L141.867 260.591L146.433 234.399L130.333 225.523Z" fill="#E0855C"/>
<path d="M115.3 255.186C115.3 255.186 125.1 263.427 128.333 270.2C128.333 270.2 123.1 256.32 115.5 249.881L115.3 255.186Z" fill="#E0855C"/>
<path d="M86.3665 244.275C86.3665 244.275 96.5998 244.008 97.4331 243.374C98.2664 242.74 98.2998 239.737 97.8664 239.37C97.8664 239.37 98.6998 234.999 97.9331 233.865C97.9331 233.865 98.2331 230.628 97.8998 228.727C97.8998 228.727 99.5998 238.469 99.3998 240.004C99.1998 241.539 99.9998 244.142 95.3998 244.909C90.7998 245.677 86.3665 244.275 86.3665 244.275Z" fill="#E0855C"/>
<path d="M97.9332 233.932C97.8999 233.932 97.8999 233.932 97.8666 233.932C97.6999 233.898 97.5666 233.731 97.5999 233.565C98.0332 230.862 97.3332 225.624 97.3332 225.59V225.523V225.457C97.6332 224.289 98.2666 220.986 97.3999 219.985C96.6333 219.084 89.2332 218.85 84.7332 218.917C84.5666 218.917 84.3999 218.784 84.3999 218.583C84.3999 218.383 84.5332 218.25 84.7332 218.25C86.7332 218.216 96.6999 218.15 97.8999 219.551C99.0999 220.952 98.1666 224.856 97.9999 225.557C98.0666 226.191 98.6666 230.995 98.2333 233.665C98.2333 233.832 98.0666 233.932 97.9332 233.932Z" fill="#472938"/>
<path d="M97.6665 225.857C97.6332 225.857 97.6665 225.857 97.6665 225.857L86.9332 225.357C86.7332 225.357 86.5999 225.19 86.5999 225.023C86.5999 224.823 86.7332 224.689 86.9332 224.689L97.6665 225.19C97.8665 225.19 97.9999 225.357 97.9999 225.523C97.9999 225.724 97.8332 225.857 97.6665 225.857Z" fill="#472938"/>
<path d="M97.8334 239.704H87.2667C87.0667 239.704 86.9333 239.571 86.9333 239.37C86.9333 239.17 87.0667 239.037 87.2667 239.037H97.8334C98.0334 239.037 98.1667 239.17 98.1667 239.37C98.1667 239.571 98.0334 239.704 97.8334 239.704Z" fill="#472938"/>
<path d="M98.0331 232.43H85.8997C85.6997 232.43 85.5664 232.297 85.5664 232.097C85.5664 231.896 85.6997 231.763 85.8997 231.763H98.0331C98.2331 231.763 98.3664 231.896 98.3664 232.097C98.3664 232.297 98.2331 232.43 98.0331 232.43Z" fill="#472938"/>
<path d="M278.967 176.375L299.167 175.608C300.033 175.575 300.767 176.242 300.8 177.109L302.367 218.817C302.4 219.684 301.733 220.418 300.867 220.452L280.667 221.219C279.8 221.253 279.067 220.585 279.033 219.718L277.467 178.01C277.433 177.109 278.1 176.409 278.967 176.375Z" fill="#3B2645"/>
<path d="M280.6 219.851C280.467 219.851 280.367 219.751 280.367 219.618L278.8 177.91C278.8 177.843 278.834 177.777 278.867 177.743C278.9 177.71 278.967 177.677 279.034 177.677L299.234 176.909C299.367 176.909 299.467 177.009 299.467 177.143L301.034 218.85C301.034 218.984 300.934 219.084 300.8 219.084L280.6 219.851Z" fill="#FEF9EF"/>
<path d="M216.333 171.204C216.333 171.204 237.533 173.339 241.467 190.556C245.4 207.773 252.667 248.679 252.667 248.679C252.667 248.679 268.133 223.889 269.367 219.951C270.6 216.014 274.6 202.701 274.467 198.163C274.333 193.626 278.767 196.862 278.767 202.267L279.433 220.152C279.467 220.752 279.967 221.219 280.567 221.186H280.6L301.067 219.651C301.767 219.618 302.267 219.017 302.233 218.316V218.083C302.233 218.083 300.767 215.047 301.2 213.645C301.633 212.244 305.133 212.11 305.533 212.444C305.933 212.778 308.1 216.948 308.033 218.083C307.967 219.217 305.433 222.754 303.767 223.288C302.1 223.822 285.5 227.826 282.1 232.964C278.7 238.102 263.833 283.113 251.767 286.583C239.7 290.053 227.933 257.321 225.167 247.745C222.4 238.169 216.333 171.204 216.333 171.204Z" fill="#FFEDE5"/>
<path d="M221.667 224.289C222.967 235.333 224.267 244.609 225.167 247.712C226.467 252.183 229.733 261.759 234.1 270.301L235.433 207.406L221.667 224.289Z" fill="#E0855C"/>
<path d="M301.667 200.566C301.667 200.566 308.9 204.269 308.767 205.838C308.634 207.406 307.267 210.208 305.867 210.075C304.467 209.942 301.834 208.54 301.1 206.905C300.367 205.27 300 200.032 301.667 200.566Z" fill="#FFEDE5"/>
<path d="M302.033 206.004C302.033 206.004 309.267 209.708 309.133 211.276C309 212.844 307.633 215.647 306.233 215.514C304.833 215.38 302.2 213.979 301.467 212.344C300.733 210.709 300.367 205.471 302.033 206.004Z" fill="#FFEDE5"/>
<path d="M302.033 193.959C302.033 193.959 309.267 197.663 309.133 199.231C309 200.799 307.633 203.602 306.233 203.469C304.833 203.335 302.2 201.934 301.467 200.299C300.733 198.664 300.367 193.392 302.033 193.959Z" fill="#FFEDE5"/>
<path d="M246.133 261.926C246.067 261.926 246.033 261.926 245.967 261.892C245.8 261.826 245.733 261.592 245.833 261.459L252.367 248.546C252.433 248.379 252.667 248.312 252.8 248.413C252.967 248.479 253.033 248.713 252.933 248.846L246.4 261.759C246.367 261.859 246.267 261.926 246.133 261.926Z" fill="#472938"/>
<path d="M152.5 280.244C152.533 291.088 147.233 302.699 147.233 302.699C147.233 302.699 183.933 323.319 230.533 305.568C230.533 305.568 224.833 290.887 225.566 275.539C187.9 268.532 152.5 280.244 152.5 280.244Z" fill="#FFEDE5"/>
<path d="M118.533 192.625C115.8 196.729 126.333 217.149 136.4 237.802C145.567 217.282 140.2 192.358 137.1 181.647C130 184.383 121.3 188.421 118.533 192.625Z" fill="#FFEDE5"/>
<path d="M225.567 275.572C225.633 273.971 225.8 272.369 226.033 270.768C226.167 269.8 226.333 268.766 226.5 267.665C196.6 259.49 161 268.833 150.967 271.802C151.933 275.105 152.5 277.975 152.5 280.244C152.5 280.244 187.9 268.532 225.567 275.572Z" fill="#FEF9EF"/>
<path d="M136.4 238.903C136.267 238.903 136.167 238.837 136.1 238.703L128.667 222.687C128.6 222.521 128.667 222.32 128.833 222.254C129 222.187 129.2 222.254 129.267 222.42L136.7 238.436C136.767 238.603 136.7 238.803 136.533 238.87C136.5 238.903 136.433 238.903 136.4 238.903Z" fill="#472938"/>
<path d="M193.4 309.606C193.915 309.606 194.333 309.187 194.333 308.671C194.333 308.156 193.915 307.737 193.4 307.737C192.884 307.737 192.467 308.156 192.467 308.671C192.467 309.187 192.884 309.606 193.4 309.606Z" fill="#E0855C"/>
<path d="M233.833 209.374C233.833 209.141 233.833 208.907 233.833 208.707C233.833 208.607 233.833 208.473 233.833 208.373C233.833 208.106 233.833 207.873 233.8 207.606C233.8 207.539 233.8 207.472 233.8 207.372C233.8 207.039 233.766 206.738 233.766 206.438V206.238C233.766 206.004 233.733 205.737 233.733 205.504C233.733 205.404 233.733 205.304 233.7 205.204C233.7 205.003 233.666 204.803 233.666 204.636L233.633 204.303C233.633 204.136 233.6 203.936 233.566 203.769C233.566 203.669 233.533 203.569 233.533 203.435C233.5 203.235 233.5 203.068 233.467 202.868C233.467 202.768 233.433 202.701 233.433 202.601C233.4 202.334 233.367 202.067 233.3 201.8C230.7 185.985 216.3 171.17 216.3 171.17C216.3 171.17 221.9 193.425 223.7 196.028C230.266 205.571 233.933 211.31 233.467 218.917C233.5 218.517 233.533 218.15 233.566 217.749C233.566 217.649 233.566 217.549 233.566 217.449C233.6 217.149 233.6 216.848 233.633 216.581C233.633 216.481 233.633 216.348 233.666 216.248C233.666 215.981 233.7 215.714 233.7 215.414L233.733 215.08C233.733 214.78 233.766 214.513 233.766 214.246C233.766 214.146 233.766 214.079 233.766 213.979C233.8 213.245 233.833 212.511 233.833 211.777C233.833 211.677 233.833 211.61 233.833 211.51C233.833 211.243 233.833 210.976 233.833 210.709V210.375C233.833 210.142 233.833 209.908 233.833 209.675V209.374Z" fill="#FFEDE5"/>
<path d="M223.7 196.061C221.9 193.459 216.333 171.204 216.333 171.204H212.1L147.233 178.144C147.233 178.144 142.667 179.478 137.1 181.614C140.167 192.324 145.567 217.282 136.4 237.769C142.433 250.181 148.267 262.66 150.933 271.802C160.967 268.799 196.567 259.49 226.467 267.665C228.433 255.052 232.233 234.966 233.467 218.95C233.933 211.343 230.267 205.604 223.7 196.061Z" fill="#AB8DA8"/>
<path d="M158.1 254.185C156.5 254.185 154.833 253.985 153.067 253.551C152.9 253.517 152.767 253.317 152.833 253.15C152.867 252.984 153.067 252.85 153.233 252.917C159.567 254.518 164.7 252.683 170.1 250.781C175.233 248.946 180.533 247.078 187.333 247.845C201.067 249.38 223.433 245.677 223.667 245.643C223.867 245.61 224.033 245.743 224.067 245.91C224.1 246.077 223.967 246.277 223.8 246.31C223.567 246.344 201.1 250.081 187.3 248.546C180.667 247.812 175.433 249.647 170.367 251.449C166.3 252.817 162.433 254.185 158.1 254.185Z" fill="#472938"/>
<path d="M209.367 82.25C209.367 82.25 226.767 83.985 221.533 107.141C216.3 130.297 221.467 129.263 226 141.508C230.533 153.753 206.833 145.645 206.833 145.645C206.833 145.645 218.9 163.73 154.767 155.922C101.867 149.482 137.167 121.889 137.167 121.889C137.167 121.889 121.267 123.991 140.3 107.174C153.7 95.3295 160.833 51.7868 209.367 82.25Z" fill="#3B2645"/>
<path d="M197.833 146.313C197.833 146.313 192.467 165.164 199.833 168.668C205.5 171.371 212.1 171.204 212.1 171.204C212.1 171.204 209.833 221.186 181.833 221.72C153.833 222.254 147.233 178.144 147.233 178.144C147.233 178.144 158.633 174.14 162.033 166.299C165.433 158.458 165.6 147.48 165.6 147.48L197.833 146.313Z" fill="#FFEDE5"/>
<path d="M211.285 132.06C214.138 127.113 214.073 121.729 211.14 120.033C208.206 118.338 203.515 120.974 200.662 125.921C197.808 130.868 197.873 136.253 200.807 137.948C203.74 139.643 208.431 137.007 211.285 132.06Z" fill="#E0855C"/>
<path d="M204.3 132.432C204.2 132.432 204.133 132.399 204.067 132.332C203.933 132.199 203.933 131.999 204.067 131.865L209.1 127.127C209.233 126.994 209.433 126.994 209.567 127.127C209.7 127.261 209.7 127.461 209.567 127.594L204.533 132.332C204.467 132.432 204.4 132.432 204.3 132.432Z" fill="#472938"/>
<path d="M158.838 134.188C162.134 133.408 163.741 128.269 162.427 122.71C161.114 117.151 157.377 113.277 154.08 114.058C150.784 114.838 149.177 119.978 150.491 125.536C151.805 131.095 155.542 134.969 158.838 134.188Z" fill="#FFEDE5"/>
<path d="M196.167 162.395C195.167 155.655 197.833 146.279 197.833 146.279L165.567 147.48C165.567 147.48 165.533 149.916 165.133 153.32C165.133 153.353 181.233 172.872 196.167 162.395Z" fill="#E0855C"/>
<path d="M157.967 127.361C157.867 127.361 157.767 127.294 157.7 127.194L154.5 122.289C154.4 122.122 154.433 121.922 154.6 121.822C154.767 121.722 154.967 121.755 155.067 121.922L158.267 126.827C158.367 126.994 158.333 127.194 158.167 127.294C158.1 127.361 158.033 127.361 157.967 127.361Z" fill="#472938"/>
<path d="M160.1 92.1597C160.1 92.1597 148.633 154.12 175.567 160.56C202.5 167 212.1 109.21 211.4 97.1979C210.7 85.1862 164.1 81.5493 160.1 92.1597Z" fill="#FFEDE5"/>
<path d="M195.934 120.487C196.8 120.654 197.367 121.488 197.234 122.356L197.067 123.323C196.9 124.191 196.067 124.758 195.2 124.625C194.334 124.458 193.767 123.624 193.9 122.756L194.067 121.789C194.234 120.921 195.067 120.321 195.934 120.487Z" fill="#472938"/>
<path d="M170.833 117.685C171.733 117.685 172.433 118.385 172.433 119.286V120.254C172.433 121.121 171.733 121.855 170.833 121.855C169.967 121.855 169.233 121.155 169.233 120.254V119.286C169.233 118.385 169.933 117.685 170.833 117.685Z" fill="#472938"/>
<path d="M201.8 118.819C201.8 118.819 200.6 117.017 197.133 116.417C193.667 115.816 192.567 116.016 192.533 114.915C192.5 113.814 200.267 112.113 201.8 118.819Z" fill="#472938"/>
<path d="M165.8 114.248C165.8 114.248 167.533 112.947 171 113.514C174.467 114.114 175.433 114.648 175.833 113.614C176.233 112.58 169.467 108.409 165.8 114.248Z" fill="#472938"/>
<path d="M172.4 137.871L186.8 139.506C186.8 139.506 184.567 149.249 178.2 148.114C171.867 147.013 172.4 137.871 172.4 137.871Z" fill="white"/>
<path d="M181.933 135.469C180.933 135.469 179.833 135.202 178.833 134.735C178.667 134.668 178.6 134.468 178.667 134.301C178.733 134.134 178.933 134.067 179.1 134.134C180.567 134.835 182.2 135.002 183.3 134.568C183.767 134.401 184.067 134.134 184.2 133.834C184.633 132.799 184.467 129.596 184.267 125.893L184.2 124.591C183.833 117.751 187.933 116.45 188.1 116.383C188.267 116.317 188.467 116.417 188.5 116.617C188.567 116.784 188.467 116.984 188.267 117.017C188.1 117.051 184.5 118.252 184.833 124.558L184.9 125.859C185.1 129.796 185.3 132.933 184.767 134.101C184.567 134.568 184.133 134.968 183.5 135.202C183.1 135.402 182.533 135.469 181.933 135.469Z" fill="#472938"/>
<path d="M206.833 126.627C206.833 126.627 209 109.91 201.8 100.768C201.8 100.768 195.7 112.313 185.7 108.309C185.7 108.309 171.967 120.22 157.967 116.75C143.967 113.28 148.933 80.515 169.233 79.1136C189.533 77.7122 230.833 85.8869 206.833 126.627Z" fill="#3B2645"/>
</g>
<defs>
<linearGradient id="paint0_linear_255_2176" x1="345" y1="742" x2="305.016" y2="738.906" gradientUnits="userSpaceOnUse">
<stop stop-color="#92A3FD"/>
<stop offset="1" stop-color="#9DCEFF"/>
</linearGradient>
<linearGradient id="paint1_linear_255_2176" x1="340" y1="767" x2="273.36" y2="761.843" gradientUnits="userSpaceOnUse">
<stop stop-color="#92A3FD"/>
<stop offset="1" stop-color="#9DCEFF"/>
</linearGradient>
<linearGradient id="paint2_linear_255_2176" x1="375" y1="405.866" x2="-125.641" y2="373.062" gradientUnits="userSpaceOnUse">
<stop stop-color="#92A3FD"/>
<stop offset="1" stop-color="#9DCEFF"/>
</linearGradient>
<clipPath id="clip0_255_2176">
<rect width="375" height="406" fill="white"/>
</clipPath>
</defs>
</svg>
