<svg width="395" height="830" viewBox="0 0 395 830" fill="none" xmlns="http://www.w3.org/2000/svg">
<rect width="395" height="830" rx="40" fill="white"/>
<path d="M56.66 399.36H61.14V402H53.24V387.96H56.66V399.36ZM73.2912 396.24C73.2912 396.56 73.2713 396.893 73.2313 397.24H65.4913C65.5446 397.933 65.7646 398.467 66.1513 398.84C66.5513 399.2 67.0379 399.38 67.6113 399.38C68.4646 399.38 69.0579 399.02 69.3913 398.3H73.0313C72.8446 399.033 72.5046 399.693 72.0113 400.28C71.5313 400.867 70.9246 401.327 70.1913 401.66C69.4579 401.993 68.6379 402.16 67.7313 402.16C66.6379 402.16 65.6646 401.927 64.8113 401.46C63.9579 400.993 63.2913 400.327 62.8113 399.46C62.3313 398.593 62.0913 397.58 62.0913 396.42C62.0913 395.26 62.3246 394.247 62.7913 393.38C63.2713 392.513 63.9379 391.847 64.7913 391.38C65.6446 390.913 66.6246 390.68 67.7313 390.68C68.8113 390.68 69.7713 390.907 70.6113 391.36C71.4513 391.813 72.1046 392.46 72.5713 393.3C73.0513 394.14 73.2912 395.12 73.2912 396.24ZM69.7913 395.34C69.7913 394.753 69.5913 394.287 69.1913 393.94C68.7913 393.593 68.2913 393.42 67.6913 393.42C67.1179 393.42 66.6313 393.587 66.2313 393.92C65.8446 394.253 65.6046 394.727 65.5113 395.34H69.7913ZM81.3155 399.1V402H79.5755C78.3355 402 77.3688 401.7 76.6755 401.1C75.9821 400.487 75.6355 399.493 75.6355 398.12V393.68H74.2755V390.84H75.6355V388.12H79.0555V390.84H81.2955V393.68H79.0555V398.16C79.0555 398.493 79.1355 398.733 79.2955 398.88C79.4555 399.027 79.7221 399.1 80.0955 399.1H81.3155ZM84.0005 387.96H87.5005L85.2605 393.32H82.9605L84.0005 387.96ZM94.0495 402.16C93.0762 402.16 92.2095 401.993 91.4495 401.66C90.6895 401.327 90.0895 400.873 89.6495 400.3C89.2095 399.713 88.9629 399.06 88.9095 398.34H92.2895C92.3295 398.727 92.5095 399.04 92.8295 399.28C93.1495 399.52 93.5429 399.64 94.0095 399.64C94.4362 399.64 94.7629 399.56 94.9895 399.4C95.2295 399.227 95.3495 399.007 95.3495 398.74C95.3495 398.42 95.1829 398.187 94.8495 398.04C94.5162 397.88 93.9762 397.707 93.2295 397.52C92.4295 397.333 91.7629 397.14 91.2295 396.94C90.6962 396.727 90.2362 396.4 89.8495 395.96C89.4629 395.507 89.2695 394.9 89.2695 394.14C89.2695 393.5 89.4429 392.92 89.7895 392.4C90.1495 391.867 90.6695 391.447 91.3495 391.14C92.0429 390.833 92.8629 390.68 93.8095 390.68C95.2095 390.68 96.3095 391.027 97.1095 391.72C97.9229 392.413 98.3895 393.333 98.5095 394.48H95.3495C95.2962 394.093 95.1229 393.787 94.8295 393.56C94.5495 393.333 94.1762 393.22 93.7095 393.22C93.3095 393.22 93.0029 393.3 92.7895 393.46C92.5762 393.607 92.4695 393.813 92.4695 394.08C92.4695 394.4 92.6362 394.64 92.9695 394.8C93.3162 394.96 93.8495 395.12 94.5695 395.28C95.3962 395.493 96.0695 395.707 96.5895 395.92C97.1095 396.12 97.5629 396.453 97.9495 396.92C98.3495 397.373 98.5562 397.987 98.5695 398.76C98.5695 399.413 98.3829 400 98.0095 400.52C97.6495 401.027 97.1229 401.427 96.4295 401.72C95.7495 402.013 94.9562 402.16 94.0495 402.16ZM104.22 396.42C104.22 395.26 104.453 394.247 104.92 393.38C105.4 392.513 106.06 391.847 106.9 391.38C107.753 390.913 108.727 390.68 109.82 390.68C111.22 390.68 112.387 391.047 113.32 391.78C114.267 392.513 114.887 393.547 115.18 394.88H111.54C111.233 394.027 110.64 393.6 109.76 393.6C109.133 393.6 108.633 393.847 108.26 394.34C107.887 394.82 107.7 395.513 107.7 396.42C107.7 397.327 107.887 398.027 108.26 398.52C108.633 399 109.133 399.24 109.76 399.24C110.64 399.24 111.233 398.813 111.54 397.96H115.18C114.887 399.267 114.267 400.293 113.32 401.04C112.373 401.787 111.207 402.16 109.82 402.16C108.727 402.16 107.753 401.927 106.9 401.46C106.06 400.993 105.4 400.327 104.92 399.46C104.453 398.593 104.22 397.58 104.22 396.42ZM122.09 402.16C120.996 402.16 120.01 401.927 119.13 401.46C118.263 400.993 117.576 400.327 117.07 399.46C116.576 398.593 116.33 397.58 116.33 396.42C116.33 395.273 116.583 394.267 117.09 393.4C117.596 392.52 118.29 391.847 119.17 391.38C120.05 390.913 121.036 390.68 122.13 390.68C123.223 390.68 124.21 390.913 125.09 391.38C125.97 391.847 126.663 392.52 127.17 393.4C127.676 394.267 127.93 395.273 127.93 396.42C127.93 397.567 127.67 398.58 127.15 399.46C126.643 400.327 125.943 400.993 125.05 401.46C124.17 401.927 123.183 402.16 122.09 402.16ZM122.09 399.2C122.743 399.2 123.296 398.96 123.75 398.48C124.216 398 124.45 397.313 124.45 396.42C124.45 395.527 124.223 394.84 123.77 394.36C123.33 393.88 122.783 393.64 122.13 393.64C121.463 393.64 120.91 393.88 120.47 394.36C120.03 394.827 119.81 395.513 119.81 396.42C119.81 397.313 120.023 398 120.45 398.48C120.89 398.96 121.436 399.2 122.09 399.2ZM143.984 390.72C145.371 390.72 146.471 391.14 147.284 391.98C148.111 392.82 148.524 393.987 148.524 395.48V402H145.124V395.94C145.124 395.22 144.931 394.667 144.544 394.28C144.171 393.88 143.651 393.68 142.984 393.68C142.317 393.68 141.791 393.88 141.404 394.28C141.031 394.667 140.844 395.22 140.844 395.94V402H137.444V395.94C137.444 395.22 137.251 394.667 136.864 394.28C136.491 393.88 135.971 393.68 135.304 393.68C134.637 393.68 134.111 393.88 133.724 394.28C133.351 394.667 133.164 395.22 133.164 395.94V402H129.744V390.84H133.164V392.24C133.511 391.773 133.964 391.407 134.524 391.14C135.084 390.86 135.717 390.72 136.424 390.72C137.264 390.72 138.011 390.9 138.664 391.26C139.331 391.62 139.851 392.133 140.224 392.8C140.611 392.187 141.137 391.687 141.804 391.3C142.471 390.913 143.197 390.72 143.984 390.72ZM154.336 392.42C154.669 391.9 155.129 391.48 155.716 391.16C156.302 390.84 156.989 390.68 157.776 390.68C158.696 390.68 159.529 390.913 160.276 391.38C161.022 391.847 161.609 392.513 162.036 393.38C162.476 394.247 162.696 395.253 162.696 396.4C162.696 397.547 162.476 398.56 162.036 399.44C161.609 400.307 161.022 400.98 160.276 401.46C159.529 401.927 158.696 402.16 157.776 402.16C157.002 402.16 156.316 402 155.716 401.68C155.129 401.36 154.669 400.947 154.336 400.44V407.32H150.916V390.84H154.336V392.42ZM159.216 396.4C159.216 395.547 158.976 394.88 158.496 394.4C158.029 393.907 157.449 393.66 156.756 393.66C156.076 393.66 155.496 393.907 155.016 394.4C154.549 394.893 154.316 395.567 154.316 396.42C154.316 397.273 154.549 397.947 155.016 398.44C155.496 398.933 156.076 399.18 156.756 399.18C157.436 399.18 158.016 398.933 158.496 398.44C158.976 397.933 159.216 397.253 159.216 396.4ZM167.91 387.2V402H164.49V387.2H167.91ZM180.908 396.24C180.908 396.56 180.888 396.893 180.848 397.24H173.108C173.162 397.933 173.382 398.467 173.768 398.84C174.168 399.2 174.655 399.38 175.228 399.38C176.082 399.38 176.675 399.02 177.008 398.3H180.648C180.462 399.033 180.122 399.693 179.628 400.28C179.148 400.867 178.542 401.327 177.808 401.66C177.075 401.993 176.255 402.16 175.348 402.16C174.255 402.16 173.282 401.927 172.428 401.46C171.575 400.993 170.908 400.327 170.428 399.46C169.948 398.593 169.708 397.58 169.708 396.42C169.708 395.26 169.942 394.247 170.408 393.38C170.888 392.513 171.555 391.847 172.408 391.38C173.262 390.913 174.242 390.68 175.348 390.68C176.428 390.68 177.388 390.907 178.228 391.36C179.068 391.813 179.722 392.46 180.188 393.3C180.668 394.14 180.908 395.12 180.908 396.24ZM177.408 395.34C177.408 394.753 177.208 394.287 176.808 393.94C176.408 393.593 175.908 393.42 175.308 393.42C174.735 393.42 174.248 393.587 173.848 393.92C173.462 394.253 173.222 394.727 173.128 395.34H177.408ZM188.933 399.1V402H187.193C185.953 402 184.986 401.7 184.293 401.1C183.599 400.487 183.253 399.493 183.253 398.12V393.68H181.893V390.84H183.253V388.12H186.673V390.84H188.913V393.68H186.673V398.16C186.673 398.493 186.753 398.733 186.913 398.88C187.073 399.027 187.339 399.1 187.713 399.1H188.933ZM201.358 396.24C201.358 396.56 201.338 396.893 201.298 397.24H193.558C193.611 397.933 193.831 398.467 194.218 398.84C194.618 399.2 195.104 399.38 195.678 399.38C196.531 399.38 197.124 399.02 197.458 398.3H201.098C200.911 399.033 200.571 399.693 200.078 400.28C199.598 400.867 198.991 401.327 198.258 401.66C197.524 401.993 196.704 402.16 195.798 402.16C194.704 402.16 193.731 401.927 192.878 401.46C192.024 400.993 191.358 400.327 190.878 399.46C190.398 398.593 190.158 397.58 190.158 396.42C190.158 395.26 190.391 394.247 190.858 393.38C191.338 392.513 192.004 391.847 192.858 391.38C193.711 390.913 194.691 390.68 195.798 390.68C196.878 390.68 197.838 390.907 198.678 391.36C199.518 391.813 200.171 392.46 200.638 393.3C201.118 394.14 201.358 395.12 201.358 396.24ZM197.858 395.34C197.858 394.753 197.658 394.287 197.258 393.94C196.858 393.593 196.358 393.42 195.758 393.42C195.184 393.42 194.698 393.587 194.298 393.92C193.911 394.253 193.671 394.727 193.578 395.34H197.858ZM218.8 390.84L211.8 407.3H208.12L210.68 401.62L206.14 390.84H209.96L212.54 397.82L215.1 390.84H218.8ZM225.117 402.16C224.024 402.16 223.037 401.927 222.157 401.46C221.29 400.993 220.604 400.327 220.097 399.46C219.604 398.593 219.357 397.58 219.357 396.42C219.357 395.273 219.61 394.267 220.117 393.4C220.624 392.52 221.317 391.847 222.197 391.38C223.077 390.913 224.064 390.68 225.157 390.68C226.25 390.68 227.237 390.913 228.117 391.38C228.997 391.847 229.69 392.52 230.197 393.4C230.704 394.267 230.957 395.273 230.957 396.42C230.957 397.567 230.697 398.58 230.177 399.46C229.67 400.327 228.97 400.993 228.077 401.46C227.197 401.927 226.21 402.16 225.117 402.16ZM225.117 399.2C225.77 399.2 226.324 398.96 226.777 398.48C227.244 398 227.477 397.313 227.477 396.42C227.477 395.527 227.25 394.84 226.797 394.36C226.357 393.88 225.81 393.64 225.157 393.64C224.49 393.64 223.937 393.88 223.497 394.36C223.057 394.827 222.837 395.513 222.837 396.42C222.837 397.313 223.05 398 223.477 398.48C223.917 398.96 224.464 399.2 225.117 399.2ZM243.791 390.84V402H240.371V400.48C240.025 400.973 239.551 401.373 238.951 401.68C238.365 401.973 237.711 402.12 236.991 402.12C236.138 402.12 235.385 401.933 234.731 401.56C234.078 401.173 233.571 400.62 233.211 399.9C232.851 399.18 232.671 398.333 232.671 397.36V390.84H236.071V396.9C236.071 397.647 236.265 398.227 236.651 398.64C237.038 399.053 237.558 399.26 238.211 399.26C238.878 399.26 239.405 399.053 239.791 398.64C240.178 398.227 240.371 397.647 240.371 396.9V390.84H243.791ZM249.668 392.7C250.068 392.087 250.568 391.607 251.168 391.26C251.768 390.9 252.434 390.72 253.168 390.72V394.34H252.228C251.374 394.34 250.734 394.527 250.308 394.9C249.881 395.26 249.668 395.9 249.668 396.82V402H246.248V390.84H249.668V392.7ZM262.461 392.42C262.794 391.9 263.254 391.48 263.841 391.16C264.427 390.84 265.114 390.68 265.901 390.68C266.821 390.68 267.654 390.913 268.401 391.38C269.147 391.847 269.734 392.513 270.161 393.38C270.601 394.247 270.821 395.253 270.821 396.4C270.821 397.547 270.601 398.56 270.161 399.44C269.734 400.307 269.147 400.98 268.401 401.46C267.654 401.927 266.821 402.16 265.901 402.16C265.127 402.16 264.441 402 263.841 401.68C263.254 401.36 262.794 400.947 262.461 400.44V407.32H259.041V390.84H262.461V392.42ZM267.341 396.4C267.341 395.547 267.101 394.88 266.621 394.4C266.154 393.907 265.574 393.66 264.881 393.66C264.201 393.66 263.621 393.907 263.141 394.4C262.674 394.893 262.441 395.567 262.441 396.42C262.441 397.273 262.674 397.947 263.141 398.44C263.621 398.933 264.201 399.18 264.881 399.18C265.561 399.18 266.141 398.933 266.621 398.44C267.101 397.933 267.341 397.253 267.341 396.4ZM276.035 392.7C276.435 392.087 276.935 391.607 277.535 391.26C278.135 390.9 278.802 390.72 279.535 390.72V394.34H278.595C277.742 394.34 277.102 394.527 276.675 394.9C276.248 395.26 276.035 395.9 276.035 396.82V402H272.615V390.84H276.035V392.7ZM286.25 402.16C285.156 402.16 284.17 401.927 283.29 401.46C282.423 400.993 281.736 400.327 281.23 399.46C280.736 398.593 280.49 397.58 280.49 396.42C280.49 395.273 280.743 394.267 281.25 393.4C281.756 392.52 282.45 391.847 283.33 391.38C284.21 390.913 285.196 390.68 286.29 390.68C287.383 390.68 288.37 390.913 289.25 391.38C290.13 391.847 290.823 392.52 291.33 393.4C291.836 394.267 292.09 395.273 292.09 396.42C292.09 397.567 291.83 398.58 291.31 399.46C290.803 400.327 290.103 400.993 289.21 401.46C288.33 401.927 287.343 402.16 286.25 402.16ZM286.25 399.2C286.903 399.2 287.456 398.96 287.91 398.48C288.376 398 288.61 397.313 288.61 396.42C288.61 395.527 288.383 394.84 287.93 394.36C287.49 393.88 286.943 393.64 286.29 393.64C285.623 393.64 285.07 393.88 284.63 394.36C284.19 394.827 283.97 395.513 283.97 396.42C283.97 397.313 284.183 398 284.61 398.48C285.05 398.96 285.596 399.2 286.25 399.2ZM299.504 393.68H297.664V402H294.244V393.68H293.004V390.84H294.244V390.52C294.244 389.147 294.637 388.107 295.424 387.4C296.211 386.68 297.364 386.32 298.884 386.32C299.137 386.32 299.324 386.327 299.444 386.34V389.24C298.791 389.2 298.331 389.293 298.064 389.52C297.797 389.747 297.664 390.153 297.664 390.74V390.84H299.504V393.68ZM302.831 389.68C302.231 389.68 301.738 389.507 301.351 389.16C300.978 388.8 300.791 388.36 300.791 387.84C300.791 387.307 300.978 386.867 301.351 386.52C301.738 386.16 302.231 385.98 302.831 385.98C303.418 385.98 303.898 386.16 304.271 386.52C304.658 386.867 304.851 387.307 304.851 387.84C304.851 388.36 304.658 388.8 304.271 389.16C303.898 389.507 303.418 389.68 302.831 389.68ZM304.531 390.84V402H301.111V390.84H304.531ZM310.43 387.2V402H307.01V387.2H310.43ZM323.428 396.24C323.428 396.56 323.408 396.893 323.368 397.24H315.628C315.681 397.933 315.901 398.467 316.288 398.84C316.688 399.2 317.175 399.38 317.748 399.38C318.601 399.38 319.195 399.02 319.528 398.3H323.168C322.981 399.033 322.641 399.693 322.148 400.28C321.668 400.867 321.061 401.327 320.328 401.66C319.595 401.993 318.775 402.16 317.868 402.16C316.775 402.16 315.801 401.927 314.948 401.46C314.095 400.993 313.428 400.327 312.948 399.46C312.468 398.593 312.228 397.58 312.228 396.42C312.228 395.26 312.461 394.247 312.928 393.38C313.408 392.513 314.075 391.847 314.928 391.38C315.781 390.913 316.761 390.68 317.868 390.68C318.948 390.68 319.908 390.907 320.748 391.36C321.588 391.813 322.241 392.46 322.708 393.3C323.188 394.14 323.428 395.12 323.428 396.24ZM319.928 395.34C319.928 394.753 319.728 394.287 319.328 393.94C318.928 393.593 318.428 393.42 317.828 393.42C317.255 393.42 316.768 393.587 316.368 393.92C315.981 394.253 315.741 394.727 315.648 395.34H319.928Z" fill="#1D1617"/>
<path d="M75.141 419.636V428H74.049V419.636H75.141ZM78.3341 422.324V426.2C78.3341 426.52 78.4021 426.748 78.5381 426.884C78.6741 427.012 78.9101 427.076 79.2461 427.076H80.0501V428H79.0661C78.4581 428 78.0021 427.86 77.6981 427.58C77.3941 427.3 77.2421 426.84 77.2421 426.2V422.324H76.3901V421.424H77.2421V419.768H78.3341V421.424H80.0501V422.324H78.3341ZM93.3324 421.424L91.2804 428H90.1524L88.5684 422.78L86.9844 428H85.8564L83.7924 421.424H84.9084L86.4204 426.944L88.0524 421.424H89.1684L90.7644 426.956L92.2524 421.424H93.3324ZM94.9802 420.356C94.7722 420.356 94.5962 420.284 94.4522 420.14C94.3082 419.996 94.2362 419.82 94.2362 419.612C94.2362 419.404 94.3082 419.228 94.4522 419.084C94.5962 418.94 94.7722 418.868 94.9802 418.868C95.1802 418.868 95.3482 418.94 95.4842 419.084C95.6282 419.228 95.7002 419.404 95.7002 419.612C95.7002 419.82 95.6282 419.996 95.4842 420.14C95.3482 420.284 95.1802 420.356 94.9802 420.356ZM95.5082 421.424V428H94.4162V421.424H95.5082ZM98.4613 419.12V428H97.3693V419.12H98.4613ZM101.414 419.12V428H100.322V419.12H101.414ZM109.739 421.304C110.235 421.304 110.683 421.412 111.083 421.628C111.483 421.836 111.795 422.152 112.019 422.576C112.251 423 112.367 423.516 112.367 424.124V428H111.287V424.28C111.287 423.624 111.123 423.124 110.795 422.78C110.467 422.428 110.019 422.252 109.451 422.252C108.875 422.252 108.415 422.432 108.071 422.792C107.735 423.152 107.567 423.676 107.567 424.364V428H106.475V419.12H107.567V422.36C107.783 422.024 108.079 421.764 108.455 421.58C108.839 421.396 109.267 421.304 109.739 421.304ZM120.151 424.46C120.151 424.668 120.139 424.888 120.115 425.12H114.859C114.899 425.768 115.119 426.276 115.519 426.644C115.927 427.004 116.419 427.184 116.995 427.184C117.467 427.184 117.859 427.076 118.171 426.86C118.491 426.636 118.715 426.34 118.843 425.972H120.019C119.843 426.604 119.491 427.12 118.963 427.52C118.435 427.912 117.779 428.108 116.995 428.108C116.371 428.108 115.811 427.968 115.315 427.688C114.827 427.408 114.443 427.012 114.163 426.5C113.883 425.98 113.743 425.38 113.743 424.7C113.743 424.02 113.879 423.424 114.151 422.912C114.423 422.4 114.803 422.008 115.291 421.736C115.787 421.456 116.355 421.316 116.995 421.316C117.619 421.316 118.171 421.452 118.651 421.724C119.131 421.996 119.499 422.372 119.755 422.852C120.019 423.324 120.151 423.86 120.151 424.46ZM119.023 424.232C119.023 423.816 118.931 423.46 118.747 423.164C118.563 422.86 118.311 422.632 117.991 422.48C117.679 422.32 117.331 422.24 116.947 422.24C116.395 422.24 115.923 422.416 115.531 422.768C115.147 423.12 114.927 423.608 114.871 424.232H119.023ZM122.684 419.12V428H121.592V419.12H122.684ZM125.637 422.636C125.853 422.26 126.173 421.948 126.597 421.7C127.029 421.444 127.529 421.316 128.097 421.316C128.681 421.316 129.209 421.456 129.681 421.736C130.161 422.016 130.537 422.412 130.809 422.924C131.081 423.428 131.217 424.016 131.217 424.688C131.217 425.352 131.081 425.944 130.809 426.464C130.537 426.984 130.161 427.388 129.681 427.676C129.209 427.964 128.681 428.108 128.097 428.108C127.537 428.108 127.041 427.984 126.609 427.736C126.185 427.48 125.861 427.164 125.637 426.788V431.12H124.545V421.424H125.637V422.636ZM130.101 424.688C130.101 424.192 130.001 423.76 129.801 423.392C129.601 423.024 129.329 422.744 128.985 422.552C128.649 422.36 128.277 422.264 127.869 422.264C127.469 422.264 127.097 422.364 126.753 422.564C126.417 422.756 126.145 423.04 125.937 423.416C125.737 423.784 125.637 424.212 125.637 424.7C125.637 425.196 125.737 425.632 125.937 426.008C126.145 426.376 126.417 426.66 126.753 426.86C127.097 427.052 127.469 427.148 127.869 427.148C128.277 427.148 128.649 427.052 128.985 426.86C129.329 426.66 129.601 426.376 129.801 426.008C130.001 425.632 130.101 425.192 130.101 424.688ZM141.686 421.424V428H140.594V427.028C140.386 427.364 140.094 427.628 139.718 427.82C139.35 428.004 138.942 428.096 138.494 428.096C137.982 428.096 137.522 427.992 137.114 427.784C136.706 427.568 136.382 427.248 136.142 426.824C135.91 426.4 135.794 425.884 135.794 425.276V421.424H136.874V425.132C136.874 425.78 137.038 426.28 137.366 426.632C137.694 426.976 138.142 427.148 138.71 427.148C139.294 427.148 139.754 426.968 140.09 426.608C140.426 426.248 140.594 425.724 140.594 425.036V421.424H141.686ZM145.857 428.108C145.353 428.108 144.901 428.024 144.501 427.856C144.101 427.68 143.785 427.44 143.553 427.136C143.321 426.824 143.193 426.468 143.169 426.068H144.297C144.329 426.396 144.481 426.664 144.753 426.872C145.033 427.08 145.397 427.184 145.845 427.184C146.261 427.184 146.589 427.092 146.829 426.908C147.069 426.724 147.189 426.492 147.189 426.212C147.189 425.924 147.061 425.712 146.805 425.576C146.549 425.432 146.153 425.292 145.617 425.156C145.129 425.028 144.729 424.9 144.417 424.772C144.113 424.636 143.849 424.44 143.625 424.184C143.409 423.92 143.301 423.576 143.301 423.152C143.301 422.816 143.401 422.508 143.601 422.228C143.801 421.948 144.085 421.728 144.453 421.568C144.821 421.4 145.241 421.316 145.713 421.316C146.441 421.316 147.029 421.5 147.477 421.868C147.925 422.236 148.165 422.74 148.197 423.38H147.105C147.081 423.036 146.941 422.76 146.685 422.552C146.437 422.344 146.101 422.24 145.677 422.24C145.285 422.24 144.973 422.324 144.741 422.492C144.509 422.66 144.393 422.88 144.393 423.152C144.393 423.368 144.461 423.548 144.597 423.692C144.741 423.828 144.917 423.94 145.125 424.028C145.341 424.108 145.637 424.2 146.013 424.304C146.485 424.432 146.869 424.56 147.165 424.688C147.461 424.808 147.713 424.992 147.921 425.24C148.137 425.488 148.249 425.812 148.257 426.212C148.257 426.572 148.157 426.896 147.957 427.184C147.757 427.472 147.473 427.7 147.105 427.868C146.745 428.028 146.329 428.108 145.857 428.108ZM154.33 422.324V426.2C154.33 426.52 154.398 426.748 154.534 426.884C154.67 427.012 154.906 427.076 155.242 427.076H156.046V428H155.062C154.454 428 153.998 427.86 153.694 427.58C153.39 427.3 153.238 426.84 153.238 426.2V422.324H152.386V421.424H153.238V419.768H154.33V421.424H156.046V422.324H154.33ZM160.237 428.108C159.621 428.108 159.061 427.968 158.557 427.688C158.061 427.408 157.669 427.012 157.381 426.5C157.101 425.98 156.961 425.38 156.961 424.7C156.961 424.028 157.105 423.436 157.393 422.924C157.689 422.404 158.089 422.008 158.593 421.736C159.097 421.456 159.661 421.316 160.285 421.316C160.909 421.316 161.473 421.456 161.977 421.736C162.481 422.008 162.877 422.4 163.165 422.912C163.461 423.424 163.609 424.02 163.609 424.7C163.609 425.38 163.457 425.98 163.153 426.5C162.857 427.012 162.453 427.408 161.941 427.688C161.429 427.968 160.861 428.108 160.237 428.108ZM160.237 427.148C160.629 427.148 160.997 427.056 161.341 426.872C161.685 426.688 161.961 426.412 162.169 426.044C162.385 425.676 162.493 425.228 162.493 424.7C162.493 424.172 162.389 423.724 162.181 423.356C161.973 422.988 161.701 422.716 161.365 422.54C161.029 422.356 160.665 422.264 160.273 422.264C159.873 422.264 159.505 422.356 159.169 422.54C158.841 422.716 158.577 422.988 158.377 423.356C158.177 423.724 158.077 424.172 158.077 424.7C158.077 425.236 158.173 425.688 158.365 426.056C158.565 426.424 158.829 426.7 159.157 426.884C159.485 427.06 159.845 427.148 160.237 427.148ZM171.916 428L169.336 425.096V428H168.244V419.12H169.336V424.34L171.868 421.424H173.392L170.296 424.7L173.404 428H171.916ZM177.624 421.304C178.424 421.304 179.072 421.548 179.568 422.036C180.064 422.516 180.312 423.212 180.312 424.124V428H179.232V424.28C179.232 423.624 179.068 423.124 178.74 422.78C178.412 422.428 177.964 422.252 177.396 422.252C176.82 422.252 176.36 422.432 176.016 422.792C175.68 423.152 175.512 423.676 175.512 424.364V428H174.42V421.424H175.512V422.36C175.728 422.024 176.02 421.764 176.388 421.58C176.764 421.396 177.176 421.304 177.624 421.304ZM184.964 428.108C184.348 428.108 183.788 427.968 183.284 427.688C182.788 427.408 182.396 427.012 182.108 426.5C181.828 425.98 181.688 425.38 181.688 424.7C181.688 424.028 181.832 423.436 182.12 422.924C182.416 422.404 182.816 422.008 183.32 421.736C183.824 421.456 184.388 421.316 185.012 421.316C185.636 421.316 186.2 421.456 186.704 421.736C187.208 422.008 187.604 422.4 187.892 422.912C188.188 423.424 188.336 424.02 188.336 424.7C188.336 425.38 188.184 425.98 187.88 426.5C187.584 427.012 187.18 427.408 186.668 427.688C186.156 427.968 185.588 428.108 184.964 428.108ZM184.964 427.148C185.356 427.148 185.724 427.056 186.068 426.872C186.412 426.688 186.688 426.412 186.896 426.044C187.112 425.676 187.22 425.228 187.22 424.7C187.22 424.172 187.116 423.724 186.908 423.356C186.7 422.988 186.428 422.716 186.092 422.54C185.756 422.356 185.392 422.264 185 422.264C184.6 422.264 184.232 422.356 183.896 422.54C183.568 422.716 183.304 422.988 183.104 423.356C182.904 423.724 182.804 424.172 182.804 424.7C182.804 425.236 182.9 425.688 183.092 426.056C183.292 426.424 183.556 426.7 183.884 426.884C184.212 427.06 184.572 427.148 184.964 427.148ZM198.532 421.424L196.48 428H195.352L193.768 422.78L192.184 428H191.056L188.992 421.424H190.108L191.62 426.944L193.252 421.424H194.368L195.964 426.956L197.452 421.424H198.532ZM210.723 421.304C211.235 421.304 211.691 421.412 212.091 421.628C212.491 421.836 212.807 422.152 213.039 422.576C213.271 423 213.387 423.516 213.387 424.124V428H212.307V424.28C212.307 423.624 212.143 423.124 211.815 422.78C211.495 422.428 211.059 422.252 210.507 422.252C209.939 422.252 209.487 422.436 209.151 422.804C208.815 423.164 208.647 423.688 208.647 424.376V428H207.567V424.28C207.567 423.624 207.403 423.124 207.075 422.78C206.755 422.428 206.319 422.252 205.767 422.252C205.199 422.252 204.747 422.436 204.411 422.804C204.075 423.164 203.907 423.688 203.907 424.376V428H202.815V421.424H203.907V422.372C204.123 422.028 204.411 421.764 204.771 421.58C205.139 421.396 205.543 421.304 205.983 421.304C206.535 421.304 207.023 421.428 207.447 421.676C207.871 421.924 208.187 422.288 208.395 422.768C208.579 422.304 208.883 421.944 209.307 421.688C209.731 421.432 210.203 421.304 210.723 421.304ZM218.046 428.108C217.43 428.108 216.87 427.968 216.366 427.688C215.87 427.408 215.478 427.012 215.19 426.5C214.91 425.98 214.77 425.38 214.77 424.7C214.77 424.028 214.914 423.436 215.202 422.924C215.498 422.404 215.898 422.008 216.402 421.736C216.906 421.456 217.47 421.316 218.094 421.316C218.718 421.316 219.282 421.456 219.786 421.736C220.29 422.008 220.686 422.4 220.974 422.912C221.27 423.424 221.418 424.02 221.418 424.7C221.418 425.38 221.266 425.98 220.962 426.5C220.666 427.012 220.262 427.408 219.75 427.688C219.238 427.968 218.67 428.108 218.046 428.108ZM218.046 427.148C218.438 427.148 218.806 427.056 219.15 426.872C219.494 426.688 219.77 426.412 219.978 426.044C220.194 425.676 220.302 425.228 220.302 424.7C220.302 424.172 220.198 423.724 219.99 423.356C219.782 422.988 219.51 422.716 219.174 422.54C218.838 422.356 218.474 422.264 218.082 422.264C217.682 422.264 217.314 422.356 216.978 422.54C216.65 422.716 216.386 422.988 216.186 423.356C215.986 423.724 215.886 424.172 215.886 424.7C215.886 425.236 215.982 425.688 216.174 426.056C216.374 426.424 216.638 426.7 216.966 426.884C217.294 427.06 217.654 427.148 218.046 427.148ZM223.946 422.492C224.138 422.116 224.41 421.824 224.762 421.616C225.122 421.408 225.558 421.304 226.07 421.304V422.432H225.782C224.558 422.432 223.946 423.096 223.946 424.424V428H222.854V421.424H223.946V422.492ZM233.33 424.46C233.33 424.668 233.318 424.888 233.294 425.12H228.038C228.078 425.768 228.298 426.276 228.698 426.644C229.106 427.004 229.598 427.184 230.174 427.184C230.646 427.184 231.038 427.076 231.35 426.86C231.67 426.636 231.894 426.34 232.022 425.972H233.198C233.022 426.604 232.67 427.12 232.142 427.52C231.614 427.912 230.958 428.108 230.174 428.108C229.55 428.108 228.99 427.968 228.494 427.688C228.006 427.408 227.622 427.012 227.342 426.5C227.062 425.98 226.922 425.38 226.922 424.7C226.922 424.02 227.058 423.424 227.33 422.912C227.602 422.4 227.982 422.008 228.47 421.736C228.966 421.456 229.534 421.316 230.174 421.316C230.798 421.316 231.35 421.452 231.83 421.724C232.31 421.996 232.678 422.372 232.934 422.852C233.198 423.324 233.33 423.86 233.33 424.46ZM232.202 424.232C232.202 423.816 232.11 423.46 231.926 423.164C231.742 422.86 231.49 422.632 231.17 422.48C230.858 422.32 230.51 422.24 230.126 422.24C229.574 422.24 229.102 422.416 228.71 422.768C228.326 423.12 228.106 423.608 228.05 424.232H232.202ZM237.563 424.688C237.563 424.016 237.699 423.428 237.971 422.924C238.243 422.412 238.615 422.016 239.087 421.736C239.567 421.456 240.099 421.316 240.683 421.316C241.259 421.316 241.759 421.44 242.183 421.688C242.607 421.936 242.923 422.248 243.131 422.624V421.424H244.235V428H243.131V426.776C242.915 427.16 242.591 427.48 242.159 427.736C241.735 427.984 241.239 428.108 240.671 428.108C240.087 428.108 239.559 427.964 239.087 427.676C238.615 427.388 238.243 426.984 237.971 426.464C237.699 425.944 237.563 425.352 237.563 424.688ZM243.131 424.7C243.131 424.204 243.031 423.772 242.831 423.404C242.631 423.036 242.359 422.756 242.015 422.564C241.679 422.364 241.307 422.264 240.899 422.264C240.491 422.264 240.119 422.36 239.783 422.552C239.447 422.744 239.179 423.024 238.979 423.392C238.779 423.76 238.679 424.192 238.679 424.688C238.679 425.192 238.779 425.632 238.979 426.008C239.179 426.376 239.447 426.66 239.783 426.86C240.119 427.052 240.491 427.148 240.899 427.148C241.307 427.148 241.679 427.052 242.015 426.86C242.359 426.66 242.631 426.376 242.831 426.008C243.031 425.632 243.131 425.196 243.131 424.7ZM247.172 422.648C247.396 422.256 247.724 421.936 248.156 421.688C248.588 421.44 249.08 421.316 249.632 421.316C250.224 421.316 250.756 421.456 251.228 421.736C251.7 422.016 252.072 422.412 252.344 422.924C252.616 423.428 252.752 424.016 252.752 424.688C252.752 425.352 252.616 425.944 252.344 426.464C252.072 426.984 251.696 427.388 251.216 427.676C250.744 427.964 250.216 428.108 249.632 428.108C249.064 428.108 248.564 427.984 248.132 427.736C247.708 427.488 247.388 427.172 247.172 426.788V428H246.08V419.12H247.172V422.648ZM251.636 424.688C251.636 424.192 251.536 423.76 251.336 423.392C251.136 423.024 250.864 422.744 250.52 422.552C250.184 422.36 249.812 422.264 249.404 422.264C249.004 422.264 248.632 422.364 248.288 422.564C247.952 422.756 247.68 423.04 247.472 423.416C247.272 423.784 247.172 424.212 247.172 424.7C247.172 425.196 247.272 425.632 247.472 426.008C247.68 426.376 247.952 426.66 248.288 426.86C248.632 427.052 249.004 427.148 249.404 427.148C249.812 427.148 250.184 427.052 250.52 426.86C250.864 426.66 251.136 426.376 251.336 426.008C251.536 425.632 251.636 425.192 251.636 424.688ZM257.058 428.108C256.442 428.108 255.882 427.968 255.378 427.688C254.882 427.408 254.49 427.012 254.202 426.5C253.922 425.98 253.782 425.38 253.782 424.7C253.782 424.028 253.926 423.436 254.214 422.924C254.51 422.404 254.91 422.008 255.414 421.736C255.918 421.456 256.482 421.316 257.106 421.316C257.73 421.316 258.294 421.456 258.798 421.736C259.302 422.008 259.698 422.4 259.986 422.912C260.282 423.424 260.43 424.02 260.43 424.7C260.43 425.38 260.278 425.98 259.974 426.5C259.678 427.012 259.274 427.408 258.762 427.688C258.25 427.968 257.682 428.108 257.058 428.108ZM257.058 427.148C257.45 427.148 257.818 427.056 258.162 426.872C258.506 426.688 258.782 426.412 258.99 426.044C259.206 425.676 259.314 425.228 259.314 424.7C259.314 424.172 259.21 423.724 259.002 423.356C258.794 422.988 258.522 422.716 258.186 422.54C257.85 422.356 257.486 422.264 257.094 422.264C256.694 422.264 256.326 422.356 255.99 422.54C255.662 422.716 255.398 422.988 255.198 423.356C254.998 423.724 254.898 424.172 254.898 424.7C254.898 425.236 254.994 425.688 255.186 426.056C255.386 426.424 255.65 426.7 255.978 426.884C256.306 427.06 256.666 427.148 257.058 427.148ZM267.697 421.424V428H266.605V427.028C266.397 427.364 266.105 427.628 265.729 427.82C265.361 428.004 264.953 428.096 264.505 428.096C263.993 428.096 263.533 427.992 263.125 427.784C262.717 427.568 262.393 427.248 262.153 426.824C261.921 426.4 261.805 425.884 261.805 425.276V421.424H262.885V425.132C262.885 425.78 263.049 426.28 263.377 426.632C263.705 426.976 264.153 427.148 264.721 427.148C265.305 427.148 265.765 426.968 266.101 426.608C266.437 426.248 266.605 425.724 266.605 425.036V421.424H267.697ZM270.873 422.324V426.2C270.873 426.52 270.941 426.748 271.077 426.884C271.213 427.012 271.449 427.076 271.785 427.076H272.589V428H271.605C270.997 428 270.541 427.86 270.237 427.58C269.933 427.3 269.781 426.84 269.781 426.2V422.324H268.929V421.424H269.781V419.768H270.873V421.424H272.589V422.324H270.873ZM282.776 421.424L278.816 431.096H277.688L278.984 427.928L276.332 421.424H277.544L279.608 426.752L281.648 421.424H282.776ZM286.741 428.108C286.125 428.108 285.565 427.968 285.061 427.688C284.565 427.408 284.173 427.012 283.885 426.5C283.605 425.98 283.465 425.38 283.465 424.7C283.465 424.028 283.609 423.436 283.897 422.924C284.193 422.404 284.593 422.008 285.097 421.736C285.601 421.456 286.165 421.316 286.789 421.316C287.413 421.316 287.977 421.456 288.481 421.736C288.985 422.008 289.381 422.4 289.669 422.912C289.965 423.424 290.113 424.02 290.113 424.7C290.113 425.38 289.961 425.98 289.657 426.5C289.361 427.012 288.957 427.408 288.445 427.688C287.933 427.968 287.365 428.108 286.741 428.108ZM286.741 427.148C287.133 427.148 287.501 427.056 287.845 426.872C288.189 426.688 288.465 426.412 288.673 426.044C288.889 425.676 288.997 425.228 288.997 424.7C288.997 424.172 288.893 423.724 288.685 423.356C288.477 422.988 288.205 422.716 287.869 422.54C287.533 422.356 287.169 422.264 286.777 422.264C286.377 422.264 286.009 422.356 285.673 422.54C285.345 422.716 285.081 422.988 284.881 423.356C284.681 423.724 284.581 424.172 284.581 424.7C284.581 425.236 284.677 425.688 284.869 426.056C285.069 426.424 285.333 426.7 285.661 426.884C285.989 427.06 286.349 427.148 286.741 427.148ZM297.381 421.424V428H296.289V427.028C296.081 427.364 295.789 427.628 295.413 427.82C295.045 428.004 294.637 428.096 294.189 428.096C293.677 428.096 293.217 427.992 292.809 427.784C292.401 427.568 292.077 427.248 291.837 426.824C291.605 426.4 291.489 425.884 291.489 425.276V421.424H292.569V425.132C292.569 425.78 292.733 426.28 293.061 426.632C293.389 426.976 293.837 427.148 294.405 427.148C294.989 427.148 295.449 426.968 295.785 426.608C296.121 426.248 296.289 425.724 296.289 425.036V421.424H297.381ZM300.641 419.636L300.509 425.636H299.597L299.465 419.636H300.641ZM300.101 428.072C299.893 428.072 299.717 428 299.573 427.856C299.429 427.712 299.357 427.536 299.357 427.328C299.357 427.12 299.429 426.944 299.573 426.8C299.717 426.656 299.893 426.584 300.101 426.584C300.301 426.584 300.469 426.656 300.605 426.8C300.749 426.944 300.821 427.12 300.821 427.328C300.821 427.536 300.749 427.712 300.605 427.856C300.469 428 300.301 428.072 300.101 428.072Z" fill="#7B6F72"/>
<g filter="url(#filter0_d_255_3893)">
<g filter="url(#filter1_d_255_3893)">
<rect x="40" y="730" width="315" height="60" rx="30" fill="url(#paint0_linear_255_3893)"/>
</g>
<path d="M178.142 766H175.406L170.83 759.072V766H168.094V754.768H170.83L175.406 761.728V754.768H178.142V766ZM188.541 761.392C188.541 761.648 188.525 761.915 188.493 762.192H182.301C182.343 762.747 182.519 763.173 182.829 763.472C183.149 763.76 183.538 763.904 183.997 763.904C184.679 763.904 185.154 763.616 185.421 763.04H188.333C188.183 763.627 187.911 764.155 187.517 764.624C187.133 765.093 186.647 765.461 186.061 765.728C185.474 765.995 184.818 766.128 184.093 766.128C183.218 766.128 182.439 765.941 181.757 765.568C181.074 765.195 180.541 764.661 180.157 763.968C179.773 763.275 179.581 762.464 179.581 761.536C179.581 760.608 179.767 759.797 180.141 759.104C180.525 758.411 181.058 757.877 181.741 757.504C182.423 757.131 183.207 756.944 184.093 756.944C184.957 756.944 185.725 757.125 186.397 757.488C187.069 757.851 187.591 758.368 187.965 759.04C188.349 759.712 188.541 760.496 188.541 761.392ZM185.741 760.672C185.741 760.203 185.581 759.829 185.261 759.552C184.941 759.275 184.541 759.136 184.061 759.136C183.602 759.136 183.213 759.269 182.893 759.536C182.583 759.803 182.391 760.181 182.317 760.672H185.741ZM195.264 766L193.552 763.52L192.112 766H189.152L192.096 761.44L189.072 757.072H192.144L193.856 759.536L195.296 757.072H198.256L195.264 761.568L198.336 766H195.264ZM204.366 763.68V766H202.974C201.982 766 201.209 765.76 200.654 765.28C200.1 764.789 199.822 763.995 199.822 762.896V759.344H198.734V757.072H199.822V754.896H202.558V757.072H204.35V759.344H202.558V762.928C202.558 763.195 202.622 763.387 202.75 763.504C202.878 763.621 203.092 763.68 203.39 763.68H204.366Z" fill="white"/>
<path d="M215.083 754.167L220.917 760L215.083 765.833" stroke="white" stroke-width="1.5" stroke-linecap="round" stroke-linejoin="round"/>
</g>
<path fill-rule="evenodd" clip-rule="evenodd" d="M186.418 337.733C168.057 334.451 152.191 323.255 133.64 321.323C104.431 318.283 61.6928 348.531 46.667 323.185C30.2989 295.575 89.2261 266.471 82.4976 235.055C75.9011 204.254 18.2844 202.988 14.2336 171.747C10.8809 145.889 44.3622 128.313 67.0038 115.561C87.2949 104.133 111.654 104.26 134.911 103.782C152.574 103.419 169.117 116.701 186.418 113.106C209.893 108.227 225.354 79.7067 249.324 80.0023C272.009 80.282 306.755 91.8041 307.04 114.593C307.461 148.173 238.678 165.165 250.784 196.469C265.667 234.956 339.169 215.256 359.781 250.977C373.031 273.939 342.4 303.001 321.953 319.808C302.064 336.155 274.567 338.591 249.089 341.961C228.067 344.742 207.293 341.465 186.418 337.733Z" fill="url(#paint1_linear_255_3893)"/>
<mask id="mask0_255_3893" style="mask-type:alpha" maskUnits="userSpaceOnUse" x="0" y="0" width="375" height="350">
<rect width="375" height="350" rx="30" fill="#C4C4C4"/>
</mask>
<g mask="url(#mask0_255_3893)">
<path d="M225.231 91.3478C225.231 91.3478 243.702 95.8013 251.015 104.396C258.328 112.991 255.814 135.143 253.907 147.896C252.001 160.648 246.89 169.867 252.938 174.321C258.985 178.774 261.154 174.649 261.154 174.649C261.154 174.649 252.938 188.651 244.277 190.574C235.617 192.496 223.571 181.65 221.665 172.102C219.758 162.554 218.477 148.208 220.021 138.331C221.566 128.455 224.59 125.102 226.118 118.414C227.646 111.725 226.43 100.583 226.43 100.583L225.231 91.3478Z" fill="#3B2645"/>
<path d="M198.478 332.938C235.417 332.938 265.362 307.841 265.362 276.883C265.362 245.924 235.417 220.828 198.478 220.828C161.538 220.828 131.593 245.924 131.593 276.883C131.593 307.841 161.538 332.938 198.478 332.938Z" fill="#AB8DA8"/>
<path d="M141.749 145.069L140.287 144.1L133.467 133.878L138.923 122.868L151.182 122.062L152.645 123.049L141.749 145.069Z" fill="#393762"/>
<path d="M154.008 144.28L141.749 145.069L134.929 134.848L140.368 123.837L152.644 123.048L159.448 133.27L154.008 144.28Z" fill="#636183"/>
<path d="M183.523 140.419C180.458 143.8 177.84 147.561 175.734 151.61C171.593 159.169 161.125 169.687 159.185 171.823C158.272 172.972 157.101 173.89 155.767 174.502C153.921 169.096 152.46 163.566 151.396 157.953C150.426 151.38 148.964 138.463 148.964 138.463L152.858 130.674C152.858 130.674 149.687 124.33 148.471 123.87C147.255 123.41 144.822 124.1 141.174 127.272C137.526 130.444 136.047 133.599 137.756 137.477C139.465 141.355 143.113 145.267 142.686 151.594C142.259 157.92 142.456 180.089 144.642 187.386C146.827 194.682 146.597 194.699 149.572 194.699C152.546 194.699 161.075 191.034 170.032 186.482C175.277 183.862 179.73 179.891 182.932 174.978L183.523 140.419Z" fill="#FFEDE5"/>
<path d="M202.027 136.534C197.941 135.84 193.76 135.918 189.702 136.764C183.655 138.227 180.516 142.089 179.3 149.106C178.084 156.123 173.745 164.833 176.654 171.406C179.563 177.98 182.208 183.025 182.455 188.333C182.573 193.399 182.337 198.468 181.748 203.501C181.268 204.507 180.719 205.479 180.105 206.41C180.105 206.41 179.612 210.272 167.517 206.886C155.422 203.501 139.958 204.471 124.001 208.102C108.044 211.734 99.5806 214.676 98.8575 219.951C98.1344 225.226 98.1344 258.143 99.5806 267.822C100.394 274.339 100.233 280.941 99.104 287.411C95.0962 290.2 90.7985 292.547 86.2858 294.411C79.5152 297.074 75.6533 298.52 76.853 300.985C78.0526 303.45 82.654 303.894 88.455 303.894C94.2561 303.894 102.243 303.417 102.243 303.417C102.243 303.417 94.9956 308.002 90.1477 311.141C85.2998 314.28 80.7313 315.019 82.9005 318.404C85.0697 321.79 105.907 320.82 110.953 320.82C115.998 320.82 121.832 318.881 122.308 316.712C122.785 314.543 120.862 307.032 120.862 304.14C120.862 301.248 120.139 288.413 123.031 282.612C125.924 276.811 130.295 259.885 130.048 253.36C129.802 246.836 129.325 242.728 129.325 242.728C129.325 242.728 157.098 246.541 167.944 250.402C178.79 254.264 202.997 257.42 214.369 251.865C225.741 246.31 230.326 239.523 228.633 229.86C226.941 220.198 222.339 213.904 223.555 202.532C224.771 191.159 224.755 180.05 227.664 174.496C230.572 168.941 237.096 159.015 236.603 152.491C236.11 145.967 224.032 139.344 217.984 137.011C211.937 134.677 202.027 136.534 202.027 136.534Z" fill="#FFEDE5"/>
<path d="M98.7918 220.532C98.0687 225.84 98.0687 258.724 99.5149 268.403C100.328 274.92 100.168 281.522 99.0383 287.992C95.0305 290.781 90.7328 293.128 86.2201 294.993C79.4495 297.655 75.5876 299.101 76.7873 301.566C77.9869 304.031 82.5883 304.475 88.3894 304.475C93.3194 304.475 99.7778 304.13 101.635 304.015C102.802 303.637 105.086 302.832 105.086 302.372C105.086 301.911 107.009 284.295 107.255 267.302C107.502 250.31 109.441 230.688 109.441 230.688L107.272 221.979C105.281 220.109 103.137 218.411 100.862 216.901C99.7567 217.822 99.0213 219.112 98.7918 220.532Z" fill="#FFEDE5"/>
<path d="M104.593 295.962C104.593 295.962 103.87 294.319 102.654 291.131C102.44 290.303 101.979 289.56 101.334 289C100.688 288.439 99.8878 288.088 99.0383 287.992C95.0305 290.781 90.7328 293.128 86.2201 294.993C79.4495 297.655 75.5876 299.101 76.7873 301.566C77.9869 304.031 82.5883 304.475 88.3894 304.475C93.3194 304.475 99.7778 304.13 101.635 304.015C102.802 303.637 105.086 302.832 105.086 302.372C105.086 302.109 105.316 299.742 105.645 296.077L104.593 295.962Z" fill="#3B2645"/>
<path d="M197.919 214.961C191.692 211.683 186.27 207.064 182.044 201.436C181.913 202.866 181.798 203.868 181.732 204.082C181.251 205.088 180.702 206.06 180.089 206.991C180.089 206.991 179.596 210.853 167.501 207.467C155.406 204.082 139.942 205.052 123.985 208.683C108.028 212.315 99.5644 215.257 98.8413 220.532C98.8413 220.779 98.8413 221.091 98.7427 221.452C99.6736 222.81 100.678 224.115 101.75 225.364C103.855 227.723 106.492 229.548 109.441 230.688C110.18 234.073 114.765 244.706 121.536 244.706C128.307 244.706 129.276 243.26 129.276 243.26C129.276 243.26 157.098 247.122 167.944 250.983C178.791 254.845 202.997 258.001 214.369 252.446C225.741 246.891 230.326 240.104 228.633 230.441C227.882 226.729 226.877 223.072 225.626 219.497C218.264 219.891 206.399 219.645 197.919 214.961Z" fill="#3B2645"/>
<path d="M181.748 204.082C181.267 205.088 180.718 206.06 180.105 206.991C180.105 206.991 179.612 210.853 167.517 207.468C155.422 204.082 139.958 205.052 124.001 208.684C108.044 212.316 99.5804 215.257 98.8573 220.532C98.7094 221.601 98.5944 223.819 98.5122 226.662C101.692 229.028 105.486 230.426 109.441 230.688C111.17 227.701 113.667 225.231 116.671 223.532C119.676 221.833 123.08 220.968 126.531 221.025C138.758 221.025 190.441 221.979 190.441 221.979L197.344 206.252C197.344 206.252 189.127 200.451 182.373 196.671C182.159 200.385 181.863 203.672 181.748 204.082Z" fill="#3B2645"/>
<path d="M223.653 205.348C224.278 202.669 236.603 188.503 237.836 183.573C239.068 178.643 243.587 163.639 239.479 155.012C235.37 146.384 230.227 144.33 230.227 144.33C226.452 141.555 222.344 139.264 218 137.51C211.969 135.094 202.043 137.033 202.043 137.033C197.957 136.339 193.776 136.417 189.718 137.263C183.671 138.726 180.532 142.588 179.316 149.605C178.1 156.622 173.745 165.414 176.653 171.988C179.562 178.561 182.208 183.606 182.454 188.914C182.573 193.98 182.337 199.049 181.748 204.082C181.267 205.088 180.718 206.06 180.104 206.991V207.09C181.896 210.787 186.004 218.593 190.523 221.978C194.766 222.109 198.845 223.64 202.125 226.333C207.055 230.688 213.021 231.641 219.545 231.641C222.641 231.518 225.705 230.965 228.649 229.998C227.006 221.387 223.21 215.389 223.473 205.89C223.569 205.723 223.63 205.539 223.653 205.348Z" fill="#AB8DA8"/>
<path d="M221.024 122.506C221.024 122.506 227.088 113.188 228.058 105.218C229.027 97.2478 227.581 89.8198 218.872 85.1527C210.162 80.4855 197.344 85.1527 193.482 89.8198C189.62 94.4869 190.096 103.361 189.127 105.3C188.157 107.239 183.802 110.378 184.295 111.594C184.788 112.81 187.927 114.47 187.927 114.47L189.571 121.964C190.047 124.149 191.493 127.042 193.186 127.042C195.487 126.802 197.77 126.418 200.022 125.891C200.022 125.891 200.499 133.451 199.069 136.491C197.146 140.599 187.237 165.217 191.592 167.715C195.947 170.213 214.369 150.887 219.677 146.778C224.985 142.67 218.033 137.592 218.033 137.592C218.033 137.592 215.651 137.494 216.62 131.446C217.046 128.057 218.597 124.909 221.024 122.506Z" fill="#FFEDE5"/>
<path d="M110.887 321.352C115.965 321.352 121.766 319.413 122.242 317.244C122.637 315.502 121.486 310.391 120.993 306.907C119.993 307.266 118.948 307.487 117.887 307.565C115.293 307.654 112.697 307.411 110.164 306.841C110.106 305.84 109.861 304.859 109.441 303.949C108.717 302.306 105.102 302.306 105.102 302.306L101.109 304.048H102.193C102.193 304.048 94.9462 308.633 90.0983 311.772C85.2504 314.91 80.6818 315.65 82.8511 319.035C85.0203 322.42 105.809 321.352 110.887 321.352Z" fill="#3B2645"/>
<path d="M231.181 106.894C232.134 98.9239 227.582 89.8197 218.872 85.1526C211.592 81.3072 201.469 83.9037 196.046 87.5355C197.13 87.7318 198.105 88.3159 198.79 89.1788C202.29 93.0078 200.433 100.009 203.572 103.197C206.711 106.385 208.338 105.432 208.338 105.432C208.338 105.432 211.855 99.6963 213.432 105.432C215.01 111.167 212.808 113.648 211.214 114.339C210.08 114.766 208.908 115.085 207.713 115.292C207.713 115.292 216.259 122.835 221.025 122.572C221.025 122.506 230.211 114.881 231.181 106.894Z" fill="#3B2645"/>
<path d="M145.94 148.52L144.494 147.534L137.674 137.313L143.113 126.302L155.373 125.513L156.835 126.483L145.94 148.52Z" fill="#393762"/>
<path d="M158.215 147.715L145.939 148.52L139.136 138.282L144.575 127.272L156.835 126.483L163.655 136.705L158.215 147.715Z" fill="#636183"/>
<path d="M243.521 240.104C241.814 236.084 240.824 231.796 240.596 227.434C240.596 222.981 235.485 211.494 235.485 208.946C236.177 198.94 237.406 188.978 239.166 179.103C241.96 169.703 241.73 159.531 239.478 155.012C237.227 150.492 228.172 151.314 225.707 158.709C223.242 166.104 223.39 180.451 223.39 180.451C222.568 186.893 222.01 201.256 221.747 209.883C221.566 217.558 223.193 225.298 226.874 230.82C232.083 238.642 234.548 248.896 236.142 248.896C237.737 248.896 246.183 247.845 246.183 247.845C246.183 247.845 246.627 246.974 243.521 240.104Z" fill="#FFEDE5"/>
<path d="M248.075 256.226C248.075 256.226 249.718 247.319 249.356 245.396C248.995 243.474 243.621 244.772 241.386 244.772C239.151 244.772 237.574 244.443 237.886 245.725C238.198 247.007 242.668 247.368 242.668 247.368L244.311 247.993L248.075 256.226Z" fill="#FFEDE5"/>
<path d="M259.002 249.915H226.2V254.369H259.002V249.915Z" fill="#636183"/>
<path d="M271.097 240.055H256.767V263.621H271.097V240.055Z" fill="#636183"/>
<path d="M226.825 240.055H212.495V263.621H226.825V240.055Z" fill="#636183"/>
<path d="M232.248 246.415L234.039 255.157C234.157 255.741 234.48 256.264 234.951 256.629C235.422 256.994 236.008 257.177 236.603 257.146C238.838 257.014 242.305 256.817 244.343 256.604C247.531 256.291 248.484 257.244 248.813 254.96C248.961 253.81 249.207 251.674 249.421 249.866C249.464 249.47 249.421 249.07 249.295 248.692C249.17 248.314 248.964 247.968 248.693 247.676C248.422 247.385 248.091 247.155 247.723 247.003C247.356 246.85 246.96 246.779 246.562 246.793C244.08 246.793 240.958 246.99 240.202 246.99C238.936 247.056 234.795 243.555 232.248 246.415Z" fill="#FFEDE5"/>
</g>
<rect x="30" y="463" width="315" height="48" rx="14" fill="#F7F8F8"/>
<path d="M326.25 484.375L321 489.625L315.75 484.375" stroke="#ADA4A5" stroke-width="1.2" stroke-linecap="round" stroke-linejoin="round"/>
<path d="M73.516 486.812C73.516 485.996 73.7 485.264 74.068 484.616C74.436 483.96 74.936 483.448 75.568 483.08C76.208 482.712 76.916 482.528 77.692 482.528C78.604 482.528 79.4 482.748 80.08 483.188C80.76 483.628 81.256 484.252 81.568 485.06H80.26C80.028 484.556 79.692 484.168 79.252 483.896C78.82 483.624 78.3 483.488 77.692 483.488C77.108 483.488 76.584 483.624 76.12 483.896C75.656 484.168 75.292 484.556 75.028 485.06C74.764 485.556 74.632 486.14 74.632 486.812C74.632 487.476 74.764 488.06 75.028 488.564C75.292 489.06 75.656 489.444 76.12 489.716C76.584 489.988 77.108 490.124 77.692 490.124C78.3 490.124 78.82 489.992 79.252 489.728C79.692 489.456 80.028 489.068 80.26 488.564H81.568C81.256 489.364 80.76 489.984 80.08 490.424C79.4 490.856 78.604 491.072 77.692 491.072C76.916 491.072 76.208 490.892 75.568 490.532C74.936 490.164 74.436 489.656 74.068 489.008C73.7 488.36 73.516 487.628 73.516 486.812ZM86.4575 484.304C86.9535 484.304 87.4015 484.412 87.8015 484.628C88.2015 484.836 88.5135 485.152 88.7375 485.576C88.9695 486 89.0855 486.516 89.0855 487.124V491H88.0055V487.28C88.0055 486.624 87.8415 486.124 87.5135 485.78C87.1855 485.428 86.7375 485.252 86.1695 485.252C85.5935 485.252 85.1335 485.432 84.7895 485.792C84.4535 486.152 84.2855 486.676 84.2855 487.364V491H83.1935V482.12H84.2855V485.36C84.5015 485.024 84.7975 484.764 85.1735 484.58C85.5575 484.396 85.9855 484.304 86.4575 484.304ZM93.7373 491.108C93.1213 491.108 92.5613 490.968 92.0573 490.688C91.5613 490.408 91.1693 490.012 90.8813 489.5C90.6013 488.98 90.4613 488.38 90.4613 487.7C90.4613 487.028 90.6053 486.436 90.8933 485.924C91.1893 485.404 91.5893 485.008 92.0933 484.736C92.5973 484.456 93.1613 484.316 93.7853 484.316C94.4093 484.316 94.9733 484.456 95.4773 484.736C95.9813 485.008 96.3773 485.4 96.6653 485.912C96.9613 486.424 97.1093 487.02 97.1093 487.7C97.1093 488.38 96.9573 488.98 96.6533 489.5C96.3573 490.012 95.9533 490.408 95.4413 490.688C94.9293 490.968 94.3613 491.108 93.7373 491.108ZM93.7373 490.148C94.1293 490.148 94.4973 490.056 94.8413 489.872C95.1853 489.688 95.4613 489.412 95.6693 489.044C95.8853 488.676 95.9933 488.228 95.9933 487.7C95.9933 487.172 95.8893 486.724 95.6813 486.356C95.4733 485.988 95.2013 485.716 94.8653 485.54C94.5293 485.356 94.1653 485.264 93.7733 485.264C93.3733 485.264 93.0053 485.356 92.6693 485.54C92.3413 485.716 92.0773 485.988 91.8773 486.356C91.6773 486.724 91.5773 487.172 91.5773 487.7C91.5773 488.236 91.6733 488.688 91.8653 489.056C92.0653 489.424 92.3293 489.7 92.6573 489.884C92.9853 490.06 93.3453 490.148 93.7373 490.148ZM101.413 491.108C100.797 491.108 100.237 490.968 99.7331 490.688C99.2371 490.408 98.8451 490.012 98.5571 489.5C98.2771 488.98 98.1371 488.38 98.1371 487.7C98.1371 487.028 98.2811 486.436 98.5691 485.924C98.8651 485.404 99.2651 485.008 99.7691 484.736C100.273 484.456 100.837 484.316 101.461 484.316C102.085 484.316 102.649 484.456 103.153 484.736C103.657 485.008 104.053 485.4 104.341 485.912C104.637 486.424 104.785 487.02 104.785 487.7C104.785 488.38 104.633 488.98 104.329 489.5C104.033 490.012 103.629 490.408 103.117 490.688C102.605 490.968 102.037 491.108 101.413 491.108ZM101.413 490.148C101.805 490.148 102.173 490.056 102.517 489.872C102.861 489.688 103.137 489.412 103.345 489.044C103.561 488.676 103.669 488.228 103.669 487.7C103.669 487.172 103.565 486.724 103.357 486.356C103.149 485.988 102.877 485.716 102.541 485.54C102.205 485.356 101.841 485.264 101.449 485.264C101.049 485.264 100.681 485.356 100.345 485.54C100.017 485.716 99.7531 485.988 99.5531 486.356C99.3531 486.724 99.2531 487.172 99.2531 487.7C99.2531 488.236 99.3491 488.688 99.5411 489.056C99.7411 489.424 100.005 489.7 100.333 489.884C100.661 490.06 101.021 490.148 101.413 490.148ZM108.549 491.108C108.045 491.108 107.593 491.024 107.193 490.856C106.793 490.68 106.477 490.44 106.245 490.136C106.013 489.824 105.885 489.468 105.861 489.068H106.989C107.021 489.396 107.173 489.664 107.445 489.872C107.725 490.08 108.089 490.184 108.537 490.184C108.953 490.184 109.281 490.092 109.521 489.908C109.761 489.724 109.881 489.492 109.881 489.212C109.881 488.924 109.753 488.712 109.497 488.576C109.241 488.432 108.845 488.292 108.309 488.156C107.821 488.028 107.421 487.9 107.109 487.772C106.805 487.636 106.541 487.44 106.317 487.184C106.101 486.92 105.993 486.576 105.993 486.152C105.993 485.816 106.093 485.508 106.293 485.228C106.493 484.948 106.777 484.728 107.145 484.568C107.513 484.4 107.933 484.316 108.405 484.316C109.133 484.316 109.721 484.5 110.169 484.868C110.617 485.236 110.857 485.74 110.889 486.38H109.797C109.773 486.036 109.633 485.76 109.377 485.552C109.129 485.344 108.793 485.24 108.369 485.24C107.977 485.24 107.665 485.324 107.433 485.492C107.201 485.66 107.085 485.88 107.085 486.152C107.085 486.368 107.153 486.548 107.289 486.692C107.433 486.828 107.609 486.94 107.817 487.028C108.033 487.108 108.329 487.2 108.705 487.304C109.177 487.432 109.561 487.56 109.857 487.688C110.153 487.808 110.405 487.992 110.613 488.24C110.829 488.488 110.941 488.812 110.949 489.212C110.949 489.572 110.849 489.896 110.649 490.184C110.449 490.472 110.165 490.7 109.797 490.868C109.437 491.028 109.021 491.108 108.549 491.108ZM118.49 487.46C118.49 487.668 118.478 487.888 118.454 488.12H113.198C113.238 488.768 113.458 489.276 113.858 489.644C114.266 490.004 114.758 490.184 115.334 490.184C115.806 490.184 116.198 490.076 116.51 489.86C116.83 489.636 117.054 489.34 117.182 488.972H118.358C118.182 489.604 117.83 490.12 117.302 490.52C116.774 490.912 116.118 491.108 115.334 491.108C114.71 491.108 114.15 490.968 113.654 490.688C113.166 490.408 112.782 490.012 112.502 489.5C112.222 488.98 112.082 488.38 112.082 487.7C112.082 487.02 112.218 486.424 112.49 485.912C112.762 485.4 113.142 485.008 113.63 484.736C114.126 484.456 114.694 484.316 115.334 484.316C115.958 484.316 116.51 484.452 116.99 484.724C117.47 484.996 117.838 485.372 118.094 485.852C118.358 486.324 118.49 486.86 118.49 487.46ZM117.362 487.232C117.362 486.816 117.27 486.46 117.086 486.164C116.902 485.86 116.65 485.632 116.33 485.48C116.018 485.32 115.67 485.24 115.286 485.24C114.734 485.24 114.262 485.416 113.87 485.768C113.486 486.12 113.266 486.608 113.21 487.232H117.362ZM129.467 485.06C129.235 484.572 128.899 484.196 128.459 483.932C128.019 483.66 127.507 483.524 126.923 483.524C126.339 483.524 125.811 483.66 125.339 483.932C124.875 484.196 124.507 484.58 124.235 485.084C123.971 485.58 123.839 486.156 123.839 486.812C123.839 487.468 123.971 488.044 124.235 488.54C124.507 489.036 124.875 489.42 125.339 489.692C125.811 489.956 126.339 490.088 126.923 490.088C127.739 490.088 128.411 489.844 128.939 489.356C129.467 488.868 129.775 488.208 129.863 487.376H126.527V486.488H131.027V487.328C130.963 488.016 130.747 488.648 130.379 489.224C130.011 489.792 129.527 490.244 128.927 490.58C128.327 490.908 127.659 491.072 126.923 491.072C126.147 491.072 125.439 490.892 124.799 490.532C124.159 490.164 123.651 489.656 123.275 489.008C122.907 488.36 122.723 487.628 122.723 486.812C122.723 485.996 122.907 485.264 123.275 484.616C123.651 483.96 124.159 483.452 124.799 483.092C125.439 482.724 126.147 482.54 126.923 482.54C127.811 482.54 128.595 482.76 129.275 483.2C129.963 483.64 130.463 484.26 130.775 485.06H129.467ZM138.471 487.46C138.471 487.668 138.459 487.888 138.435 488.12H133.179C133.219 488.768 133.439 489.276 133.839 489.644C134.247 490.004 134.739 490.184 135.315 490.184C135.787 490.184 136.179 490.076 136.491 489.86C136.811 489.636 137.035 489.34 137.163 488.972H138.339C138.163 489.604 137.811 490.12 137.283 490.52C136.755 490.912 136.099 491.108 135.315 491.108C134.691 491.108 134.131 490.968 133.635 490.688C133.147 490.408 132.763 490.012 132.483 489.5C132.203 488.98 132.063 488.38 132.063 487.7C132.063 487.02 132.199 486.424 132.471 485.912C132.743 485.4 133.123 485.008 133.611 484.736C134.107 484.456 134.675 484.316 135.315 484.316C135.939 484.316 136.491 484.452 136.971 484.724C137.451 484.996 137.819 485.372 138.075 485.852C138.339 486.324 138.471 486.86 138.471 487.46ZM137.343 487.232C137.343 486.816 137.251 486.46 137.067 486.164C136.883 485.86 136.631 485.632 136.311 485.48C135.999 485.32 135.651 485.24 135.267 485.24C134.715 485.24 134.243 485.416 133.851 485.768C133.467 486.12 133.247 486.608 133.191 487.232H137.343ZM143.116 484.304C143.916 484.304 144.564 484.548 145.06 485.036C145.556 485.516 145.804 486.212 145.804 487.124V491H144.724V487.28C144.724 486.624 144.56 486.124 144.232 485.78C143.904 485.428 143.456 485.252 142.888 485.252C142.312 485.252 141.852 485.432 141.508 485.792C141.172 486.152 141.004 486.676 141.004 487.364V491H139.912V484.424H141.004V485.36C141.22 485.024 141.512 484.764 141.88 484.58C142.256 484.396 142.668 484.304 143.116 484.304ZM147.18 487.688C147.18 487.016 147.316 486.428 147.588 485.924C147.86 485.412 148.232 485.016 148.704 484.736C149.184 484.456 149.72 484.316 150.312 484.316C150.824 484.316 151.3 484.436 151.74 484.676C152.18 484.908 152.516 485.216 152.748 485.6V482.12H153.852V491H152.748V489.764C152.532 490.156 152.212 490.48 151.788 490.736C151.364 490.984 150.868 491.108 150.3 491.108C149.716 491.108 149.184 490.964 148.704 490.676C148.232 490.388 147.86 489.984 147.588 489.464C147.316 488.944 147.18 488.352 147.18 487.688ZM152.748 487.7C152.748 487.204 152.648 486.772 152.448 486.404C152.248 486.036 151.976 485.756 151.632 485.564C151.296 485.364 150.924 485.264 150.516 485.264C150.108 485.264 149.736 485.36 149.4 485.552C149.064 485.744 148.796 486.024 148.596 486.392C148.396 486.76 148.296 487.192 148.296 487.688C148.296 488.192 148.396 488.632 148.596 489.008C148.796 489.376 149.064 489.66 149.4 489.86C149.736 490.052 150.108 490.148 150.516 490.148C150.924 490.148 151.296 490.052 151.632 489.86C151.976 489.66 152.248 489.376 152.448 489.008C152.648 488.632 152.748 488.196 152.748 487.7ZM161.697 487.46C161.697 487.668 161.685 487.888 161.661 488.12H156.405C156.445 488.768 156.665 489.276 157.065 489.644C157.473 490.004 157.965 490.184 158.541 490.184C159.013 490.184 159.405 490.076 159.717 489.86C160.037 489.636 160.261 489.34 160.389 488.972H161.565C161.389 489.604 161.037 490.12 160.509 490.52C159.981 490.912 159.325 491.108 158.541 491.108C157.917 491.108 157.357 490.968 156.861 490.688C156.373 490.408 155.989 490.012 155.709 489.5C155.429 488.98 155.289 488.38 155.289 487.7C155.289 487.02 155.425 486.424 155.697 485.912C155.969 485.4 156.349 485.008 156.837 484.736C157.333 484.456 157.901 484.316 158.541 484.316C159.165 484.316 159.717 484.452 160.197 484.724C160.677 484.996 161.045 485.372 161.301 485.852C161.565 486.324 161.697 486.86 161.697 487.46ZM160.569 487.232C160.569 486.816 160.477 486.46 160.293 486.164C160.109 485.86 159.857 485.632 159.537 485.48C159.225 485.32 158.877 485.24 158.493 485.24C157.941 485.24 157.469 485.416 157.077 485.768C156.693 486.12 156.473 486.608 156.417 487.232H160.569ZM164.231 485.492C164.423 485.116 164.695 484.824 165.047 484.616C165.407 484.408 165.843 484.304 166.355 484.304V485.432H166.067C164.843 485.432 164.231 486.096 164.231 487.424V491H163.139V484.424H164.231V485.492Z" fill="#ADA4A5"/>
<path fill-rule="evenodd" clip-rule="evenodd" d="M52.1935 489.405C54.9603 489.405 57.325 489.824 57.325 491.499C57.325 493.174 54.976 493.605 52.1935 493.605C49.426 493.605 47.062 493.19 47.062 491.514C47.062 489.839 49.4103 489.405 52.1935 489.405Z" stroke="#7B6F72" stroke-width="1.2" stroke-linecap="round" stroke-linejoin="round"/>
<path fill-rule="evenodd" clip-rule="evenodd" d="M52.1936 487.015C50.3771 487.015 48.9041 485.543 48.9041 483.726C48.9041 481.91 50.3771 480.437 52.1936 480.437C54.0093 480.437 55.4823 481.91 55.4823 483.726C55.4891 485.536 54.0266 487.008 52.2168 487.015H52.1936Z" stroke="#7B6F72" stroke-width="1.2" stroke-linecap="round" stroke-linejoin="round"/>
<path d="M57.3623 486.161C58.5631 485.992 59.4878 484.962 59.4901 483.715C59.4901 482.485 58.5938 481.465 57.4186 481.273" stroke="#7B6F72" stroke-width="1.2" stroke-linecap="round" stroke-linejoin="round"/>
<path d="M58.9465 489.049C60.1098 489.222 60.922 489.63 60.922 490.47C60.922 491.049 60.5395 491.424 59.9215 491.658" stroke="#7B6F72" stroke-width="1.2" stroke-linecap="round" stroke-linejoin="round"/>
<rect x="30" y="526" width="315" height="48" rx="14" fill="#F7F8F8"/>
<path d="M76.528 545.636C77.44 545.636 78.228 545.808 78.892 546.152C79.564 546.488 80.076 546.972 80.428 547.604C80.788 548.236 80.968 548.98 80.968 549.836C80.968 550.692 80.788 551.436 80.428 552.068C80.076 552.692 79.564 553.172 78.892 553.508C78.228 553.836 77.44 554 76.528 554H73.924V545.636H76.528ZM76.528 553.1C77.608 553.1 78.432 552.816 79 552.248C79.568 551.672 79.852 550.868 79.852 549.836C79.852 548.796 79.564 547.984 78.988 547.4C78.42 546.816 77.6 546.524 76.528 546.524H75.016V553.1H76.528ZM82.0004 550.688C82.0004 550.016 82.1364 549.428 82.4084 548.924C82.6804 548.412 83.0524 548.016 83.5244 547.736C84.0044 547.456 84.5364 547.316 85.1204 547.316C85.6964 547.316 86.1964 547.44 86.6204 547.688C87.0444 547.936 87.3604 548.248 87.5684 548.624V547.424H88.6724V554H87.5684V552.776C87.3524 553.16 87.0284 553.48 86.5964 553.736C86.1724 553.984 85.6764 554.108 85.1084 554.108C84.5244 554.108 83.9964 553.964 83.5244 553.676C83.0524 553.388 82.6804 552.984 82.4084 552.464C82.1364 551.944 82.0004 551.352 82.0004 550.688ZM87.5684 550.7C87.5684 550.204 87.4684 549.772 87.2684 549.404C87.0684 549.036 86.7964 548.756 86.4524 548.564C86.1164 548.364 85.7444 548.264 85.3364 548.264C84.9284 548.264 84.5564 548.36 84.2204 548.552C83.8844 548.744 83.6164 549.024 83.4164 549.392C83.2164 549.76 83.1164 550.192 83.1164 550.688C83.1164 551.192 83.2164 551.632 83.4164 552.008C83.6164 552.376 83.8844 552.66 84.2204 552.86C84.5564 553.052 84.9284 553.148 85.3364 553.148C85.7444 553.148 86.1164 553.052 86.4524 552.86C86.7964 552.66 87.0684 552.376 87.2684 552.008C87.4684 551.632 87.5684 551.196 87.5684 550.7ZM91.8498 548.324V552.2C91.8498 552.52 91.9178 552.748 92.0538 552.884C92.1898 553.012 92.4258 553.076 92.7617 553.076H93.5658V554H92.5818C91.9738 554 91.5178 553.86 91.2138 553.58C90.9098 553.3 90.7578 552.84 90.7578 552.2V548.324H89.9058V547.424H90.7578V545.768H91.8498V547.424H93.5658V548.324H91.8498ZM100.889 550.46C100.889 550.668 100.877 550.888 100.853 551.12H95.5968C95.6368 551.768 95.8568 552.276 96.2568 552.644C96.6648 553.004 97.1568 553.184 97.7328 553.184C98.2048 553.184 98.5968 553.076 98.9088 552.86C99.2288 552.636 99.4528 552.34 99.5808 551.972H100.757C100.581 552.604 100.229 553.12 99.7008 553.52C99.1728 553.912 98.5168 554.108 97.7328 554.108C97.1088 554.108 96.5488 553.968 96.0528 553.688C95.5648 553.408 95.1808 553.012 94.9008 552.5C94.6208 551.98 94.4808 551.38 94.4808 550.7C94.4808 550.02 94.6168 549.424 94.8888 548.912C95.1608 548.4 95.5408 548.008 96.0288 547.736C96.5248 547.456 97.0928 547.316 97.7328 547.316C98.3568 547.316 98.9088 547.452 99.3888 547.724C99.8688 547.996 100.237 548.372 100.493 548.852C100.757 549.324 100.889 549.86 100.889 550.46ZM99.7608 550.232C99.7608 549.816 99.6688 549.46 99.4848 549.164C99.3008 548.86 99.0488 548.632 98.7288 548.48C98.4168 548.32 98.0688 548.24 97.6848 548.24C97.1328 548.24 96.6608 548.416 96.2688 548.768C95.8848 549.12 95.6648 549.608 95.6088 550.232H99.7608ZM108.397 554.108C107.781 554.108 107.221 553.968 106.717 553.688C106.221 553.408 105.829 553.012 105.541 552.5C105.261 551.98 105.121 551.38 105.121 550.7C105.121 550.028 105.265 549.436 105.553 548.924C105.849 548.404 106.249 548.008 106.753 547.736C107.257 547.456 107.821 547.316 108.445 547.316C109.069 547.316 109.633 547.456 110.137 547.736C110.641 548.008 111.037 548.4 111.325 548.912C111.621 549.424 111.769 550.02 111.769 550.7C111.769 551.38 111.617 551.98 111.313 552.5C111.017 553.012 110.613 553.408 110.101 553.688C109.589 553.968 109.021 554.108 108.397 554.108ZM108.397 553.148C108.789 553.148 109.157 553.056 109.501 552.872C109.845 552.688 110.121 552.412 110.329 552.044C110.545 551.676 110.653 551.228 110.653 550.7C110.653 550.172 110.549 549.724 110.341 549.356C110.133 548.988 109.861 548.716 109.525 548.54C109.189 548.356 108.825 548.264 108.433 548.264C108.033 548.264 107.665 548.356 107.329 548.54C107.001 548.716 106.737 548.988 106.537 549.356C106.337 549.724 106.237 550.172 106.237 550.7C106.237 551.236 106.333 551.688 106.525 552.056C106.725 552.424 106.989 552.7 107.317 552.884C107.645 553.06 108.005 553.148 108.397 553.148ZM115.881 548.324H114.501V554H113.409V548.324H112.557V547.424H113.409V546.956C113.409 546.22 113.597 545.684 113.973 545.348C114.357 545.004 114.969 544.832 115.809 544.832V545.744C115.329 545.744 114.989 545.84 114.789 546.032C114.597 546.216 114.501 546.524 114.501 546.956V547.424H115.881V548.324ZM124.542 549.692C124.846 549.74 125.122 549.864 125.37 550.064C125.626 550.264 125.826 550.512 125.97 550.808C126.122 551.104 126.198 551.42 126.198 551.756C126.198 552.18 126.09 552.564 125.874 552.908C125.658 553.244 125.342 553.512 124.926 553.712C124.518 553.904 124.034 554 123.474 554H120.354V545.636H123.354C123.922 545.636 124.406 545.732 124.806 545.924C125.206 546.108 125.506 546.36 125.706 546.68C125.906 547 126.006 547.36 126.006 547.76C126.006 548.256 125.87 548.668 125.598 548.996C125.334 549.316 124.982 549.548 124.542 549.692ZM121.446 549.248H123.282C123.794 549.248 124.19 549.128 124.47 548.888C124.75 548.648 124.89 548.316 124.89 547.892C124.89 547.468 124.75 547.136 124.47 546.896C124.19 546.656 123.786 546.536 123.258 546.536H121.446V549.248ZM123.378 553.1C123.922 553.1 124.346 552.972 124.65 552.716C124.954 552.46 125.106 552.104 125.106 551.648C125.106 551.184 124.946 550.82 124.626 550.556C124.306 550.284 123.878 550.148 123.342 550.148H121.446V553.1H123.378ZM128.277 546.356C128.069 546.356 127.893 546.284 127.749 546.14C127.605 545.996 127.533 545.82 127.533 545.612C127.533 545.404 127.605 545.228 127.749 545.084C127.893 544.94 128.069 544.868 128.277 544.868C128.477 544.868 128.645 544.94 128.781 545.084C128.925 545.228 128.997 545.404 128.997 545.612C128.997 545.82 128.925 545.996 128.781 546.14C128.645 546.284 128.477 546.356 128.277 546.356ZM128.805 547.424V554H127.713V547.424H128.805ZM131.758 548.492C131.95 548.116 132.222 547.824 132.574 547.616C132.934 547.408 133.37 547.304 133.882 547.304V548.432H133.594C132.37 548.432 131.758 549.096 131.758 550.424V554H130.666V547.424H131.758V548.492ZM136.475 548.324V552.2C136.475 552.52 136.543 552.748 136.679 552.884C136.815 553.012 137.051 553.076 137.387 553.076H138.191V554H137.207C136.599 554 136.143 553.86 135.839 553.58C135.535 553.3 135.383 552.84 135.383 552.2V548.324H134.531V547.424H135.383V545.768H136.475V547.424H138.191V548.324H136.475ZM142.778 547.304C143.274 547.304 143.722 547.412 144.122 547.628C144.522 547.836 144.834 548.152 145.058 548.576C145.29 549 145.406 549.516 145.406 550.124V554H144.326V550.28C144.326 549.624 144.162 549.124 143.834 548.78C143.506 548.428 143.058 548.252 142.49 548.252C141.914 548.252 141.454 548.432 141.11 548.792C140.774 549.152 140.606 549.676 140.606 550.364V554H139.514V545.12H140.606V548.36C140.822 548.024 141.118 547.764 141.494 547.58C141.878 547.396 142.306 547.304 142.778 547.304Z" fill="#ADA4A5"/>
<path d="M47.3196 548.053H60.6875" stroke="#7B6F72" stroke-width="1.2" stroke-linecap="round" stroke-linejoin="round"/>
<path d="M57.3315 550.982H57.3384" stroke="#7B6F72" stroke-width="1.2" stroke-linecap="round" stroke-linejoin="round"/>
<path d="M54.0034 550.982H54.0103" stroke="#7B6F72" stroke-width="1.2" stroke-linecap="round" stroke-linejoin="round"/>
<path d="M50.6684 550.982H50.6753" stroke="#7B6F72" stroke-width="1.2" stroke-linecap="round" stroke-linejoin="round"/>
<path d="M57.3315 553.897H57.3384" stroke="#7B6F72" stroke-width="1.2" stroke-linecap="round" stroke-linejoin="round"/>
<path d="M54.0034 553.897H54.0103" stroke="#7B6F72" stroke-width="1.2" stroke-linecap="round" stroke-linejoin="round"/>
<path d="M50.6684 553.897H50.6753" stroke="#7B6F72" stroke-width="1.2" stroke-linecap="round" stroke-linejoin="round"/>
<path d="M57.0327 542.5V544.968" stroke="#7B6F72" stroke-width="1.2" stroke-linecap="round" stroke-linejoin="round"/>
<path d="M50.9741 542.5V544.968" stroke="#7B6F72" stroke-width="1.2" stroke-linecap="round" stroke-linejoin="round"/>
<path fill-rule="evenodd" clip-rule="evenodd" d="M57.1787 543.684H50.8282C48.6257 543.684 47.25 544.911 47.25 547.167V553.954C47.25 556.245 48.6257 557.5 50.8282 557.5H57.1718C59.3812 557.5 60.75 556.266 60.75 554.011V547.167C60.7569 544.911 59.3882 543.684 57.1787 543.684Z" stroke="#7B6F72" stroke-width="1.2" stroke-linecap="round" stroke-linejoin="round"/>
<rect x="30" y="589" width="252" height="48" rx="14" fill="#F7F8F8"/>
<rect x="297" y="589" width="48" height="48" rx="14" fill="url(#paint2_linear_255_3893)"/>
<path d="M318.496 617L315.268 613.268V617H313.9V608.66H315.268V612.464L318.508 608.66H320.224L316.6 612.836L320.284 617H318.496ZM327.53 611.06C327.314 610.644 327.014 610.332 326.63 610.124C326.246 609.908 325.802 609.8 325.298 609.8C324.746 609.8 324.254 609.924 323.822 610.172C323.39 610.42 323.05 610.772 322.802 611.228C322.562 611.684 322.442 612.212 322.442 612.812C322.442 613.412 322.562 613.944 322.802 614.408C323.05 614.864 323.39 615.216 323.822 615.464C324.254 615.712 324.746 615.836 325.298 615.836C326.042 615.836 326.646 615.628 327.11 615.212C327.574 614.796 327.858 614.232 327.962 613.52H324.83V612.428H329.426V613.496C329.338 614.144 329.106 614.74 328.73 615.284C328.362 615.828 327.878 616.264 327.278 616.592C326.686 616.912 326.026 617.072 325.298 617.072C324.514 617.072 323.798 616.892 323.15 616.532C322.502 616.164 321.986 615.656 321.602 615.008C321.226 614.36 321.038 613.628 321.038 612.812C321.038 611.996 321.226 611.264 321.602 610.616C321.986 609.968 322.502 609.464 323.15 609.104C323.806 608.736 324.522 608.552 325.298 608.552C326.186 608.552 326.974 608.772 327.662 609.212C328.358 609.644 328.862 610.26 329.174 611.06H327.53Z" fill="white"/>
<path d="M79.78 608.636L77.056 613.844V617H75.964V613.844L73.228 608.636H74.44L76.504 612.872L78.568 608.636H79.78ZM83.7998 617.108C83.1838 617.108 82.6238 616.968 82.1198 616.688C81.6238 616.408 81.2318 616.012 80.9438 615.5C80.6638 614.98 80.5238 614.38 80.5238 613.7C80.5238 613.028 80.6678 612.436 80.9558 611.924C81.2518 611.404 81.6518 611.008 82.1558 610.736C82.6598 610.456 83.2238 610.316 83.8478 610.316C84.4718 610.316 85.0358 610.456 85.5398 610.736C86.0438 611.008 86.4398 611.4 86.7278 611.912C87.0238 612.424 87.1718 613.02 87.1718 613.7C87.1718 614.38 87.0198 614.98 86.7158 615.5C86.4198 616.012 86.0158 616.408 85.5038 616.688C84.9918 616.968 84.4238 617.108 83.7998 617.108ZM83.7998 616.148C84.1918 616.148 84.5598 616.056 84.9038 615.872C85.2478 615.688 85.5238 615.412 85.7318 615.044C85.9478 614.676 86.0558 614.228 86.0558 613.7C86.0558 613.172 85.9518 612.724 85.7438 612.356C85.5358 611.988 85.2638 611.716 84.9278 611.54C84.5918 611.356 84.2278 611.264 83.8358 611.264C83.4358 611.264 83.0678 611.356 82.7318 611.54C82.4038 611.716 82.1398 611.988 81.9398 612.356C81.7398 612.724 81.6398 613.172 81.6398 613.7C81.6398 614.236 81.7358 614.688 81.9278 615.056C82.1278 615.424 82.3918 615.7 82.7198 615.884C83.0478 616.06 83.4078 616.148 83.7998 616.148ZM94.4396 610.424V617H93.3476V616.028C93.1396 616.364 92.8476 616.628 92.4716 616.82C92.1036 617.004 91.6956 617.096 91.2476 617.096C90.7356 617.096 90.2756 616.992 89.8676 616.784C89.4596 616.568 89.1356 616.248 88.8956 615.824C88.6636 615.4 88.5476 614.884 88.5476 614.276V610.424H89.6276V614.132C89.6276 614.78 89.7916 615.28 90.1196 615.632C90.4476 615.976 90.8956 616.148 91.4636 616.148C92.0476 616.148 92.5076 615.968 92.8436 615.608C93.1796 615.248 93.3476 614.724 93.3476 614.036V610.424H94.4396ZM97.3754 611.492C97.5674 611.116 97.8394 610.824 98.1914 610.616C98.5514 610.408 98.9874 610.304 99.4994 610.304V611.432H99.2114C97.9874 611.432 97.3754 612.096 97.3754 613.424V617H96.2834V610.424H97.3754V611.492ZM114.471 608.636L112.047 617H110.823L108.879 610.268L106.863 617L105.651 617.012L103.311 608.636H104.475L106.299 615.728L108.315 608.636H109.539L111.459 615.704L113.295 608.636H114.471ZM121.666 613.46C121.666 613.668 121.654 613.888 121.63 614.12H116.374C116.414 614.768 116.634 615.276 117.034 615.644C117.442 616.004 117.934 616.184 118.51 616.184C118.982 616.184 119.374 616.076 119.686 615.86C120.006 615.636 120.23 615.34 120.358 614.972H121.534C121.358 615.604 121.006 616.12 120.478 616.52C119.95 616.912 119.294 617.108 118.51 617.108C117.886 617.108 117.326 616.968 116.83 616.688C116.342 616.408 115.958 616.012 115.678 615.5C115.398 614.98 115.258 614.38 115.258 613.7C115.258 613.02 115.394 612.424 115.666 611.912C115.938 611.4 116.318 611.008 116.806 610.736C117.302 610.456 117.87 610.316 118.51 610.316C119.134 610.316 119.686 610.452 120.166 610.724C120.646 610.996 121.014 611.372 121.27 611.852C121.534 612.324 121.666 612.86 121.666 613.46ZM120.538 613.232C120.538 612.816 120.446 612.46 120.262 612.164C120.078 611.86 119.826 611.632 119.506 611.48C119.194 611.32 118.846 611.24 118.462 611.24C117.91 611.24 117.438 611.416 117.046 611.768C116.662 612.12 116.442 612.608 116.386 613.232H120.538ZM123.672 609.356C123.464 609.356 123.288 609.284 123.144 609.14C123 608.996 122.928 608.82 122.928 608.612C122.928 608.404 123 608.228 123.144 608.084C123.288 607.94 123.464 607.868 123.672 607.868C123.872 607.868 124.04 607.94 124.176 608.084C124.32 608.228 124.392 608.404 124.392 608.612C124.392 608.82 124.32 608.996 124.176 609.14C124.04 609.284 123.872 609.356 123.672 609.356ZM124.2 610.424V617H123.108V610.424H124.2ZM128.773 610.316C129.341 610.316 129.837 610.44 130.261 610.688C130.693 610.936 131.013 611.248 131.221 611.624V610.424H132.325V617.144C132.325 617.744 132.197 618.276 131.941 618.74C131.685 619.212 131.317 619.58 130.837 619.844C130.365 620.108 129.813 620.24 129.181 620.24C128.317 620.24 127.597 620.036 127.021 619.628C126.445 619.22 126.105 618.664 126.001 617.96H127.081C127.201 618.36 127.449 618.68 127.825 618.92C128.201 619.168 128.653 619.292 129.181 619.292C129.781 619.292 130.269 619.104 130.645 618.728C131.029 618.352 131.221 617.824 131.221 617.144V615.764C131.005 616.148 130.685 616.468 130.261 616.724C129.837 616.98 129.341 617.108 128.773 617.108C128.189 617.108 127.657 616.964 127.177 616.676C126.705 616.388 126.333 615.984 126.061 615.464C125.789 614.944 125.653 614.352 125.653 613.688C125.653 613.016 125.789 612.428 126.061 611.924C126.333 611.412 126.705 611.016 127.177 610.736C127.657 610.456 128.189 610.316 128.773 610.316ZM131.221 613.7C131.221 613.204 131.121 612.772 130.921 612.404C130.721 612.036 130.449 611.756 130.105 611.564C129.769 611.364 129.397 611.264 128.989 611.264C128.581 611.264 128.209 611.36 127.873 611.552C127.537 611.744 127.269 612.024 127.069 612.392C126.869 612.76 126.769 613.192 126.769 613.688C126.769 614.192 126.869 614.632 127.069 615.008C127.269 615.376 127.537 615.66 127.873 615.86C128.209 616.052 128.581 616.148 128.989 616.148C129.397 616.148 129.769 616.052 130.105 615.86C130.449 615.66 130.721 615.376 130.921 615.008C131.121 614.632 131.221 614.196 131.221 613.7ZM137.434 610.304C137.93 610.304 138.378 610.412 138.778 610.628C139.178 610.836 139.49 611.152 139.714 611.576C139.946 612 140.062 612.516 140.062 613.124V617H138.982V613.28C138.982 612.624 138.818 612.124 138.49 611.78C138.162 611.428 137.714 611.252 137.146 611.252C136.57 611.252 136.11 611.432 135.766 611.792C135.43 612.152 135.262 612.676 135.262 613.364V617H134.17V608.12H135.262V611.36C135.478 611.024 135.774 610.764 136.15 610.58C136.534 610.396 136.962 610.304 137.434 610.304ZM143.178 611.324V615.2C143.178 615.52 143.246 615.748 143.382 615.884C143.518 616.012 143.754 616.076 144.09 616.076H144.894V617H143.91C143.302 617 142.846 616.86 142.542 616.58C142.238 616.3 142.086 615.84 142.086 615.2V611.324H141.234V610.424H142.086V608.768H143.178V610.424H144.894V611.324H143.178Z" fill="#ADA4A5"/>
<g clip-path="url(#clip0_255_3893)">
<path d="M46.582 604.5H61.418C62.0141 604.5 62.5 604.986 62.5 605.582V620.418C62.5 621.014 62.0141 621.5 61.418 621.5H46.582C45.9859 621.5 45.5 621.014 45.5 620.418V605.582C45.5 604.986 45.9859 604.5 46.582 604.5ZM46.582 604.555C46.0152 604.555 45.5547 605.015 45.5547 605.582V620.418C45.5547 620.985 46.0152 621.445 46.582 621.445H61.418C61.9848 621.445 62.4453 620.985 62.4453 620.418V605.582C62.4453 605.015 61.9848 604.555 61.418 604.555H46.582Z" stroke="#7B6F72"/>
<path d="M54 606.68C55.9712 606.68 57.8503 607.265 59.4629 608.377L59.7822 608.606C59.788 608.611 59.792 608.617 59.793 608.624V608.625C59.7939 608.632 59.7913 608.639 59.7871 608.645L57.0039 612.349C56.9948 612.361 56.9777 612.362 56.9658 612.354C56.1044 611.708 55.077 611.365 54 611.365C52.9229 611.365 51.8955 611.708 51.0342 612.354C51.0311 612.356 51.0285 612.358 51.0264 612.358C51.0241 612.359 51.0214 612.359 51.0186 612.359C51.0139 612.359 51.0095 612.358 51.0059 612.356C51.0027 612.355 50.9993 612.353 50.9961 612.349L48.2129 608.645C48.2088 608.639 48.2062 608.632 48.207 608.625L48.2178 608.606C49.8992 607.345 51.8973 606.68 54 606.68ZM54 606.734C52.098 606.734 50.2773 607.284 48.7051 608.329L48.2637 608.622L48.582 609.046L50.7383 611.914L51.0117 612.277L51.3994 612.04C52.0455 611.645 52.7648 611.405 53.5195 611.334L53.9727 611.291V609.229C53.9729 609.214 53.985 609.201 54 609.201C54.015 609.201 54.0271 609.214 54.0273 609.229V611.291L54.4805 611.334C55.2352 611.405 55.9545 611.645 56.6006 612.04L56.9883 612.277L57.2617 611.914L59.418 609.046L59.7363 608.622L59.2949 608.329C57.7227 607.284 55.902 606.734 54 606.734Z" stroke="#7B6F72"/>
</g>
<rect x="30" y="652" width="252" height="48" rx="14" fill="#F7F8F8"/>
<rect x="297" y="652" width="48" height="48" rx="14" fill="url(#paint3_linear_255_3893)"/>
<path d="M311.444 675.812C311.444 674.996 311.632 674.264 312.008 673.616C312.392 672.968 312.908 672.464 313.556 672.104C314.212 671.736 314.928 671.552 315.704 671.552C316.592 671.552 317.38 671.772 318.068 672.212C318.764 672.644 319.268 673.26 319.58 674.06H317.936C317.72 673.62 317.42 673.292 317.036 673.076C316.652 672.86 316.208 672.752 315.704 672.752C315.152 672.752 314.66 672.876 314.228 673.124C313.796 673.372 313.456 673.728 313.208 674.192C312.968 674.656 312.848 675.196 312.848 675.812C312.848 676.428 312.968 676.968 313.208 677.432C313.456 677.896 313.796 678.256 314.228 678.512C314.66 678.76 315.152 678.884 315.704 678.884C316.208 678.884 316.652 678.776 317.036 678.56C317.42 678.344 317.72 678.016 317.936 677.576H319.58C319.268 678.376 318.764 678.992 318.068 679.424C317.38 679.856 316.592 680.072 315.704 680.072C314.92 680.072 314.204 679.892 313.556 679.532C312.908 679.164 312.392 678.656 312.008 678.008C311.632 677.36 311.444 676.628 311.444 675.812ZM329.965 671.66V680H328.597V674.288L326.053 680H325.105L322.549 674.288V680H321.181V671.66H322.657L325.585 678.2L328.501 671.66H329.965Z" fill="white"/>
<path d="M79.78 671.636L77.056 676.844V680H75.964V676.844L73.228 671.636H74.44L76.504 675.872L78.568 671.636H79.78ZM83.7998 680.108C83.1838 680.108 82.6238 679.968 82.1198 679.688C81.6238 679.408 81.2318 679.012 80.9438 678.5C80.6638 677.98 80.5238 677.38 80.5238 676.7C80.5238 676.028 80.6678 675.436 80.9558 674.924C81.2518 674.404 81.6518 674.008 82.1558 673.736C82.6598 673.456 83.2238 673.316 83.8478 673.316C84.4718 673.316 85.0358 673.456 85.5398 673.736C86.0438 674.008 86.4398 674.4 86.7278 674.912C87.0238 675.424 87.1718 676.02 87.1718 676.7C87.1718 677.38 87.0198 677.98 86.7158 678.5C86.4198 679.012 86.0158 679.408 85.5038 679.688C84.9918 679.968 84.4238 680.108 83.7998 680.108ZM83.7998 679.148C84.1918 679.148 84.5598 679.056 84.9038 678.872C85.2478 678.688 85.5238 678.412 85.7318 678.044C85.9478 677.676 86.0558 677.228 86.0558 676.7C86.0558 676.172 85.9518 675.724 85.7438 675.356C85.5358 674.988 85.2638 674.716 84.9278 674.54C84.5918 674.356 84.2278 674.264 83.8358 674.264C83.4358 674.264 83.0678 674.356 82.7318 674.54C82.4038 674.716 82.1398 674.988 81.9398 675.356C81.7398 675.724 81.6398 676.172 81.6398 676.7C81.6398 677.236 81.7358 677.688 81.9278 678.056C82.1278 678.424 82.3918 678.7 82.7198 678.884C83.0478 679.06 83.4078 679.148 83.7998 679.148ZM94.4396 673.424V680H93.3476V679.028C93.1396 679.364 92.8476 679.628 92.4716 679.82C92.1036 680.004 91.6956 680.096 91.2476 680.096C90.7356 680.096 90.2756 679.992 89.8676 679.784C89.4596 679.568 89.1356 679.248 88.8956 678.824C88.6636 678.4 88.5476 677.884 88.5476 677.276V673.424H89.6276V677.132C89.6276 677.78 89.7916 678.28 90.1196 678.632C90.4476 678.976 90.8956 679.148 91.4636 679.148C92.0476 679.148 92.5076 678.968 92.8436 678.608C93.1796 678.248 93.3476 677.724 93.3476 677.036V673.424H94.4396ZM97.3754 674.492C97.5674 674.116 97.8394 673.824 98.1914 673.616C98.5514 673.408 98.9874 673.304 99.4994 673.304V674.432H99.2114C97.9874 674.432 97.3754 675.096 97.3754 676.424V680H96.2834V673.424H97.3754V674.492ZM110.403 671.636V680H109.311V676.208H105.051V680H103.959V671.636H105.051V675.308H109.311V671.636H110.403ZM118.268 676.46C118.268 676.668 118.256 676.888 118.232 677.12H112.976C113.016 677.768 113.236 678.276 113.636 678.644C114.044 679.004 114.536 679.184 115.112 679.184C115.584 679.184 115.976 679.076 116.288 678.86C116.608 678.636 116.832 678.34 116.96 677.972H118.136C117.96 678.604 117.608 679.12 117.08 679.52C116.552 679.912 115.896 680.108 115.112 680.108C114.488 680.108 113.928 679.968 113.432 679.688C112.944 679.408 112.56 679.012 112.28 678.5C112 677.98 111.86 677.38 111.86 676.7C111.86 676.02 111.996 675.424 112.268 674.912C112.54 674.4 112.92 674.008 113.408 673.736C113.904 673.456 114.472 673.316 115.112 673.316C115.736 673.316 116.288 673.452 116.768 673.724C117.248 673.996 117.616 674.372 117.872 674.852C118.136 675.324 118.268 675.86 118.268 676.46ZM117.14 676.232C117.14 675.816 117.048 675.46 116.864 675.164C116.68 674.86 116.428 674.632 116.108 674.48C115.796 674.32 115.448 674.24 115.064 674.24C114.512 674.24 114.04 674.416 113.648 674.768C113.264 675.12 113.044 675.608 112.988 676.232H117.14ZM120.273 672.356C120.065 672.356 119.889 672.284 119.745 672.14C119.601 671.996 119.529 671.82 119.529 671.612C119.529 671.404 119.601 671.228 119.745 671.084C119.889 670.94 120.065 670.868 120.273 670.868C120.473 670.868 120.641 670.94 120.777 671.084C120.921 671.228 120.993 671.404 120.993 671.612C120.993 671.82 120.921 671.996 120.777 672.14C120.641 672.284 120.473 672.356 120.273 672.356ZM120.801 673.424V680H119.709V673.424H120.801ZM125.374 673.316C125.942 673.316 126.438 673.44 126.862 673.688C127.294 673.936 127.614 674.248 127.822 674.624V673.424H128.926V680.144C128.926 680.744 128.798 681.276 128.542 681.74C128.286 682.212 127.918 682.58 127.438 682.844C126.966 683.108 126.414 683.24 125.782 683.24C124.918 683.24 124.198 683.036 123.622 682.628C123.046 682.22 122.706 681.664 122.602 680.96H123.682C123.802 681.36 124.05 681.68 124.426 681.92C124.802 682.168 125.254 682.292 125.782 682.292C126.382 682.292 126.87 682.104 127.246 681.728C127.63 681.352 127.822 680.824 127.822 680.144V678.764C127.606 679.148 127.286 679.468 126.862 679.724C126.438 679.98 125.942 680.108 125.374 680.108C124.79 680.108 124.258 679.964 123.778 679.676C123.306 679.388 122.934 678.984 122.662 678.464C122.39 677.944 122.254 677.352 122.254 676.688C122.254 676.016 122.39 675.428 122.662 674.924C122.934 674.412 123.306 674.016 123.778 673.736C124.258 673.456 124.79 673.316 125.374 673.316ZM127.822 676.7C127.822 676.204 127.722 675.772 127.522 675.404C127.322 675.036 127.05 674.756 126.706 674.564C126.37 674.364 125.998 674.264 125.59 674.264C125.182 674.264 124.81 674.36 124.474 674.552C124.138 674.744 123.87 675.024 123.67 675.392C123.47 675.76 123.37 676.192 123.37 676.688C123.37 677.192 123.47 677.632 123.67 678.008C123.87 678.376 124.138 678.66 124.474 678.86C124.81 679.052 125.182 679.148 125.59 679.148C125.998 679.148 126.37 679.052 126.706 678.86C127.05 678.66 127.322 678.376 127.522 678.008C127.722 677.632 127.822 677.196 127.822 676.7ZM134.036 673.304C134.532 673.304 134.98 673.412 135.38 673.628C135.78 673.836 136.092 674.152 136.316 674.576C136.548 675 136.664 675.516 136.664 676.124V680H135.584V676.28C135.584 675.624 135.42 675.124 135.092 674.78C134.764 674.428 134.316 674.252 133.748 674.252C133.172 674.252 132.712 674.432 132.368 674.792C132.032 675.152 131.864 675.676 131.864 676.364V680H130.772V671.12H131.864V674.36C132.08 674.024 132.376 673.764 132.752 673.58C133.136 673.396 133.564 673.304 134.036 673.304ZM139.779 674.324V678.2C139.779 678.52 139.847 678.748 139.983 678.884C140.119 679.012 140.355 679.076 140.691 679.076H141.495V680H140.511C139.903 680 139.447 679.86 139.143 679.58C138.839 679.3 138.687 678.84 138.687 678.2V674.324H137.835V673.424H138.687V671.768H139.779V673.424H141.495V674.324H139.779Z" fill="#ADA4A5"/>
<path d="M57.6296 682.123V671.91" stroke="#7B6F72" stroke-width="1.2" stroke-linecap="round" stroke-linejoin="round"/>
<path d="M60.6877 679.051L57.6294 682.124L54.571 679.051" stroke="#7B6F72" stroke-width="1.2" stroke-linecap="round" stroke-linejoin="round"/>
<path d="M50.1833 669.875V680.088" stroke="#7B6F72" stroke-width="1.2" stroke-linecap="round" stroke-linejoin="round"/>
<path d="M47.125 672.947L50.1833 669.874L53.2417 672.947" stroke="#7B6F72" stroke-width="1.2" stroke-linecap="round" stroke-linejoin="round"/>
<defs>
<filter id="filter0_d_255_3893" x="18" y="718" width="359" height="104" filterUnits="userSpaceOnUse" color-interpolation-filters="sRGB">
<feFlood flood-opacity="0" result="BackgroundImageFix"/>
<feColorMatrix in="SourceAlpha" type="matrix" values="0 0 0 0 0 0 0 0 0 0 0 0 0 0 0 0 0 0 127 0" result="hardAlpha"/>
<feOffset dy="10"/>
<feGaussianBlur stdDeviation="11"/>
<feColorMatrix type="matrix" values="0 0 0 0 0.584314 0 0 0 0 0.678431 0 0 0 0 0.996078 0 0 0 0.3 0"/>
<feBlend mode="normal" in2="BackgroundImageFix" result="effect1_dropShadow_255_3893"/>
<feBlend mode="normal" in="SourceGraphic" in2="effect1_dropShadow_255_3893" result="shape"/>
</filter>
<filter id="filter1_d_255_3893" x="18" y="718" width="359" height="104" filterUnits="userSpaceOnUse" color-interpolation-filters="sRGB">
<feFlood flood-opacity="0" result="BackgroundImageFix"/>
<feColorMatrix in="SourceAlpha" type="matrix" values="0 0 0 0 0 0 0 0 0 0 0 0 0 0 0 0 0 0 127 0" result="hardAlpha"/>
<feOffset dy="10"/>
<feGaussianBlur stdDeviation="11"/>
<feColorMatrix type="matrix" values="0 0 0 0 0.584314 0 0 0 0 0.678431 0 0 0 0 0.996078 0 0 0 0.3 0"/>
<feBlend mode="normal" in2="BackgroundImageFix" result="effect1_dropShadow_255_3893"/>
<feBlend mode="normal" in="SourceGraphic" in2="effect1_dropShadow_255_3893" result="shape"/>
</filter>
<linearGradient id="paint0_linear_255_3893" x1="355" y1="790" x2="-7.51467" y2="642.728" gradientUnits="userSpaceOnUse">
<stop stop-color="#92A3FD"/>
<stop offset="1" stop-color="#9DCEFF"/>
</linearGradient>
<linearGradient id="paint1_linear_255_3893" x1="14" y1="80" x2="477.048" y2="127.548" gradientUnits="userSpaceOnUse">
<stop stop-color="#92A3FD"/>
<stop offset="1" stop-color="#9DCEFF"/>
</linearGradient>
<linearGradient id="paint2_linear_255_3893" x1="345" y1="637" x2="281.026" y2="632.05" gradientUnits="userSpaceOnUse">
<stop stop-color="#C58BF2"/>
<stop offset="1" stop-color="#EEA4CE"/>
</linearGradient>
<linearGradient id="paint3_linear_255_3893" x1="345" y1="700" x2="281.026" y2="695.05" gradientUnits="userSpaceOnUse">
<stop stop-color="#C58BF2"/>
<stop offset="1" stop-color="#EEA4CE"/>
</linearGradient>
<clipPath id="clip0_255_3893">
<rect width="18" height="18" fill="white" transform="translate(45 604)"/>
</clipPath>
</defs>
</svg>
